<svg width="16" height="17" viewBox="0 0 16 17" fill="none" xmlns="http://www.w3.org/2000/svg">
<g clip-path="url(#clip0_2_3928)">
<path d="M7.99976 0.00390625C5.18835 0.00390625 2.84351 2.26859 2.84351 5.16016C2.84351 6.26022 3.17407 7.24116 3.80847 8.16035L7.60516 14.0847C7.78935 14.3727 8.21054 14.3722 8.39435 14.0847L12.2075 8.14019C12.8283 7.26266 13.156 6.23225 13.156 5.16016C13.156 2.317 10.8429 0.00390625 7.99976 0.00390625ZM7.99976 7.50391C6.70747 7.50391 5.65601 6.45244 5.65601 5.16016C5.65601 3.86788 6.70747 2.81641 7.99976 2.81641C9.29204 2.81641 10.3435 3.86788 10.3435 5.16016C10.3435 6.45244 9.29204 7.50391 7.99976 7.50391Z" fill="#999999"/>
<path d="M11.6643 10.7754L9.30391 14.4656C8.69294 15.4182 7.30316 15.415 6.69513 14.4665L4.33094 10.7764C2.25082 11.2573 0.968506 12.1383 0.968506 13.1912C0.968506 15.0181 4.59126 16.0037 7.99976 16.0037C11.4083 16.0037 15.031 15.0181 15.031 13.1912C15.031 12.1376 13.7469 11.2561 11.6643 10.7754Z" fill="#999999"/>
</g>
<defs>
<clipPath id="clip0_2_3928">
<rect width="16" height="16" fill="white" transform="translate(0 0.00390625)"/>
</clipPath>
</defs>
</svg>
