<svg width="21" height="17" viewBox="0 0 21 17" fill="none" xmlns="http://www.w3.org/2000/svg">
<path d="M19.6666 0.333984H1.33335C0.59702 0.333984 0 0.930967 0 1.6673V15.334C0 16.0703 0.59702 16.6673 1.33335 16.6673H19.6666C20.403 16.6673 21 16.0703 21 15.334V1.6673C21 0.930967 20.403 0.333984 19.6666 0.333984ZM19.6666 1.6673V11.3643L17.0389 8.97529C16.644 8.6163 16.0366 8.63063 15.6593 9.00831L12.9999 11.6673L7.75634 5.40396C7.35998 4.93062 6.63397 4.92597 6.23167 5.39362L1.33335 11.0863V1.6673H19.6666ZM14 5.16731C14 4.15463 14.8206 3.33396 15.8333 3.33396C16.846 3.33396 17.6666 4.15463 17.6666 5.16731C17.6666 6.17998 16.846 7.00061 15.8333 7.00061C14.8206 7.00065 14 6.17998 14 5.16731Z" fill="#A6A6A6"/>
</svg>
