<svg width="58" height="58" viewBox="0 0 58 58" fill="none" xmlns="http://www.w3.org/2000/svg">
<path d="M15.103 44.7816C11.2341 44.7816 7.79268 42.3044 6.54302 38.6164L6.4585 38.3385C6.16378 37.3619 6.04032 36.5406 6.04032 35.7188V19.2413L0.177428 38.812C-0.576619 41.6906 1.14167 44.6749 4.02466 45.4701L41.3947 55.4781C41.8611 55.5989 42.3275 55.6568 42.7868 55.6568C45.1937 55.6568 47.393 54.0594 48.0094 51.7052L50.1866 44.7816H15.103Z" fill="black"/>
<path d="M21.7501 19.4079C24.4158 19.4079 26.5833 17.24 26.5833 14.5743C26.5833 11.9086 24.4158 9.74072 21.7501 9.74072C19.0844 9.74072 16.9165 11.9086 16.9165 14.5743C16.9165 17.24 19.0844 19.4079 21.7501 19.4079Z" fill="black"/>
<path d="M51.9576 2.48865H15.7067C12.3768 2.48865 9.66504 5.20038 9.66504 8.53076V35.1145C9.66504 38.4448 12.3768 41.1566 15.7067 41.1566H51.9576C55.288 41.1566 57.9997 38.4448 57.9997 35.1145V8.53076C57.9997 5.20038 55.288 2.48865 51.9576 2.48865ZM15.7067 7.32225H51.9576C52.6249 7.32225 53.1661 7.86344 53.1661 8.53076V25.6871L45.5318 16.7788C44.722 15.8292 43.5498 15.3216 42.2908 15.2928C41.039 15.2999 39.8645 15.8557 39.0622 16.8178L30.0863 27.5912L27.1621 24.6742C25.5093 23.0214 22.8193 23.0214 21.1687 24.6742L14.4986 31.342V8.53076C14.4986 7.86344 15.0398 7.32225 15.7067 7.32225Z" fill="black"/>
</svg>
