<svg width="63" height="30" viewBox="0 0 63 30" fill="none" xmlns="http://www.w3.org/2000/svg">
<path d="M56.1744 13.5858C56.9489 15.9647 60.5415 15.2845 60.5415 17.5724C60.5415 19.6621 54.0955 20.9578 52.0008 21.0656L43.2689 21.2281C37.6751 21.2281 33.6216 19.7026 33.6216 15.1186C33.6216 10.5345 37.757 5.57031 43.6697 5.57031C49.2542 5.57031 54.7496 9.20816 56.1744 13.5858Z" fill="#D87E35"/>
<path d="M58.3879 15.5033C58.013 15.3463 57.5767 15.4282 57.2918 15.7182C55.788 17.2501 50.9639 18.1778 49.2054 18.2682L40.4736 18.4305C37.9188 18.4305 35.6856 18.1121 34.0129 17.3296C35.1535 20.2071 38.6968 21.2272 43.2703 21.2272L52.0021 21.0647C54.0966 20.9571 60.5428 19.6612 60.5428 17.5715C60.5428 16.3277 59.4813 15.9611 58.3879 15.5033Z" fill="#C67030"/>
<path d="M58.7798 5.84174C58.4711 6.26174 58.531 6.77031 58.6347 7.12119C58.7141 7.3899 58.6171 7.67897 58.3907 7.84377L54.5123 10.654C54.0401 10.9962 53.9367 11.6574 54.2818 12.1275C54.6268 12.5974 55.2887 12.6968 55.7565 12.3486L59.5992 9.48989C59.8244 9.32326 60.1293 9.31731 60.3619 9.47341C60.6656 9.67757 61.133 9.88723 61.626 9.71808C62.2723 9.49676 62.5445 8.77967 62.2726 8.15322C62.0588 7.66089 61.5996 7.39653 61.1327 7.39653C61.0323 7.39653 60.9466 7.34641 60.8935 7.27271C60.8393 7.20015 60.8171 7.10357 60.8471 7.00766C60.9869 6.56226 60.8723 6.04476 60.4665 5.69365C59.9501 5.24642 59.1847 5.29151 58.7798 5.84174Z" fill="#E2E2E2"/>
<path d="M44.5335 19.2842C46.1432 21.4767 49.3297 21.8724 51.6505 20.1684C52.7425 19.3666 53.4056 18.2742 53.8222 16.9755C54.3756 15.2504 55.1861 13.8599 56.5392 12.6185C56.8816 12.3042 56.9452 11.8012 56.6852 11.4473L55.65 10.0374C55.3902 9.68331 54.891 9.59336 54.4889 9.82591C52.8991 10.7451 51.3296 11.1022 49.518 11.1136C48.1544 11.1221 46.9134 11.4276 45.8214 12.2294C43.5005 13.9332 42.924 17.092 44.5335 19.2842Z" fill="#E88C38"/>
<path d="M56.686 11.4482L55.6508 10.0383C55.5672 9.92453 55.4084 9.86731 55.2294 9.84259C54.7508 9.7769 54.2754 9.97397 53.9573 10.3374C52.874 11.5752 51.8259 13.1987 51.3936 14.547C50.977 15.8457 50.3137 16.9382 49.2217 17.7399C47.6308 18.9081 45.6329 19.0892 44.0151 18.3813C44.1518 18.6955 44.3239 18.9988 44.5345 19.2853C46.144 21.4776 49.3304 21.8735 51.6513 20.1693C52.7433 19.3677 53.4066 18.2751 53.8229 16.9766C54.3764 15.2515 55.1868 13.8611 56.54 12.6194C56.8824 12.3054 56.946 11.8023 56.686 11.4482Z" fill="#D38231"/>
<path d="M62.1604 20.8804H33.8395C33.3758 20.8804 33 21.2562 33 21.7199C33 22.1836 33.3758 22.5594 33.8395 22.5594H35.4811C35.6903 22.5594 35.8789 22.686 35.9578 22.8799L36.2453 23.5832C36.514 24.241 37.154 24.6711 37.8646 24.6711H58.1353C58.846 24.6711 59.4859 24.241 59.7546 23.5832L60.0421 22.8799C60.1211 22.686 60.3097 22.5594 60.5189 22.5594H62.1604C62.6241 22.5594 62.9999 22.1836 62.9999 21.7199C62.9999 21.2562 62.6241 20.8804 62.1604 20.8804Z" fill="#E2E2E2"/>
<path d="M62.1599 20.8804H59.5488C59.5488 21.8078 58.7972 22.5594 57.8697 22.5594H57.8496C57.8388 22.5594 57.8283 22.5604 57.8176 22.5606H35.4966C35.6991 22.567 35.8802 22.6911 35.9573 22.8797L36.197 23.466H56.3596C56.3365 23.5107 56.3145 23.5562 56.2953 23.6036L56.0904 24.1053C55.9506 24.4475 55.6178 24.6709 55.2481 24.6709H58.1348C58.8455 24.6709 59.4854 24.241 59.7541 23.5832L60.0416 22.8797C60.1208 22.686 60.3092 22.5594 60.5184 22.5594H62.1599C62.6236 22.5594 62.9994 22.1836 62.9994 21.7199C62.9994 21.2562 62.6236 20.8804 62.1599 20.8804Z" fill="#D8D6D4"/>
<path d="M5.47231 8.22801C5.11752 7.86498 4.66376 7.61436 4.16755 7.50735C3.67134 7.40035 3.15462 7.44169 2.68174 7.62623C2.20886 7.81077 1.80072 8.13035 1.50816 8.54517C1.2156 8.95999 1.05154 9.45172 1.03642 9.95911C0.753888 10.1221 0.513905 10.3496 0.336054 10.623C0.158203 10.8965 0.0475248 11.2081 0.0130518 11.5324C-0.0214212 11.8568 0.0212882 12.1847 0.137694 12.4894C0.2541 12.7941 0.440904 13.067 0.68286 13.2857C0.924816 13.5045 1.21507 13.6629 1.52992 13.7481C1.84478 13.8333 2.17532 13.8428 2.49457 13.7759C2.81382 13.709 3.11272 13.5676 3.3669 13.3632C3.62107 13.1588 3.8233 12.8971 3.95709 12.5996C4.37296 12.5452 4.76937 12.3905 5.11221 12.1488C5.41213 12.2771 5.73812 12.3326 6.06358 12.3108C6.38904 12.289 6.70473 12.1906 6.98491 12.0236C7.26509 11.8566 7.5018 11.6257 7.67573 11.3497C7.84965 11.0738 7.95587 10.7606 7.9857 10.4358C8.01553 10.111 7.96814 9.78372 7.84739 9.48071C7.72663 9.1777 7.53594 8.90753 7.29088 8.69226C7.04581 8.477 6.75332 8.32273 6.43727 8.24204C6.12122 8.16136 5.79057 8.15655 5.47231 8.22801Z" fill="#02A437"/>
<path d="M4.56004 12.9607C4.4559 12.9608 4.35417 12.9293 4.26817 12.8706C4.18217 12.8118 4.11592 12.7285 4.07807 12.6315L3.13792 10.2223C3.11323 10.159 3.10124 10.0915 3.10265 10.0236C3.10405 9.9557 3.11882 9.88874 3.14611 9.82654C3.17339 9.76434 3.21266 9.70812 3.26167 9.66109C3.31069 9.61407 3.36848 9.57716 3.43176 9.55247C3.49503 9.52778 3.56255 9.5158 3.63046 9.5172C3.69837 9.51861 3.76534 9.53337 3.82754 9.56066C3.88974 9.58794 3.94596 9.62721 3.99298 9.67622C4.04001 9.72524 4.07692 9.78303 4.10161 9.84631L5.04195 12.2554C5.07256 12.3338 5.08359 12.4185 5.07406 12.5021C5.06453 12.5857 5.03474 12.6657 4.98728 12.7352C4.93982 12.8047 4.87611 12.8616 4.8017 12.9009C4.72728 12.9402 4.6444 12.9607 4.56024 12.9607H4.56004Z" fill="#027E2A"/>
<path d="M5.52461 12.5805C5.50877 12.5805 5.4928 12.5798 5.4767 12.5783C5.40906 12.5721 5.3433 12.5526 5.28319 12.521C5.22308 12.4894 5.16978 12.4462 5.12635 12.394C5.08292 12.3418 5.05021 12.2815 5.03008 12.2166C5.00994 12.1517 5.00279 12.0835 5.00902 12.0159C5.08961 11.1573 5.44475 10.3476 6.02177 9.70675C6.06714 9.65572 6.12217 9.61418 6.18368 9.58452C6.24518 9.55487 6.31195 9.53769 6.38013 9.53397C6.44832 9.53025 6.51656 9.54007 6.58092 9.56286C6.64529 9.58565 6.70451 9.62097 6.75516 9.66676C6.80581 9.71255 6.84689 9.76792 6.87603 9.82967C6.90517 9.89142 6.9218 9.95834 6.92495 10.0265C6.9281 10.0948 6.91771 10.1629 6.89439 10.2271C6.87106 10.2913 6.83526 10.3502 6.78905 10.4005C6.36178 10.875 6.09881 11.4747 6.0391 12.1105C6.02735 12.2388 5.96808 12.3582 5.87291 12.4452C5.77774 12.5321 5.65352 12.5804 5.52461 12.5805Z" fill="#027E2A"/>
<path d="M3.59544 13.3362C3.46728 13.3364 3.34366 13.2888 3.24872 13.2027C2.77417 12.7754 2.17455 12.5124 1.53877 12.4527C1.47113 12.4465 1.40537 12.427 1.34526 12.3954C1.28515 12.3638 1.23185 12.3206 1.18842 12.2684C1.14498 12.2162 1.11226 12.1559 1.09211 12.091C1.07197 12.0262 1.0648 11.958 1.07102 11.8903C1.07723 11.8227 1.09671 11.7569 1.12834 11.6968C1.15996 11.6367 1.20312 11.5834 1.25534 11.54C1.30757 11.4965 1.36783 11.4638 1.4327 11.4437C1.49757 11.4235 1.56578 11.4164 1.63342 11.4226C2.49181 11.5033 3.30139 11.8583 3.94223 12.4351C4.01986 12.5051 4.07443 12.5971 4.09875 12.6988C4.12306 12.8005 4.11597 12.9072 4.07841 13.0048C4.04085 13.1024 3.97459 13.1863 3.88837 13.2455C3.80215 13.3047 3.70002 13.3363 3.59544 13.3362Z" fill="#027E2A"/>
<path d="M10.6268 22.2904L6.77226 23.7949L3.05722 16.3479C2.88147 15.9955 2.78108 15.6104 2.76245 15.217C2.74382 14.8237 2.80737 14.4308 2.94903 14.0634C3.09069 13.696 3.30737 13.3622 3.58523 13.0831C3.8631 12.8041 4.19606 12.5861 4.56288 12.4429C4.92972 12.2998 5.32237 12.2346 5.7158 12.2517C6.10922 12.2687 6.49477 12.3676 6.84786 12.5419C7.20095 12.7163 7.51383 12.9623 7.76654 13.2643C8.01925 13.5663 8.20625 13.9177 8.3156 14.296L10.6268 22.2904Z" fill="#FD9226"/>
<path d="M16.0342 0H18.103V14.4818H16.0342V0Z" fill="#026A23"/>
<path d="M17.0088 10.4731C16.9597 10.1622 16.8778 9.85725 16.7644 9.5635L14.4803 3.62402L12.9287 4.14123L15.1443 9.90163C15.3893 10.5385 15.5149 11.215 15.5147 11.8974V13.7328L17.0088 10.4731Z" fill="#027226"/>
<path d="M19.2859 19.512C19.5411 19.8524 19.6791 20.2664 19.6791 20.6919C19.6791 21.1173 19.5411 21.5313 19.2859 21.8717L19.2788 21.8814C19.074 22.1544 18.8085 22.376 18.5033 22.5286C18.1981 22.6812 17.8615 22.7607 17.5203 22.7607H16.6152C16.2739 22.7607 15.9373 22.6812 15.6321 22.5286C15.3269 22.376 15.0614 22.1544 14.8566 21.8814L14.8495 21.8717C14.5943 21.5313 14.4563 21.1173 14.4563 20.6919C14.4563 20.2664 14.5943 19.8524 14.8495 19.512L15.5161 18.623V13.7328L17.0102 10.4731L17.0677 10.3477L19.6537 3.62402L21.2054 4.14123L18.9898 9.90163C18.7448 10.5385 18.6192 11.215 18.6193 11.8974V18.623L19.2859 19.512Z" fill="#027E2A"/>
<path d="M19.2859 21.8679L19.2788 21.8776C19.0613 22.1679 18.7752 22.3996 18.4461 22.5519L15.3538 22.3586C15.1635 22.2258 14.9957 22.0634 14.8566 21.8776L14.8495 21.8679C14.5943 21.5275 14.4563 21.1135 14.4563 20.688C14.4563 20.2625 14.5943 19.8485 14.8495 19.5081L14.8954 19.4467L15.5161 19.1364L18.6193 11.8936V18.6192L19.2859 19.5081C19.5411 19.8485 19.6791 20.2625 19.6791 20.688C19.6791 21.1135 19.5411 21.5275 19.2859 21.8679Z" fill="#027E2A"/>
<path d="M3.6607 17.7568C3.54002 17.757 3.42308 17.7149 3.33013 17.638C3.23718 17.561 3.17408 17.4539 3.15175 17.3353C3.12942 17.2167 3.14927 17.094 3.20786 16.9885C3.26645 16.883 3.36009 16.8013 3.47257 16.7576L4.43619 16.3816C4.56398 16.3317 4.70635 16.3346 4.83198 16.3897C4.9576 16.4448 5.0562 16.5476 5.10607 16.6754C5.15594 16.8032 5.153 16.9456 5.0979 17.0712C5.0428 17.1968 4.94005 17.2954 4.81226 17.3453L3.84896 17.7213C3.78897 17.7448 3.72512 17.7568 3.6607 17.7568Z" fill="#E78244"/>
<path d="M6.55244 16.6308C6.43178 16.6309 6.31487 16.5889 6.22195 16.5119C6.12903 16.4349 6.06594 16.3279 6.04361 16.2093C6.02127 16.0907 6.0411 15.9681 6.09965 15.8626C6.15821 15.7571 6.25181 15.6754 6.36425 15.6316L7.32793 15.2556C7.45572 15.2057 7.59809 15.2087 7.72371 15.2638C7.84933 15.3189 7.94792 15.4216 7.99778 15.5494C8.04764 15.6772 8.0447 15.8196 7.98959 15.9452C7.93449 16.0708 7.83173 16.1694 7.70394 16.2193L6.74064 16.5954C6.68066 16.6188 6.61684 16.6308 6.55244 16.6308Z" fill="#E78244"/>
<path d="M4.48931 19.6392C4.36863 19.6394 4.25169 19.5973 4.15874 19.5204C4.0658 19.4434 4.0027 19.3363 3.98037 19.2177C3.95804 19.0991 3.97788 18.9765 4.03647 18.8709C4.09506 18.7654 4.1887 18.6837 4.30118 18.64L5.66725 18.1228C5.73053 18.0981 5.79806 18.0861 5.86597 18.0875C5.93389 18.0889 6.00086 18.1037 6.06307 18.131C6.12527 18.1583 6.1815 18.1975 6.22853 18.2465C6.27556 18.2956 6.31247 18.3533 6.33717 18.4166C6.36186 18.4799 6.37385 18.5474 6.37244 18.6153C6.37104 18.6833 6.35628 18.7502 6.32899 18.8124C6.3017 18.8746 6.26243 18.9309 6.21342 18.9779C6.16441 19.0249 6.10661 19.0618 6.04333 19.0865L4.67719 19.6037C4.61731 19.6272 4.5536 19.6392 4.48931 19.6392Z" fill="#E78244"/>
<path d="M7.78285 18.3681C7.66219 18.3683 7.54529 18.3262 7.45238 18.2492C7.35947 18.1722 7.29639 18.0652 7.27407 17.9466C7.25174 17.8281 7.27157 17.7054 7.33013 17.5999C7.38868 17.4944 7.48228 17.4127 7.59471 17.369L8.07656 17.1809C8.20436 17.131 8.34673 17.134 8.47236 17.1891C8.59799 17.2442 8.69658 17.347 8.74644 17.4748C8.7963 17.6026 8.79335 17.7449 8.73824 17.8706C8.68313 17.9962 8.58037 18.0948 8.45257 18.1446L7.97072 18.3326C7.91085 18.356 7.84713 18.3681 7.78285 18.3681Z" fill="#E78244"/>
<path d="M10.6687 11.375H11.8962C12.3045 11.375 12.7047 11.4887 13.052 11.7034C13.3993 11.9181 13.6799 12.2252 13.8625 12.5904L14.2892 13.4438H13.0616C12.6534 13.4438 12.2533 13.3301 11.906 13.1155C11.5588 12.9009 11.2781 12.5938 11.0956 12.2287L10.6687 11.375Z" fill="#02A437"/>
<path d="M13.1698 16.4199C13.0326 16.4199 12.9011 16.3654 12.8041 16.2684C12.7071 16.1714 12.6526 16.0399 12.6526 15.9027C12.6545 15.0544 12.9492 14.2328 13.487 13.5767C14.0248 12.9207 14.7727 12.4705 15.6042 12.3023L15.6545 12.2923C15.789 12.2654 15.9287 12.293 16.0428 12.3691C16.1569 12.4452 16.2361 12.5636 16.263 12.6981C16.2899 12.8326 16.2623 12.9723 16.1861 13.0864C16.11 13.2005 15.9917 13.2797 15.8572 13.3066L15.807 13.3167C15.2098 13.4375 14.6726 13.7608 14.2863 14.232C13.9 14.7032 13.6883 15.2934 13.687 15.9027C13.687 16.0399 13.6325 16.1714 13.5355 16.2684C13.4385 16.3654 13.307 16.4199 13.1698 16.4199Z" fill="#8F6934"/>
<path d="M19.2859 21.8679L19.2788 21.8776C19.0613 22.1679 18.7752 22.3996 18.4461 22.5519L15.3538 22.3586C15.1635 22.2258 14.9957 22.0634 14.8566 21.8776L14.8495 21.8679C14.5943 21.5275 14.4563 21.1135 14.4563 20.688C14.4563 20.2625 14.5943 19.8485 14.8495 19.5081L14.8954 19.4467L15.5161 19.1364L18.6193 11.8936V18.6192L19.2859 19.5081C19.5411 19.8485 19.6791 20.2625 19.6791 20.688C19.6791 21.1135 19.5411 21.5275 19.2859 21.8679Z" fill="#CBCBCB"/>
<path d="M11.3136 14.873C11.565 14.873 11.8126 14.9351 12.0343 15.0538C12.256 15.1724 12.445 15.344 12.5845 15.5532C12.6483 15.6489 12.7347 15.7273 12.836 15.7815C12.9374 15.8358 13.0505 15.8641 13.1655 15.8641C13.2804 15.8641 13.3936 15.8358 13.4949 15.7815C13.5963 15.7273 13.6827 15.6489 13.7464 15.5532C13.8859 15.344 14.0749 15.1724 14.2966 15.0538C14.5183 14.9351 14.7659 14.873 15.0173 14.873C15.2464 14.873 15.4726 14.9246 15.679 15.0238C15.8855 15.123 16.067 15.2674 16.2101 15.4463L16.3316 15.5981C16.7667 16.142 17.0222 16.8077 17.0626 17.5031C17.103 18.1985 16.9264 18.8893 16.5573 19.48L15.5481 21.0947C15.452 21.2484 15.3185 21.375 15.1601 21.4629C15.0016 21.5507 14.8235 21.5967 14.6423 21.5967C14.359 21.5967 14.0873 21.4842 13.887 21.2839C13.7923 21.1891 13.6798 21.114 13.556 21.0627C13.4322 21.0114 13.2995 20.985 13.1655 20.985C13.0315 20.985 12.8988 21.0114 12.775 21.0627C12.6512 21.114 12.5387 21.1891 12.4439 21.2839C12.2436 21.4842 11.9719 21.5967 11.6887 21.5967C11.5075 21.5968 11.3293 21.5507 11.1709 21.4629C11.0124 21.375 10.8789 21.2484 10.7829 21.0947L9.77369 19.48C9.40451 18.8893 9.22793 18.1985 9.26836 17.5031C9.3088 16.8077 9.56424 16.142 9.99939 15.5981L10.1208 15.4463C10.2639 15.2674 10.4454 15.123 10.6519 15.0238C10.8583 14.9246 11.0845 14.8731 11.3136 14.873Z" fill="#E82F3E"/>
<path d="M11.6764 19.1339C11.6085 19.134 11.5412 19.1206 11.4785 19.0946C11.4157 19.0686 11.3587 19.0305 11.3107 18.9824C11.083 18.7552 10.9327 18.462 10.8811 18.1445C10.8296 17.827 10.8794 17.5013 11.0235 17.2138L11.2136 16.8336C11.2756 16.712 11.3831 16.6198 11.5128 16.5772C11.6424 16.5345 11.7836 16.5448 11.9057 16.6059C12.0278 16.6669 12.1208 16.7737 12.1644 16.903C12.2081 17.0323 12.1989 17.1737 12.1388 17.2962L11.9487 17.6764C11.9019 17.7698 11.8857 17.8755 11.9024 17.9787C11.9192 18.0818 11.968 18.177 12.0419 18.2508C12.1143 18.3231 12.1636 18.4152 12.1836 18.5156C12.2036 18.6159 12.1934 18.7199 12.1543 18.8145C12.1152 18.909 12.0489 18.9898 11.9638 19.0467C11.8788 19.1035 11.7788 19.1339 11.6764 19.1339Z" fill="#FF6268"/>
<path d="M0.00146484 23.7915H29.9995V26.8947H0.00146484V23.7915Z" fill="#EA9D2D"/>
<path d="M3.10558 25.8591H2.07116C1.93399 25.8591 1.80244 25.8046 1.70544 25.7076C1.60845 25.6106 1.55396 25.4791 1.55396 25.3419C1.55396 25.2047 1.60845 25.0732 1.70544 24.9762C1.80244 24.8792 1.93399 24.8247 2.07116 24.8247H3.10558C3.24275 24.8247 3.3743 24.8792 3.4713 24.9762C3.56829 25.0732 3.62278 25.2047 3.62278 25.3419C3.62278 25.4791 3.56829 25.6106 3.4713 25.7076C3.3743 25.8046 3.24275 25.8591 3.10558 25.8591Z" fill="#C38325"/>
<path d="M27.9266 25.8591H26.8922C26.755 25.8591 26.6235 25.8046 26.5265 25.7076C26.4295 25.6106 26.375 25.4791 26.375 25.3419C26.375 25.2047 26.4295 25.0732 26.5265 24.9762C26.6235 24.8792 26.755 24.8247 26.8922 24.8247H27.9266C28.0638 24.8247 28.1953 24.8792 28.2923 24.9762C28.3893 25.0732 28.4438 25.2047 28.4438 25.3419C28.4438 25.4791 28.3893 25.6106 28.2923 25.7076C28.1953 25.8046 28.0638 25.8591 27.9266 25.8591Z" fill="#C38325"/>
<path d="M0.00146484 26.8965H29.9995V29.9997H0.00146484V26.8965Z" fill="#FBB540"/>
<path d="M3.10436 28.9641H2.06994C1.93277 28.9641 1.80122 28.9096 1.70422 28.8126C1.60723 28.7156 1.55273 28.5841 1.55273 28.4469C1.55273 28.3097 1.60723 28.1782 1.70422 28.0812C1.80122 27.9842 1.93277 27.9297 2.06994 27.9297H3.10436C3.24153 27.9297 3.37308 27.9842 3.47008 28.0812C3.56707 28.1782 3.62156 28.3097 3.62156 28.4469C3.62156 28.5841 3.56707 28.7156 3.47008 28.8126C3.37308 28.9096 3.24153 28.9641 3.10436 28.9641Z" fill="#C38325"/>
<path d="M15.5211 25.863H14.4867C14.3495 25.863 14.218 25.8085 14.121 25.7115C14.024 25.6145 13.9695 25.483 13.9695 25.3458C13.9695 25.2086 14.024 25.0771 14.121 24.9801C14.218 24.8831 14.3495 24.8286 14.4867 24.8286H15.5211C15.6583 24.8286 15.7898 24.8831 15.8868 24.9801C15.9838 25.0771 16.0383 25.2086 16.0383 25.3458C16.0383 25.483 15.9838 25.6145 15.8868 25.7115C15.7898 25.8085 15.6583 25.863 15.5211 25.863Z" fill="#C38325"/>
<path d="M15.5211 28.9641H14.4867C14.3495 28.9641 14.218 28.9096 14.121 28.8126C14.024 28.7156 13.9695 28.5841 13.9695 28.4469C13.9695 28.3097 14.024 28.1782 14.121 28.0812C14.218 27.9842 14.3495 27.9297 14.4867 27.9297H15.5211C15.6583 27.9297 15.7898 27.9842 15.8868 28.0812C15.9838 28.1782 16.0383 28.3097 16.0383 28.4469C16.0383 28.5841 15.9838 28.7156 15.8868 28.8126C15.7898 28.9096 15.6583 28.9641 15.5211 28.9641Z" fill="#C38325"/>
<path d="M27.9296 28.9641H26.8951C26.758 28.9641 26.6264 28.9096 26.5294 28.8126C26.4324 28.7156 26.3779 28.5841 26.3779 28.4469C26.3779 28.3097 26.4324 28.1782 26.5294 28.0812C26.6264 27.9842 26.758 27.9297 26.8951 27.9297H27.9296C28.0667 27.9297 28.1983 27.9842 28.2953 28.0812C28.3923 28.1782 28.4468 28.3097 28.4468 28.4469C28.4468 28.5841 28.3923 28.7156 28.2953 28.8126C28.1983 28.9096 28.0667 28.9641 27.9296 28.9641Z" fill="#C38325"/>
<path d="M21.2065 17.5875L21.661 18.042C22.0088 18.3898 22.2848 18.8027 22.473 19.2572C22.6613 19.7117 22.7582 20.1988 22.7582 20.6908H24.3098V20.1736C24.3098 19.6816 24.2129 19.1945 24.0246 18.74C23.8364 18.2855 23.5605 17.8726 23.2126 17.5247L22.7582 17.0703L21.2065 17.5875Z" fill="#027E2A"/>
<path d="M27.415 17.5875L26.9606 18.042C26.6127 18.3898 26.3368 18.8027 26.1485 19.2572C25.9603 19.7117 25.8634 20.1988 25.8634 20.6908H24.3118V20.1736C24.3118 19.6816 24.4087 19.1945 24.5969 18.74C24.7852 18.2855 25.0611 17.8726 25.409 17.5247L25.8634 17.0703L27.415 17.5875Z" fill="#027E2A"/>
<path d="M30.002 13.5774C30.0022 13.2927 29.9397 13.0115 29.8188 12.7538C29.698 12.4961 29.5218 12.2682 29.3028 12.0864C29.3681 11.8121 29.3727 11.5269 29.3165 11.2507C29.2603 10.9744 29.1444 10.7138 28.9771 10.4869C28.8098 10.26 28.595 10.0723 28.3477 9.93691C28.1004 9.80153 27.8266 9.72172 27.5452 9.70304C27.2053 9.11209 26.7155 8.6212 26.1254 8.27986C25.5352 7.93852 24.8655 7.75879 24.1837 7.75879C23.502 7.75879 22.8322 7.93852 22.2421 8.27986C21.6519 8.6212 21.1622 9.11209 20.8222 9.70304C20.5409 9.72168 20.267 9.80146 20.0196 9.93681C19.7723 10.0722 19.5575 10.2598 19.3901 10.4867C19.2228 10.7137 19.1069 10.9743 19.0506 11.2506C18.9944 11.5269 18.9991 11.8121 19.0643 12.0864C18.6708 12.4135 18.4226 12.883 18.3738 13.3924C18.325 13.9018 18.4797 14.4099 18.804 14.8057C18.5224 15.3279 18.4289 15.931 18.5392 16.5139C18.6494 17.0968 18.9568 17.6241 19.4096 18.0073C19.8625 18.3905 20.4333 18.6064 21.0265 18.6187C21.6196 18.631 22.1989 18.439 22.6673 18.075C23.2176 18.0031 23.7399 17.79 24.1834 17.4564C24.6269 17.79 25.1492 18.0032 25.6995 18.0751C26.1679 18.4392 26.7473 18.6312 27.3404 18.6189C27.9336 18.6066 28.5044 18.3908 28.9573 18.0075C29.4102 17.6243 29.7175 17.0969 29.8278 16.514C29.938 15.931 29.8445 15.3279 29.5628 14.8057C29.8473 14.4597 30.0026 14.0254 30.002 13.5774Z" fill="#02A437"/>
<path d="M25.6465 11.3765C25.5395 11.3765 25.4351 11.3434 25.3478 11.2816C25.2605 11.2198 25.1944 11.1324 25.1588 11.0316C25.0874 10.8299 24.9553 10.6553 24.7805 10.5318C24.6058 10.4083 24.3971 10.342 24.1832 10.342C23.9692 10.342 23.7605 10.4083 23.5858 10.5318C23.4111 10.6553 23.2789 10.8299 23.2075 11.0316C23.1618 11.1609 23.0666 11.2668 22.9428 11.3259C22.819 11.385 22.6768 11.3926 22.5475 11.3469C22.4182 11.3012 22.3123 11.2059 22.2532 11.0822C22.194 10.9584 22.1865 10.8162 22.2322 10.6868C22.3749 10.2835 22.6392 9.93424 22.9885 9.68724C23.3379 9.44024 23.7553 9.30762 24.1832 9.30762C24.6111 9.30762 25.0284 9.44024 25.3778 9.68724C25.7272 9.93424 25.9914 10.2835 26.1341 10.6868C26.1617 10.7649 26.1702 10.8484 26.1589 10.9303C26.1475 11.0123 26.1166 11.0904 26.0689 11.1579C26.0211 11.2255 25.9578 11.2806 25.8843 11.3187C25.8108 11.3567 25.7292 11.3766 25.6465 11.3765Z" fill="#027E2A"/>
<path d="M21.5948 15.0007C21.1833 15.0007 20.7887 14.8372 20.4977 14.5462C20.2067 14.2553 20.0432 13.8606 20.0432 13.4491C20.0432 13.0376 20.2067 12.6429 20.4977 12.3519C20.7887 12.0609 21.1833 11.8975 21.5948 11.8975C21.732 11.8975 21.8636 11.952 21.9606 12.0489C22.0576 12.1459 22.112 12.2775 22.112 12.4147C22.112 12.5518 22.0576 12.6834 21.9606 12.7804C21.8636 12.8774 21.732 12.9319 21.5948 12.9319C21.4577 12.9319 21.3261 12.9864 21.2291 13.0834C21.1321 13.1804 21.0776 13.3119 21.0776 13.4491C21.0776 13.5863 21.1321 13.7178 21.2291 13.8148C21.3261 13.9118 21.4577 13.9663 21.5948 13.9663C21.732 13.9663 21.8636 14.0208 21.9606 14.1178C22.0576 14.2148 22.112 14.3463 22.112 14.4835C22.112 14.6207 22.0576 14.7522 21.9606 14.8492C21.8636 14.9462 21.732 15.0007 21.5948 15.0007Z" fill="#027E2A"/>
<path d="M0.00146484 20.6899H29.9995V23.7932H0.00146484V20.6899Z" fill="#FBB540"/>
<path d="M3.10558 22.7541H2.07116C1.93399 22.7541 1.80244 22.6997 1.70544 22.6027C1.60845 22.5057 1.55396 22.3741 1.55396 22.2369C1.55396 22.0998 1.60845 21.9682 1.70544 21.8712C1.80244 21.7742 1.93399 21.7197 2.07116 21.7197H3.10558C3.24275 21.7197 3.3743 21.7742 3.4713 21.8712C3.56829 21.9682 3.62278 22.0998 3.62278 22.2369C3.62278 22.3741 3.56829 22.5057 3.4713 22.6027C3.3743 22.6997 3.24275 22.7541 3.10558 22.7541Z" fill="#C38325"/>
<path d="M27.9266 22.7541H26.8922C26.755 22.7541 26.6235 22.6997 26.5265 22.6027C26.4295 22.5057 26.375 22.3741 26.375 22.2369C26.375 22.0998 26.4295 21.9682 26.5265 21.8712C26.6235 21.7742 26.755 21.7197 26.8922 21.7197H27.9266C28.0638 21.7197 28.1953 21.7742 28.2923 21.8712C28.3893 21.9682 28.4438 22.0998 28.4438 22.2369C28.4438 22.3741 28.3893 22.5057 28.2923 22.6027C28.1953 22.6997 28.0638 22.7541 27.9266 22.7541Z" fill="#C38325"/>
<path d="M15.5223 22.7541H14.4879C14.3507 22.7541 14.2192 22.6997 14.1222 22.6027C14.0252 22.5057 13.9707 22.3741 13.9707 22.2369C13.9707 22.0998 14.0252 21.9682 14.1222 21.8712C14.2192 21.7742 14.3507 21.7197 14.4879 21.7197H15.5223C15.6595 21.7197 15.7911 21.7742 15.888 21.8712C15.985 21.9682 16.0395 22.0998 16.0395 22.2369C16.0395 22.3741 15.985 22.5057 15.888 22.6027C15.7911 22.6997 15.6595 22.7541 15.5223 22.7541Z" fill="#C38325"/>
</svg>
