<svg width="19" height="23" viewBox="0 0 19 23" fill="none" xmlns="http://www.w3.org/2000/svg">
<path d="M2.87564 18.3608H18.2584C18.3055 18.3608 18.3511 18.354 18.395 18.3434C18.3985 18.3434 18.4014 18.344 18.4048 18.344C18.7332 18.344 19 18.0726 19 17.7379V0.606146C19 0.271551 18.7332 0 18.4048 0H18.2596H3.82749H2.87648C1.29235 0 0.00380976 1.31264 0.00380976 2.92557C0.00380976 2.94721 0.00798881 2.96774 0.0100538 2.98862C0.00798881 4.47857 -0.0101534 18.1694 0.00798882 19.9692C0.006858 20.0044 0.00262968 20.0387 0.00262968 20.0743C0.00262968 21.6252 1.195 22.8949 2.69481 22.9908C2.7249 22.9955 2.7544 23 2.78562 23H18.4048C18.7332 23 19 22.7286 19 22.3939V20.1122C19 19.7777 18.7331 19.5061 18.4048 19.5061C18.0765 19.5061 17.8096 19.7778 17.8096 20.1122V21.7878H2.87564C1.97123 21.7878 1.23296 21.0564 1.19667 20.1445C1.19756 20.1282 1.20046 20.1128 1.20016 20.0963C1.19957 20.0696 1.19869 20.0282 1.1981 19.9731C1.25012 19.0756 1.98156 18.3608 2.87564 18.3608ZM3.28146 2.92557C3.28146 2.59098 3.54808 2.31943 3.87661 2.31943C4.20514 2.31943 4.47176 2.59098 4.47176 2.92557V15.238C4.47176 15.5725 4.20514 15.8442 3.87661 15.8442C3.54808 15.8442 3.28146 15.5724 3.28146 15.238V2.92557Z" fill="black"/>
</svg>
