<svg width="22" height="20" viewBox="0 0 22 20" fill="none" xmlns="http://www.w3.org/2000/svg">
    <path
        d="M20.6777 11.5441C20.5877 11.5587 20.4966 11.5654 20.4054 11.5643L4.88485 11.5643L5.22328 11.7217C5.55409 11.8782 5.85503 12.0913 6.11264 12.3513L10.465 16.7037C11.0382 17.2509 11.1345 18.1311 10.6932 18.7893C10.1796 19.4907 9.1947 19.643 8.49325 19.1294C8.43658 19.0879 8.38272 19.0427 8.3321 18.994L0.461665 11.1235C-0.15341 10.5091 -0.153951 9.51249 0.460435 8.89741C0.460829 8.89702 0.461271 8.89658 0.461665 8.89618L8.33211 1.02574C8.94768 0.411899 9.94432 0.413277 10.5582 1.02884C10.6065 1.0773 10.6516 1.12885 10.6932 1.18315C11.1345 1.84137 11.0382 2.72163 10.465 3.26882L6.12051 7.62904C5.88956 7.86024 5.62404 8.0541 5.33347 8.20359L4.86124 8.41609L20.3188 8.41609C21.1229 8.38623 21.8284 8.94794 21.9795 9.73833C22.1186 10.5964 21.5358 11.4049 20.6777 11.5441Z"
        fill="black" />
</svg>
