<svg width="23" height="23" viewBox="0 0 23 23" fill="none" xmlns="http://www.w3.org/2000/svg">
<path d="M8.9458 14.3956L8.60287 16.4324C8.55613 16.7108 8.67038 16.9915 8.89835 17.1576C9.12667 17.3235 9.42985 17.3457 9.6793 17.215L11.5105 16.259L13.3418 17.2151C13.4501 17.2714 13.5689 17.2997 13.6863 17.2997C13.8402 17.2997 13.9936 17.2515 14.1231 17.1578C14.3512 16.9916 14.4659 16.711 14.4188 16.4326L14.0762 14.3957L15.5507 12.9493C15.7523 12.7518 15.8242 12.4571 15.7377 12.1888C15.6508 11.9207 15.4184 11.7245 15.1394 11.6833L13.0961 11.3803L12.1758 9.53058C12.051 9.27808 11.7924 9.11816 11.5104 9.11816C11.2289 9.11816 10.9704 9.27808 10.8446 9.53058L9.92518 11.3803L7.88191 11.6831C7.60237 11.7243 7.371 11.9205 7.28397 12.1886C7.19694 12.4569 7.26857 12.752 7.47057 12.9492L8.9458 14.3956Z" fill="white"/>
<path d="M20.2897 2.37617H17.9501V1.0784C17.9501 0.482791 17.4673 0 16.8715 0H16.7005C16.1049 0 15.6223 0.482791 15.6223 1.0784V2.37617H7.36736V1.0784C7.36736 0.482791 6.88456 0 6.28913 0H6.11794C5.52233 0 5.03971 0.482791 5.03971 1.0784V2.37617H2.72729C1.50366 2.37617 0.507812 3.37166 0.507812 4.59565V20.1318C0.507812 21.3551 1.50366 22.3513 2.72729 22.3513H20.2899C21.5134 22.3513 22.5094 21.3553 22.5094 20.1318V4.59565C22.5092 3.37166 21.5132 2.37617 20.2897 2.37617ZM20.0002 19.8423H3.01686V7.7483H20.0002V19.8423Z" fill="white"/>
</svg>
