<svg width="13" height="13" viewBox="0 0 13 13" fill="none" xmlns="http://www.w3.org/2000/svg">
<path d="M4.3748 6.83356C4.3748 6.67842 4.24896 6.55273 4.09369 6.55273H3.11274C2.95765 6.55273 2.83179 6.67842 2.83179 6.83356V7.81439C2.83179 7.96973 2.95765 8.09547 3.11274 8.09547H4.09369C4.24896 8.09547 4.3748 7.96973 4.3748 7.81439V6.83356Z" fill="white"/>
<path d="M6.82631 6.83356C6.82631 6.67842 6.70044 6.55273 6.54548 6.55273H5.5644C5.40931 6.55273 5.28345 6.67842 5.28345 6.83356V7.81439C5.28345 7.96973 5.40931 8.09547 5.5644 8.09547H6.54548C6.70044 8.09547 6.82631 7.96973 6.82631 7.81439V6.83356Z" fill="white"/>
<path d="M9.27812 6.83356C9.27812 6.67842 9.15226 6.55273 8.99717 6.55273H8.01621C7.86095 6.55273 7.73511 6.67842 7.73511 6.83356V7.81439C7.73511 7.96973 7.86095 8.09547 8.01621 8.09547H8.99717C9.15226 8.09547 9.27812 7.96973 9.27812 7.81439V6.83356Z" fill="white"/>
<path d="M4.3748 9.28879C4.3748 9.1334 4.24896 9.00781 4.09369 9.00781H3.11274C2.95765 9.00781 2.83179 9.1334 2.83179 9.28879V10.2694C2.83179 10.4247 2.95765 10.5504 3.11274 10.5504H4.09369C4.24896 10.5504 4.3748 10.4247 4.3748 10.2694V9.28879Z" fill="white"/>
<path d="M6.82631 9.28879C6.82631 9.1334 6.70044 9.00781 6.54548 9.00781H5.5644C5.40931 9.00781 5.28345 9.1334 5.28345 9.28879V10.2694C5.28345 10.4247 5.40931 10.5504 5.5644 10.5504H6.54548C6.70044 10.5504 6.82631 10.4247 6.82631 10.2694V9.28879Z" fill="white"/>
<path d="M9.27812 9.28879C9.27812 9.1334 9.15226 9.00781 8.99729 9.00781H8.01621C7.86095 9.00781 7.73511 9.1334 7.73511 9.28879V10.2694C7.73511 10.4247 7.86095 10.5504 8.01621 10.5504H8.99729C9.15226 10.5504 9.27812 10.4247 9.27812 10.2694V9.28879Z" fill="white"/>
<path d="M11.0322 1.3794V2.87753C11.0322 3.55467 10.4829 4.10034 9.80585 4.10034H9.03223C8.35514 4.10034 7.79853 3.55467 7.79853 2.87753V1.37402H4.3116V2.87753C4.3116 3.55467 3.75502 4.10034 3.07803 4.10034H2.30426C1.62724 4.10034 1.07794 3.55467 1.07794 2.87753V1.3794C0.486227 1.39724 0 1.88686 0 2.48868V11.2684C0 11.8816 0.496959 12.3851 1.11009 12.3851H11C11.6123 12.3851 12.1101 11.8805 12.1101 11.2684V2.48868C12.1101 1.88686 11.6239 1.39724 11.0322 1.3794ZM10.6729 10.7217C10.6729 10.9867 10.4581 11.2016 10.193 11.2016H1.89602C1.63095 11.2016 1.41611 10.9867 1.41611 10.7217V6.18664C1.41611 5.92157 1.63092 5.70661 1.89602 5.70661H10.193C10.458 5.70661 10.6729 5.92157 10.6729 6.18664L10.6729 10.7217Z" fill="white"/>
<path d="M2.30048 3.29873H3.0657C3.29797 3.29873 3.4863 3.11069 3.4863 2.87842V0.42242C3.4863 0.190127 3.29797 0.00195312 3.0657 0.00195312H2.30048C2.06818 0.00195312 1.87988 0.190127 1.87988 0.42242V2.87842C1.87988 3.11069 2.06818 3.29873 2.30048 3.29873Z" fill="white"/>
<path d="M9.02335 3.29873H9.78858C10.0207 3.29873 10.209 3.11069 10.209 2.87842V0.42242C10.209 0.190127 10.0207 0.00195312 9.78858 0.00195312H9.02335C8.79111 0.00195312 8.60278 0.190127 8.60278 0.42242V2.87842C8.60278 3.11069 8.79111 3.29873 9.02335 3.29873Z" fill="white"/>
</svg>
