<svg width="25" height="38" viewBox="0 0 25 38" fill="none" xmlns="http://www.w3.org/2000/svg">
<path d="M10.8743 18.5669H1.96724C1.46104 18.5669 0.975564 18.768 0.617623 19.1259C0.259683 19.4839 0.0585938 19.9693 0.0585938 20.4755V22.3842H12.7829V20.4755C12.7829 19.9693 12.5818 19.4839 12.2239 19.1259C11.8659 18.768 11.3805 18.5669 10.8743 18.5669Z" fill="#E0A684"/>
<path d="M23.9831 1.58579L21.055 18.5688V22.3861H12.7842V20.4774C12.784 19.9713 12.5829 19.4859 12.225 19.1279C11.8671 18.77 11.3817 18.5689 10.8755 18.5688H18.5101L21.5114 1.15952C21.5392 0.99708 21.5988 0.841718 21.6867 0.702316C21.7746 0.562914 21.8892 0.442208 22.0238 0.347097C22.1584 0.251987 22.3104 0.184338 22.4711 0.148019C22.6319 0.1117 22.7982 0.107422 22.9606 0.135431C23.123 0.16344 23.2783 0.223186 23.4177 0.311253C23.557 0.39932 23.6775 0.51398 23.7725 0.648679C23.8675 0.783378 23.9349 0.935473 23.9711 1.09627C24.0072 1.25706 24.0113 1.42341 23.9831 1.58579Z" fill="#AD693D"/>
<path d="M22.7484 0.121094C22.4528 0.121043 22.1666 0.225484 21.9404 0.415967C21.7143 0.606451 21.5628 0.870721 21.5126 1.1621L18.5112 18.5714H7.69556L10.6945 1.17721C10.7455 0.881704 10.8992 0.613691 11.1285 0.420462C11.3578 0.227234 11.648 0.121208 11.9479 0.121094H22.7484Z" fill="#DC9265"/>
<path d="M1.96724 37.0168H0.0585938V22.3838H3.87589L1.96724 37.0168Z" fill="#BC8D5D"/>
<path d="M12.7841 37.0177H10.8755V22.3848H14.6928L12.7841 37.0177Z" fill="#BC8D5D"/>
<path d="M19.1438 37.0177H21.0524V22.3848H17.2351L19.1438 37.0177Z" fill="#BC8D5D"/>
</svg>
