<svg width="450" height="512" viewBox="0 0 450 512" fill="none" xmlns="http://www.w3.org/2000/svg">
<path d="M31.205 150L57.774 470.735C59.678 493.865 79.38 512 102.598 512H347.403C370.621 512 390.323 493.865 392.227 470.735L418.795 150H31.205ZM149.986 452C142.134 452 135.528 445.892 135.03 437.937L120.03 195.937C119.517 187.661 125.801 180.542 134.063 180.029C142.632 179.428 149.444 185.786 149.971 194.062L164.971 436.062C165.502 444.632 158.721 452 149.986 452ZM240 437C240 445.291 233.291 452 225 452C216.709 452 210 445.291 210 437V195C210 186.709 216.709 180 225 180C233.291 180 240 186.709 240 195V437ZM329.97 195.938L314.97 437.938C314.477 445.812 307.914 452.374 299.062 451.971C290.8 451.458 284.516 444.339 285.029 436.063L300.029 194.063C300.542 185.787 307.793 179.766 315.937 180.03C324.199 180.543 330.483 187.662 329.97 195.938ZM420 60H330V45C330 20.186 309.814 0 285 0H165C140.186 0 120 20.186 120 45V60H30C13.431 60 0 73.431 0 90C0 106.567 13.431 120 30 120H420C436.569 120 450 106.567 450 90C450 73.431 436.569 60 420 60ZM300 60H150V45C150 36.724 156.724 30 165 30H285C293.276 30 300 36.724 300 45V60Z" fill="black"/>
</svg>
