<svg width="30" height="30" viewBox="0 0 30 30" fill="none" xmlns="http://www.w3.org/2000/svg">
<path d="M5.15625 22.0312H18.75L19.6875 21.0938V15.4688L18.2812 14.5312H3.75L1.40625 17.3438V27.1875L2.8125 28.5938H5.15625V22.0312Z" fill="#548AFF"/>
<path d="M10.3125 22.0312L9.375 21.0938V15.4688L10.3125 14.5312H18.2812L19.6875 15.4688V21.0938L18.75 22.0312H10.3125Z" fill="#91C0FF"/>
<path d="M7.96875 16.4062H9.375V19.6875H7.96875V16.4062Z" fill="#4976F2"/>
<path d="M11.25 15.9375H13.125V16.875H11.25V15.9375Z" fill="#7DAFFF"/>
<path d="M11.25 17.8125H13.125V18.75H11.25V17.8125Z" fill="#7DAFFF"/>
<path d="M11.25 19.6875H13.125V20.625H11.25V19.6875Z" fill="#7DAFFF"/>
<path d="M15 16.4062H17.3438V20.1562H15V16.4062Z" fill="#639AFF"/>
<path d="M15 17.8125H17.3438V18.75H15V17.8125Z" fill="#4F7FF7"/>
<path d="M7.03125 22.0312V23.9062L5.15625 24.8438V22.0312H7.03125Z" fill="#486BE0"/>
<path d="M19.6875 16.4062H22.9688V20.1562H19.6875V16.4062Z" fill="#639AFF"/>
<path d="M22.9688 16.875L24.375 17.3438V19.2188L22.9688 19.6875V16.875Z" fill="#4F7FF7"/>
<path d="M24.375 17.8125H29.0625V18.75H24.375V17.8125Z" fill="#D1E4FF"/>
<path d="M3.28125 28.5938V23.9062L5.15625 22.0312V28.5938H3.28125Z" fill="#4976F2"/>
<path d="M1.40625 10.7812H24.8438V12.6562H1.40625V10.7812Z" fill="#FFD873"/>
<path d="M23.4375 10.7812H2.34375C2.34371 9.55009 2.58617 8.33099 3.05729 7.19354C3.52841 6.05609 4.21897 5.02258 5.08952 4.15202C5.96008 3.28147 6.99359 2.59091 8.13104 2.11979C9.26849 1.64867 10.4876 1.40621 11.7188 1.40625H14.0625C15.2937 1.40621 16.5128 1.64867 17.6502 2.11979C18.7877 2.59091 19.8212 3.28147 20.6917 4.15202C21.5623 5.02258 22.2528 6.05609 22.724 7.19354C23.1951 8.33099 23.4375 9.55009 23.4375 10.7812Z" fill="#FFC431"/>
<path d="M20.1563 10.7812H19.2188C19.2198 9.97214 19.0451 9.17246 18.7067 8.4375H11.4698L9.5163 10.7812H8.29639L10.8897 7.66874C10.9337 7.6159 10.9888 7.57339 11.0511 7.54422C11.1134 7.51506 11.1813 7.49996 11.2501 7.5H18.1601C17.6396 6.77493 16.954 6.18418 16.16 5.77662C15.366 5.36907 14.4864 5.15641 13.5938 5.15625H12.1876V4.21875H13.5938C15.3337 4.22066 17.0018 4.91267 18.2321 6.14297C19.4624 7.37326 20.1544 9.04135 20.1563 10.7812Z" fill="#FFB401"/>
<path d="M24.8438 28.5938V21.0938H26.25L28.5938 28.5938H24.8438Z" fill="#D1E4FF"/>
<path d="M10.7812 23.9062H19.6875V26.7188H10.7812V23.9062Z" fill="#8098AB"/>
<path d="M10.7812 26.7188H9.375V23.9062H10.7812L12.1875 24.8438V25.7812L10.7812 26.7188Z" fill="#FFA100"/>
<path d="M24.8438 25.7812H21.5625L20.625 26.7188H19.6875V23.9062H24.8438V25.7812Z" fill="#FFA100"/>
<path d="M14.0625 25.3125H15V26.7188H14.0625V25.3125Z" fill="#718799"/>
<path d="M15.4688 25.3125H16.4062V26.7188H15.4688V25.3125Z" fill="#718799"/>
<path d="M16.875 25.3125H17.8125V26.7188H16.875V25.3125Z" fill="#718799"/>
</svg>
