<svg width="512" height="512" viewBox="0 0 512 512" fill="none" xmlns="http://www.w3.org/2000/svg">
<path d="M316.186 85.4823L34.4781 367.212C33.0595 368.634 32.0485 370.411 31.5505 372.357L0.324834 497.687C-0.134417 499.547 -0.106273 501.494 0.406548 503.34C0.919369 505.186 1.89954 506.868 3.25237 508.225C5.33032 510.296 8.14376 511.46 11.0775 511.462C11.9825 511.462 12.8841 511.35 13.7618 511.129L139.092 479.9C141.041 479.41 142.819 478.399 144.238 476.976L425.972 195.266L316.186 85.4823ZM495.763 47.0688L464.404 15.7111C443.446 -5.24742 406.917 -5.22663 385.982 15.7111L347.57 54.1246L457.35 163.904L495.763 125.492C506.232 115.027 511.998 101.097 511.998 86.2828C511.998 71.4684 506.232 57.5387 495.763 47.0688Z" fill="black"/>
</svg>
