<svg width="33" height="33" viewBox="0 0 33 33" fill="none" xmlns="http://www.w3.org/2000/svg">
    <path
        d="M13.4062 9.62362H11.3438V5.49862C11.3438 5.32884 11.3857 5.16169 11.4659 5.01202C11.546 4.86234 11.6619 4.73477 11.8032 4.64062L16.4438 1.54688L17.5875 3.26288L13.4062 6.05034V9.62362Z"
        fill="#F9E109" />
    <path
        d="M17.588 3.26385L13.4062 6.04822V9.6215H11.3438V5.4965C11.3438 5.32707 11.3857 5.16026 11.4658 5.01094C11.5458 4.86161 11.6616 4.73438 11.8027 4.64057L12.3234 4.28994C12.7387 4.4271 13.1806 4.46356 13.6127 4.39632C14.0449 4.32908 14.4548 4.16007 14.8087 3.90322L16.9692 2.33057L17.588 3.26385Z"
        fill="#FCBC04" />
    <path d="M18.0469 31.4531H6.70312L4.64062 13.4062H20.1094L18.0469 31.4531Z" fill="#F8664F" />
    <path
        d="M5.67188 11.3438H19.0781C19.3516 11.3438 19.6139 11.4524 19.8073 11.6458C20.0007 11.8392 20.1094 12.1015 20.1094 12.375V13.4062H4.64062V12.375C4.64062 12.1015 4.74927 11.8392 4.94267 11.6458C5.13607 11.4524 5.39837 11.3438 5.67188 11.3438Z"
        fill="#84D2F4" />
    <path
        d="M8.25 9.28125H16.5C16.7735 9.28125 17.0358 9.3899 17.2292 9.5833C17.4226 9.77669 17.5312 10.039 17.5312 10.3125V11.3438H7.21875V10.3125C7.21875 10.039 7.3274 9.77669 7.5208 9.5833C7.71419 9.3899 7.9765 9.28125 8.25 9.28125Z"
        fill="#84D2F4" />
    <path
        d="M19.9341 14.9531H8.25C11.2225 17.9253 15.1602 19.736 19.3514 20.0578L18.0469 31.4531H6.70312L4.64062 13.4062H20.1094L19.9341 14.9531Z"
        fill="#CC5144" />
    <path
        d="M20.1094 12.375V13.4062H4.64062V12.375C4.64144 12.1017 4.75035 11.8399 4.94357 11.6467C5.13679 11.4535 5.39862 11.3446 5.67188 11.3438C5.67269 11.617 5.7816 11.8788 5.97482 12.0721C6.16804 12.2653 6.42987 12.3742 6.70312 12.375H20.1094Z"
        fill="#57B7EB" />
    <path
        d="M17.5312 10.3125V11.3438H7.21875V10.3125C7.21957 10.0392 7.32848 9.77742 7.5217 9.5842C7.71492 9.39098 7.97675 9.28207 8.25 9.28125C8.25082 9.5545 8.35973 9.81633 8.55295 10.0096C8.74617 10.2028 9.008 10.3117 9.28125 10.3125H17.5312Z"
        fill="#57B7EB" />
    <path
        d="M23.2031 11.8592L22.1719 24.7498L21.6562 30.4217L24.2344 30.9373L25.7812 12.3748L24.2344 11.5498L23.2031 11.8592Z"
        fill="#E59730" />
    <path
        d="M20.1094 14.4375L21.1406 26.8125H24.2344L23.2031 13.9219L21.6562 12.375L20.1094 14.4375Z"
        fill="#FCBC04" />
    <path
        d="M24.2344 26.8125H21.1406L20.1094 14.4375L20.7178 13.6279L21.6562 21.1406H22.1719L22.7339 17.8612L23.2031 17.5312L23.5177 17.8457L24.2344 26.8125Z"
        fill="#E59730" />
    <path
        d="M19.0781 15.9844L17.5503 15.4595L17.0156 17.0156L19.5938 25.2656L22.0002 24.2344L19.0781 15.9844Z"
        fill="#F9E109" />
    <path
        d="M22.0017 24.234L19.5938 25.2652L17.0156 17.0152L17.5416 15.4941L18.4852 18.3301C19.0356 19.9857 20.0483 21.4492 21.4036 22.5479L22.0017 24.234Z"
        fill="#FCBC04" />
    <path d="M28.3593 12.375L26.2561 22.1719H28.3593L29.9062 14.9531L28.3593 12.375Z"
        fill="#F9E109" />
    <path
        d="M28.281 17.1832L29.106 13.6161L28.3593 12.375L26.2561 22.1719H28.3593L29.0621 18.893C28.7622 18.7334 28.5232 18.4794 28.382 18.1704C28.2408 17.8614 28.2053 17.5144 28.281 17.1832Z"
        fill="#FCBC04" />
    <path d="M13.9219 15.4688L17.5312 25.2656L19.5938 24.75L15.9844 15.4688H13.9219Z"
        fill="#F9E109" />
    <path d="M13.9219 15.4688L17.5312 25.2656L18.5625 25.0078L14.8799 15.4688H13.9219Z"
        fill="#FCBC04" />
    <path d="M25.2656 13.9219L23.7188 26.2969L25.7812 25.7812L27.8438 14.9531L25.2656 13.9219Z"
        fill="#F9E109" />
    <path
        d="M26.6681 21.1252L25.7812 25.7812L23.7188 26.2969L25.2656 13.9219L26.2659 14.3241L25.8534 20.1145C25.8374 20.3545 25.9123 20.5918 26.0632 20.7791C26.2142 20.9664 26.4302 21.0899 26.6681 21.1252Z"
        fill="#FCBC04" />
    <path d="M24.75 26.8125H22.6875L23.2031 17.5312L25.2656 18.0469L24.75 26.8125Z"
        fill="#F9E109" />
    <path
        d="M24.0962 21.9486L24.2127 17.7839L23.2031 17.5312L22.6875 26.8125H24.75L24.9526 23.3712C24.6894 23.24 24.469 23.0365 24.3173 22.7846C24.1657 22.5326 24.0889 22.2426 24.0962 21.9486Z"
        fill="#FCBC04" />
    <path
        d="M27.3281 20.1094C27.3281 22.1028 25.2507 23.7188 22.6875 23.7188C20.1243 23.7188 18.0469 22.1028 18.0469 20.1094H15.4688L17.0156 31.4531H28.3594L29.9062 20.1094H27.3281Z"
        fill="#84D2F4" />
    <path
        d="M28.643 29.3906L28.3594 31.4531H17.0156L15.4688 20.1094H18.0469C18.0559 20.5457 18.1554 20.9754 18.3391 21.3713C18.5228 21.7671 18.7868 22.1205 19.1142 22.4091C19.4159 24.3543 20.4036 26.1274 21.8988 27.4078C23.3939 28.6883 25.2978 29.3916 27.2663 29.3906H28.643Z"
        fill="#57B7EB" />
    <path
        d="M22.6875 29.3906C23.5418 29.3906 24.2344 28.6981 24.2344 27.8438C24.2344 26.9894 23.5418 26.2969 22.6875 26.2969C21.8332 26.2969 21.1406 26.9894 21.1406 27.8438C21.1406 28.6981 21.8332 29.3906 22.6875 29.3906Z"
        fill="#F9E109" />
    <path
        d="M23.9714 28.7047C23.7866 28.9798 23.5183 29.1882 23.2061 29.2993C22.894 29.4104 22.5544 29.4183 22.2373 29.3219C21.9203 29.2254 21.6426 29.0297 21.4452 28.7636C21.2478 28.4975 21.141 28.175 21.1406 27.8436C21.1396 27.5279 21.2369 27.2198 21.4191 26.9619C22.1521 27.6989 23.0181 28.2903 23.9714 28.7047Z"
        fill="#FCBC04" />
    <path
        d="M15.4688 26.2969H6.1875C5.64049 26.2969 5.11589 26.0796 4.72909 25.6928C4.3423 25.306 4.125 24.7814 4.125 24.2344C4.125 23.6874 4.3423 23.1628 4.72909 22.776C5.11589 22.3892 5.64049 22.1719 6.1875 22.1719H15.4688C16.0158 22.1719 16.5404 22.3892 16.9272 22.776C17.314 23.1628 17.5312 23.6874 17.5312 24.2344C17.5312 24.7814 17.314 25.306 16.9272 25.6928C16.5404 26.0796 16.0158 26.2969 15.4688 26.2969Z"
        fill="#F89C8D" />
    <path
        d="M16.4999 25.2656C16.7919 25.2654 17.0803 25.2021 17.3455 25.08C17.246 25.3089 17.1043 25.517 16.9279 25.6936C16.54 26.0791 16.0156 26.2959 15.4687 26.2969H6.18741C5.77926 26.2972 5.38018 26.1764 5.0407 25.9498C4.70123 25.7232 4.43662 25.401 4.28038 25.0239C4.12414 24.6468 4.08329 24.2319 4.16301 23.8316C4.24273 23.4313 4.43942 23.0636 4.7282 22.7752C4.90477 22.5987 5.11291 22.4571 5.34179 22.3575C5.60701 22.2354 5.89546 22.1721 6.18741 22.1719H15.4687C15.97 22.1726 16.4539 22.3559 16.8299 22.6875C17.0866 22.9093 17.282 23.1934 17.3971 23.5125C17.3027 23.6828 17.1645 23.8247 16.9967 23.9235C16.829 24.0223 16.6379 24.0745 16.4432 24.0745C16.2734 24.0745 16.1059 24.0357 15.9534 23.9611C15.8032 23.8848 15.6371 23.8451 15.4687 23.8451C15.3002 23.8451 15.1342 23.8848 14.984 23.9611L13.8909 24.5077C13.7407 24.5839 13.5746 24.6237 13.4062 24.6237C13.2377 24.6237 13.0717 24.5839 12.9215 24.5077L11.8284 23.9611C11.6782 23.8848 11.5121 23.8451 11.3437 23.8451C11.1752 23.8451 11.0092 23.8848 10.859 23.9611L9.76585 24.5077C9.61567 24.5839 9.4496 24.6237 9.28116 24.6237C9.11272 24.6237 8.94666 24.5839 8.79648 24.5077L7.70335 23.9611C7.55317 23.8848 7.38711 23.8451 7.21866 23.8451C7.05022 23.8451 6.88416 23.8848 6.73398 23.9611L5.90382 24.3788C5.80798 24.4247 5.7078 24.461 5.60476 24.487C5.79748 24.7303 6.04282 24.9267 6.32234 25.0616C6.60187 25.1964 6.90831 25.2662 7.21866 25.2656H16.4999Z"
        fill="#F8664F" />
    <path
        d="M3.09375 28.3594H18.5625V29.3906C18.5625 29.9376 18.3452 30.4622 17.9584 30.849C17.5716 31.2358 17.047 31.4531 16.5 31.4531H5.15625C4.60924 31.4531 4.08464 31.2358 3.69784 30.849C3.31105 30.4622 3.09375 29.9376 3.09375 29.3906V28.3594Z"
        fill="#FCBC04" />
    <path d="M12.2718 28.3594L11.8593 28.875L11.4468 28.3594H12.2718Z" fill="#E59730" />
    <path d="M12.2718 28.3594L11.8593 28.875L11.4468 28.3594H12.2718Z" fill="#E59730" />
    <path
        d="M16.5 28.3594H5.15625C4.88275 28.3594 4.62044 28.2507 4.42705 28.0573C4.23365 27.8639 4.125 27.6016 4.125 27.3281C4.125 27.0546 4.23365 26.7923 4.42705 26.5989C4.62044 26.4055 4.88275 26.2969 5.15625 26.2969H16.5C16.7735 26.2969 17.0358 26.4055 17.2292 26.5989C17.4226 26.7923 17.5312 27.0546 17.5312 27.3281C17.5312 27.6016 17.4226 27.8639 17.2292 28.0573C17.0358 28.2507 16.7735 28.3594 16.5 28.3594Z"
        fill="#CC5144" />
    <path d="M12.375 28.875L10.3125 26.2969H14.4375L12.375 28.875Z" fill="#F7F754" />
    <path
        d="M12.1981 26.8496L11.7562 26.2969H10.3125L12.375 28.875L13.5429 27.4153C13.2894 27.4401 13.0337 27.4014 12.7989 27.3026C12.5642 27.2038 12.3577 27.0482 12.1981 26.8496Z"
        fill="#F9E109" />
    <path
        d="M3.60938 22.1719C3.6093 22.4817 3.69557 22.7855 3.85851 23.0491C4.02145 23.3127 4.25461 23.5256 4.53183 23.6641L4.92577 23.8611C5.15738 23.977 5.41285 24.0374 5.67188 24.0374C5.9309 24.0374 6.18637 23.977 6.41799 23.8611L7.24763 23.4486C7.39877 23.373 7.56541 23.3337 7.73438 23.3337C7.90334 23.3337 8.06998 23.373 8.22113 23.4486L9.31013 23.9931C9.46127 24.0686 9.62792 24.1079 9.79688 24.1079C9.96584 24.1079 10.1325 24.0686 10.2836 23.9931L11.3726 23.4486C11.5238 23.373 11.6904 23.3337 11.8594 23.3337C12.0283 23.3337 12.195 23.373 12.3461 23.4486L13.4351 23.9931C13.5863 24.0686 13.7529 24.1079 13.9219 24.1079C14.0908 24.1079 14.2575 24.0686 14.4086 23.9931L15.4976 23.4486C15.6488 23.373 15.8154 23.3337 15.9844 23.3337C16.1533 23.3337 16.32 23.373 16.4711 23.4486C16.6373 23.5316 16.8219 23.5707 17.0074 23.5623C17.1929 23.5538 17.3732 23.4981 17.5311 23.4003C17.689 23.3026 17.8193 23.166 17.9096 23.0037C17.9999 22.8414 18.0471 22.6587 18.0469 22.473V22.1719H3.60938Z"
        fill="#C4F236" />
    <path
        d="M13.4062 17.0156H8.25C6.88248 17.0156 5.57097 17.5589 4.60398 18.5259C3.637 19.4928 3.09375 20.8044 3.09375 22.1719H18.5625C18.5625 20.8044 18.0193 19.4928 17.0523 18.5259C16.0853 17.5589 14.7738 17.0156 13.4062 17.0156Z"
        fill="#FCBC04" />
    <path
        d="M18.5625 22.172H3.09375C3.09422 21.0457 3.46346 19.9505 4.14503 19.0539C4.82661 18.1572 5.78303 17.5084 6.86812 17.2065C7.1361 18.1883 7.71935 19.0547 8.52806 19.6724C9.33677 20.2901 10.3261 20.6249 11.3437 20.6251H18.3253C18.4833 21.1255 18.5633 21.6473 18.5625 22.172Z"
        fill="#E59730" />
    <path
        d="M18.5625 29.3906C18.5625 29.9376 18.3452 30.4622 17.9584 30.849C17.5716 31.2358 17.047 31.4531 16.5 31.4531H5.15625C4.60924 31.4531 4.08464 31.2358 3.69784 30.849C3.31105 30.4622 3.09375 29.9376 3.09375 29.3906V28.3594H4.19203C4.30564 28.8022 4.56343 29.1946 4.92474 29.4747C5.28606 29.7548 5.73034 29.9066 6.1875 29.9062H17.0156C17.5738 29.9085 18.1173 29.7273 18.5625 29.3906Z"
        fill="#E59730" />
    <path
        d="M18.0469 22.1719V22.4709C18.0491 22.544 18.0404 22.617 18.0211 22.6875H4.48595C4.63507 22.8821 4.82751 23.0392 5.04798 23.1464L5.43985 23.3475C5.67247 23.462 5.92826 23.5215 6.18751 23.5215C6.44676 23.5215 6.70255 23.462 6.93517 23.3475L7.76532 22.9298C7.91551 22.8536 8.08157 22.8138 8.25001 22.8138C8.41845 22.8138 8.58451 22.8536 8.7347 22.9298L9.82782 23.4764C9.978 23.5527 10.1441 23.5924 10.3125 23.5924C10.4809 23.5924 10.647 23.5527 10.7972 23.4764L11.8903 22.9298C12.0405 22.8536 12.2066 22.8138 12.375 22.8138C12.5434 22.8138 12.7095 22.8536 12.8597 22.9298L13.9528 23.4764C14.103 23.5527 14.2691 23.5924 14.4375 23.5924C14.6059 23.5924 14.772 23.5527 14.9222 23.4764L16.0153 22.9298C16.1655 22.8536 16.3316 22.8138 16.5 22.8138C16.6684 22.8138 16.8345 22.8536 16.9847 22.9298C17.1334 23.0043 17.2973 23.0435 17.4636 23.0444C17.6299 23.0453 17.7942 23.0079 17.9438 22.935C17.8553 23.1214 17.7158 23.2789 17.5415 23.3893C17.3672 23.4997 17.1652 23.5585 16.9589 23.5589C16.7891 23.5589 16.6216 23.5201 16.4691 23.4455C16.3189 23.3692 16.1528 23.3295 15.9844 23.3295C15.8159 23.3295 15.6499 23.3692 15.4997 23.4455L14.4066 23.992C14.2564 24.0683 14.0903 24.108 13.9219 24.108C13.7534 24.108 13.5874 24.0683 13.4372 23.992L12.3441 23.4455C12.1939 23.3692 12.0278 23.3295 11.8594 23.3295C11.6909 23.3295 11.5249 23.3692 11.3747 23.4455L10.2816 23.992C10.1314 24.0683 9.96532 24.108 9.79688 24.108C9.62844 24.108 9.46238 24.0683 9.3122 23.992L8.21907 23.4455C8.06889 23.3692 7.90282 23.3295 7.73438 23.3295C7.56594 23.3295 7.39988 23.3692 7.2497 23.4455L6.41954 23.8631C6.18693 23.9776 5.93114 24.0371 5.67188 24.0371C5.41263 24.0371 5.15684 23.9776 4.92423 23.8631L4.53235 23.662C4.25444 23.525 4.02059 23.3126 3.85742 23.0492C3.69425 22.7857 3.60831 22.4818 3.60938 22.1719H18.0469Z"
        fill="#A1D51C" />
    <path
        d="M11.8594 19.5938C12.1441 19.5938 12.375 19.3629 12.375 19.0781C12.375 18.7934 12.1441 18.5625 11.8594 18.5625C11.5746 18.5625 11.3438 18.7934 11.3438 19.0781C11.3438 19.3629 11.5746 19.5938 11.8594 19.5938Z"
        fill="#F9E109" />
    <path
        d="M9.79688 19.0781C10.0816 19.0781 10.3125 18.8473 10.3125 18.5625C10.3125 18.2777 10.0816 18.0469 9.79688 18.0469C9.5121 18.0469 9.28125 18.2777 9.28125 18.5625C9.28125 18.8473 9.5121 19.0781 9.79688 19.0781Z"
        fill="#F9E109" />
    <path
        d="M8.25 20.1094C8.53477 20.1094 8.76562 19.8785 8.76562 19.5938C8.76562 19.309 8.53477 19.0781 8.25 19.0781C7.96523 19.0781 7.73438 19.309 7.73438 19.5938C7.73438 19.8785 7.96523 20.1094 8.25 20.1094Z"
        fill="#F9E109" />
    <path
        d="M15.9844 20.1094C16.2691 20.1094 16.5 19.8785 16.5 19.5938C16.5 19.309 16.2691 19.0781 15.9844 19.0781C15.6996 19.0781 15.4688 19.309 15.4688 19.5938C15.4688 19.8785 15.6996 20.1094 15.9844 20.1094Z"
        fill="#F9E109" />
    <path
        d="M6.1875 19.5938C6.47227 19.5938 6.70312 19.3629 6.70312 19.0781C6.70312 18.7934 6.47227 18.5625 6.1875 18.5625C5.90273 18.5625 5.67188 18.7934 5.67188 19.0781C5.67188 19.3629 5.90273 19.5938 6.1875 19.5938Z"
        fill="#FCBC04" />
    <path
        d="M13.9219 19.0781C14.2066 19.0781 14.4375 18.8473 14.4375 18.5625C14.4375 18.2777 14.2066 18.0469 13.9219 18.0469C13.6371 18.0469 13.4062 18.2777 13.4062 18.5625C13.4062 18.8473 13.6371 19.0781 13.9219 19.0781Z"
        fill="#F9E109" />
    <path
        d="M8.71923 19.8106C8.67031 19.9179 8.58604 20.0053 8.4805 20.058C8.37495 20.1108 8.2545 20.1257 8.13926 20.1004C8.02402 20.075 7.92096 20.0109 7.84727 19.9188C7.77359 19.8266 7.73374 19.712 7.73438 19.594C7.73522 19.5097 7.75626 19.4269 7.79573 19.3524C7.83521 19.2779 7.89197 19.214 7.96126 19.166H7.96641C8.19276 19.408 8.44524 19.6242 8.71923 19.8106Z"
        fill="#FCBC04" />
</svg>
