<svg width="25" height="21" viewBox="0 0 25 21" fill="none" xmlns="http://www.w3.org/2000/svg">
<path d="M12.4642 17.3855C11.7647 17.3747 11.0902 17.1233 10.5544 16.6734L7.02607 13.5659C6.47087 13.0471 5.62186 13.0061 5.01913 13.4688L0.00186293 17.1589V19.5542C-0.0341964 20.1968 0.457562 20.7469 1.10012 20.783C1.13321 20.7848 1.16642 20.7853 1.19957 20.7843H18.9705C19.6827 20.7843 20.3948 20.2664 20.3948 19.5542V13.2746L14.0179 16.9647C13.5492 17.2465 13.0112 17.3922 12.4642 17.3855Z" fill="black"/>
<path d="M12.205 11.1054C12.9917 11.1054 13.6293 10.4677 13.6293 9.68112C13.6293 8.89451 12.9917 8.25684 12.205 8.25684C11.4184 8.25684 10.7808 8.89451 10.7808 9.68112C10.7808 10.4677 11.4184 11.1054 12.205 11.1054Z" fill="black"/>
<path d="M23.7654 2.53004C23.5588 2.2485 23.2396 2.07118 22.8914 2.04448L5.2499 0.00520084C4.90598 -0.0236095 4.56273 0.0679021 4.27884 0.264184C4.02742 0.482523 3.85647 0.778867 3.79328 1.10582L3.50195 3.63066H18.9747C20.4499 3.66411 21.6427 4.84267 21.6938 6.31733V17.7438C21.6938 17.6791 21.9851 17.6143 22.1146 17.4848C22.3826 17.2744 22.538 16.9516 22.5354 16.6109L24.0567 3.46876C24.0904 3.12929 23.9853 2.79069 23.7654 2.53004Z" fill="black"/>
<path d="M18.9721 4.92871H1.20112C0.48898 4.92871 0.00341797 5.60845 0.00341797 6.32059V15.546L4.27621 12.4385C5.36084 11.6339 6.86133 11.7015 7.86926 12.6003L11.4299 15.7078C11.9668 16.1636 12.7337 16.2286 13.3397 15.8696L20.3963 11.7587V6.32059C20.3474 5.56068 19.7329 4.96025 18.9721 4.92871ZM12.2068 12.4061C10.7051 12.4061 9.48772 11.1887 9.48772 9.687C9.48772 8.18533 10.7051 6.96792 12.2068 6.96792C13.7085 6.96792 14.9259 8.18527 14.9259 9.687C14.9259 11.1887 13.7085 12.4061 12.2068 12.4061Z" fill="black"/>
</svg>
