<svg width="21" height="21" viewBox="0 0 21 21" fill="none" xmlns="http://www.w3.org/2000/svg">
<g clip-path="url(#clip0_5_10976)">
<path d="M19.6304 4.09051H18.1018C18.3035 3.7714 18.4365 3.41322 18.4745 3.03439C18.5957 1.82374 17.9581 0.738463 16.8726 0.257309C15.8749 -0.184962 14.7536 -0.00416558 13.9462 0.728127L12.016 2.47744C11.6401 2.0663 11.0997 1.8079 10.5 1.8079C9.8992 1.8079 9.35796 2.06712 8.98197 2.47954L7.04931 0.727922C6.24061 -0.00437062 5.11982 -0.18447 4.12252 0.257555C3.03733 0.73875 2.39962 1.82439 2.52119 3.03501C2.55921 3.41354 2.69218 3.77157 2.89378 4.09051H1.36955C0.613143 4.09051 0 4.70369 0 5.46006V7.51441C0 7.89257 0.306592 8.19921 0.684797 8.19921H20.3152C20.6934 8.19921 21 7.89261 21 7.51441V5.46006C21 4.70369 20.3869 4.09051 19.6304 4.09051ZM8.44565 3.86225V4.09051H5.22416C4.373 4.09051 3.70314 3.29702 3.91572 2.41083C4.00936 2.02057 4.29105 1.68789 4.6554 1.51948C5.1557 1.28824 5.70991 1.36248 6.13011 1.74281L8.44622 3.84207C8.4461 3.84884 8.44565 3.85549 8.44565 3.86225ZM17.1156 2.85257C17.0646 3.56432 16.4216 4.09059 15.7081 4.09059H12.5543V3.86234C12.5543 3.85426 12.5539 3.84626 12.5538 3.83818C13.0784 3.36256 14.2167 2.33094 14.834 1.77136C15.1848 1.45337 15.6758 1.30493 16.1296 1.44028C16.7808 1.63453 17.1632 2.18832 17.1156 2.85257Z" fill="black"/>
<path d="M1.36987 9.56836V19.6119C1.36987 20.3683 1.98302 20.9814 2.73943 20.9814H9.13073V9.56836H1.36987Z" fill="black"/>
<path d="M11.8696 9.56836V20.9814H18.2609C19.0173 20.9814 19.6305 20.3683 19.6305 19.6119V9.56836H11.8696Z" fill="black"/>
</g>
<defs>
<clipPath id="clip0_5_10976">
<rect width="21" height="21" fill="white"/>
</clipPath>
</defs>
</svg>
