<svg width="18" height="20" viewBox="0 0 18 20" fill="none" xmlns="http://www.w3.org/2000/svg">
<path d="M14.7868 13.0159C14.005 14.0897 12.7386 14.789 11.3117 14.789H9.3096C8.61799 14.789 8.02902 14.3499 7.806 13.7354C7.53071 13.6533 7.26075 13.5467 6.99731 13.4158C6.43943 13.1386 5.93288 12.7631 5.48696 12.2979C2.5945 12.9333 0.429688 15.5106 0.429688 18.594V18.997C0.429688 19.551 0.878824 20.0001 1.43284 20.0001H16.9969C17.5509 20.0001 18 19.551 18 18.997V18.594C18 16.2121 16.708 14.1321 14.7868 13.0159Z" fill="black"/>
<path d="M4.42179 10.2291C4.85294 10.2291 5.2282 9.99014 5.42262 9.6375C5.42774 9.65146 5.43293 9.66533 5.43817 9.6792C5.43972 9.68337 5.44126 9.68753 5.44281 9.6917C5.8989 10.8922 6.78635 11.8986 7.95657 12.3384C8.23958 11.8887 8.74004 11.5896 9.31068 11.5896H11.3128C11.5125 11.5896 11.6983 11.5333 11.8613 11.4422C12.1349 11.2891 12.381 10.901 12.5081 10.6952C12.7115 10.3659 12.869 10.0172 13.0087 9.6369C13.0872 9.77948 13.1952 9.90351 13.3246 10.0007V10.4916C13.3246 11.6009 12.4221 12.5035 11.3127 12.5035H9.31063C8.93214 12.5035 8.62529 12.8103 8.62529 13.1888C8.62529 13.5673 8.93214 13.8742 9.31063 13.8742H11.3127C13.1779 13.8742 14.6952 12.3568 14.6952 10.4916V10.0007C14.9727 9.79228 15.1522 9.46056 15.1522 9.08688V7.02033V6.22788C15.1522 5.84651 14.9651 5.50908 14.6779 5.3016C14.4552 2.48314 12.0906 0.257812 9.21585 0.257812C6.34108 0.257812 3.97648 2.48314 3.75376 5.30156C3.46657 5.50903 3.27954 5.84651 3.27954 6.22783V9.0868C3.27954 9.71944 3.79348 10.2291 4.42179 10.2291ZM9.21585 1.62854C11.3439 1.62854 13.0992 3.25485 13.3044 5.3299C13.1697 5.43585 13.0594 5.57126 12.9833 5.72665C12.3367 4.03944 10.893 2.86476 9.21581 2.86476C7.5024 2.86476 6.08194 4.07981 5.4508 5.7199C5.44994 5.72214 5.44912 5.72441 5.44826 5.72669C5.37225 5.57131 5.26192 5.4359 5.12724 5.32995C5.33252 3.25485 7.08775 1.62854 9.21585 1.62854Z" fill="black"/>
</svg>
