<svg width="25" height="25" viewBox="0 0 25 25" fill="none" xmlns="http://www.w3.org/2000/svg">
<g clip-path="url(#clip0_5_11077)">
<path d="M14.0625 1.5625C8.56333 1.5625 4.01208 5.64654 3.24984 10.9375H0L4.68751 15.625L9.37503 10.9375H6.40794C7.13395 7.37608 10.29 4.68748 14.0625 4.68748C18.3701 4.68748 21.875 8.19243 21.875 12.5C21.875 16.8075 18.3701 20.3125 14.0625 20.3125C11.5563 20.3125 9.18426 19.0964 7.71788 17.0609L5.18188 18.8858C7.23418 21.7362 10.5538 23.4375 14.0625 23.4375C20.0935 23.4375 25 18.5303 25 12.5C25 6.46973 20.0935 1.5625 14.0625 1.5625Z" fill="black"/>
<path d="M12.5 7.8125V14.1663L17.1646 16.9648L18.7729 14.2853L15.625 12.3963V7.81255L12.5 7.8125Z" fill="black"/>
</g>
<defs>
<clipPath id="clip0_5_11077">
<rect width="25" height="25" fill="white"/>
</clipPath>
</defs>
</svg>
