<svg width="15" height="22" viewBox="0 0 15 22" fill="none" xmlns="http://www.w3.org/2000/svg">
<path d="M7.81344 0.676758C3.8604 0.676758 0.644287 3.89287 0.644287 7.84591C0.644287 12.8145 7.82049 21.3018 7.82049 21.3018C7.82049 21.3018 14.9826 12.5701 14.9826 7.84591C14.9826 3.89287 11.7666 0.676758 7.81344 0.676758ZM9.97652 9.94504C9.38008 10.5414 8.59682 10.8396 7.81344 10.8396C7.03018 10.8396 6.24667 10.5414 5.65048 9.94504C4.45772 8.75241 4.45772 6.81177 5.65048 5.619C6.22804 5.04119 6.99632 4.72295 7.81344 4.72295C8.63056 4.72295 9.39871 5.04132 9.97652 5.619C11.1693 6.81177 11.1693 8.75241 9.97652 9.94504Z" fill="black"/>
</svg>
