<svg width="23" height="23" viewBox="0 0 23 23" fill="none" xmlns="http://www.w3.org/2000/svg">
<g clip-path="url(#clip0_2_4022)">
<path d="M20.874 4.86185C20.8736 4.85443 20.8728 4.84702 20.8715 4.83965C20.8428 4.79858 20.8075 4.76325 20.7778 4.723C20.5631 4.43047 20.3358 4.14892 20.0959 3.8783C20.0302 3.80435 19.9644 3.73122 19.897 3.65891C19.65 3.39436 19.3909 3.14208 19.1198 2.90218C19.0696 2.85779 19.0228 2.81181 18.9727 2.76824C18.3044 2.19576 17.5727 1.7017 16.792 1.29584C16.7607 1.27942 16.7279 1.26546 16.6958 1.249C16.3481 1.07231 15.9916 0.913479 15.6276 0.773234C15.5455 0.743674 15.4707 0.715702 15.3927 0.691052C15.0689 0.574398 14.7403 0.472236 14.4067 0.384565C14.3081 0.358278 14.2095 0.331173 14.1092 0.30816C13.7805 0.231755 13.4519 0.173404 13.1158 0.125741C13.0139 0.110961 12.9137 0.0912215 12.811 0.0788965C11.9454 -0.0262988 11.0703 -0.0262988 10.2046 0.0788965C10.1019 0.0912215 10.0017 0.110961 9.89977 0.125741C9.56372 0.173404 9.23177 0.231755 8.90636 0.30816C8.80612 0.331173 8.70753 0.358278 8.60893 0.384565C8.27312 0.472188 7.94449 0.57435 7.62293 0.691052C7.54075 0.718976 7.46598 0.746947 7.38794 0.773234C7.02401 0.913479 6.66746 1.07226 6.31976 1.249C6.28769 1.26541 6.25486 1.27938 6.22361 1.29584C5.44026 1.70126 4.7061 2.19527 4.0355 2.76824C3.98538 2.81176 3.93854 2.85779 3.88842 2.90218C3.61453 3.14319 3.35541 3.39546 3.11113 3.65891C3.04378 3.73122 2.97801 3.80435 2.91229 3.8783C2.67181 4.14835 2.44447 4.42989 2.23033 4.72295C2.20077 4.7632 2.16543 4.79854 2.13664 4.8396C2.13288 4.84678 2.12956 4.85419 2.12677 4.8618C-0.707296 8.83356 -0.707296 14.1665 2.12677 18.1382C2.12956 18.1458 2.13284 18.1532 2.13664 18.1604C2.16538 18.2015 2.20072 18.2368 2.23033 18.2771C2.44452 18.5696 2.67181 18.8511 2.91229 19.1218C2.97801 19.1957 3.04378 19.2688 3.11113 19.3412C3.35874 19.6057 3.6178 19.858 3.88842 20.0979C3.93854 20.1423 3.98538 20.1883 4.0355 20.2318C4.70374 20.8043 5.43544 21.2984 6.2162 21.7042C6.24744 21.7206 6.28028 21.7346 6.31234 21.7511C6.66004 21.9278 7.01655 22.0866 7.38052 22.2268C7.4627 22.2564 7.53747 22.2844 7.61551 22.309C7.93924 22.4257 8.26792 22.5278 8.60151 22.6155C8.70011 22.6418 8.79871 22.6689 8.89895 22.6919C9.22763 22.7683 9.55626 22.8267 9.89236 22.8743C9.99423 22.8891 10.0945 22.9088 10.1972 22.9212C11.0628 23.0264 11.9379 23.0264 12.8035 22.9212C12.9062 22.9088 13.0065 22.8891 13.1084 22.8743C13.4444 22.8267 13.7764 22.7683 14.1018 22.6919C14.202 22.6689 14.3006 22.6418 14.3992 22.6155C14.7356 22.5279 15.0643 22.4257 15.3852 22.309C15.4674 22.2811 15.5422 22.2531 15.6202 22.2268C15.9842 22.0866 16.3407 21.9278 16.6884 21.7511C16.7205 21.7347 16.7533 21.7207 16.7846 21.7042C17.5653 21.2983 18.297 20.8043 18.9653 20.2318C19.0154 20.1883 19.0622 20.1423 19.1123 20.0979C19.3862 19.8574 19.6453 19.6052 19.8896 19.3412C19.957 19.2688 20.0227 19.1957 20.0885 19.1218C20.3289 18.8511 20.5563 18.5696 20.7704 18.2771C20.8 18.2368 20.8353 18.2015 20.8641 18.1604C20.8679 18.1532 20.8712 18.1458 20.874 18.1382C23.7081 14.1666 23.7081 8.83361 20.874 4.86185ZM19.9365 6.41647C20.7223 7.71064 21.1968 9.16961 21.3226 10.6785H16.4008C16.3406 9.69939 16.1865 8.72841 15.9407 7.77881C17.331 7.51845 18.6767 7.05963 19.9365 6.41647ZM13.5949 1.86688C13.6409 1.87757 13.6852 1.89235 13.7312 1.90304C14.0254 1.97208 14.3171 2.05094 14.6022 2.14954C14.6458 2.16432 14.6885 2.1816 14.7312 2.1972C15.0139 2.2958 15.2924 2.40509 15.5653 2.52588C15.6129 2.54808 15.6598 2.57273 15.7074 2.59492C15.9687 2.71928 16.224 2.85374 16.4732 2.99837L16.6375 3.09779C16.8742 3.24241 17.1042 3.39715 17.3277 3.56204C17.3853 3.60393 17.4427 3.64423 17.4995 3.6902C17.7186 3.85452 17.9284 4.03063 18.1288 4.21854C18.1814 4.2662 18.2357 4.31305 18.2874 4.36235C18.4978 4.562 18.6982 4.77316 18.8922 4.99174C18.9168 5.02048 18.9431 5.04677 18.9678 5.07392C17.8552 5.60413 16.6766 5.98274 15.4634 6.19958C14.9013 4.65454 14.1589 3.18122 13.2515 1.81026C13.3656 1.83077 13.4823 1.84228 13.5949 1.86688ZM8.24746 10.6784C8.31226 9.78937 8.46363 8.90876 8.69939 8.0491C9.63036 8.15969 10.5671 8.21452 11.5046 8.21341C12.4429 8.21313 13.3805 8.15689 14.3122 8.04496C14.5475 8.90602 14.6981 9.78802 14.7616 10.6784H8.24746ZM14.7616 12.3218C14.6968 13.2108 14.5455 14.0914 14.3097 14.9511C13.3787 14.8405 12.442 14.7856 11.5045 14.7868C10.5662 14.7857 9.62867 14.8405 8.69689 14.9511C8.4618 14.0914 8.3113 13.2107 8.24741 12.3218H14.7616ZM11.5045 2.17587C12.4396 3.50114 13.2086 4.93608 13.7945 6.44854C13.0339 6.52933 12.2695 6.56991 11.5045 6.57015C10.7404 6.56924 9.97685 6.52841 9.21699 6.44772C9.80358 4.93628 10.5717 3.50182 11.5045 2.17587ZM4.11778 4.99087C4.31089 4.7723 4.51218 4.56113 4.72252 4.36148C4.77428 4.31218 4.82853 4.26534 4.88111 4.21767C5.0838 4.03309 5.29361 3.85698 5.5105 3.68934C5.56721 3.64577 5.6247 3.60716 5.68223 3.56118C5.90572 3.39686 6.1358 3.24208 6.37243 3.09692L6.53674 2.9975C6.78599 2.85182 7.04125 2.7173 7.30253 2.59405C7.35019 2.57186 7.39704 2.54721 7.4447 2.52501C7.71748 2.40177 7.99605 2.29248 8.2787 2.19633C8.32141 2.18073 8.36089 2.16345 8.40768 2.14867C8.69279 2.05334 8.98286 1.97448 9.27866 1.90217C9.32469 1.89148 9.36903 1.8767 9.41587 1.86683C9.52843 1.84218 9.64514 1.83068 9.75933 1.81012C8.85153 3.18132 8.10885 4.65492 7.54657 6.20026C6.33338 5.98342 5.15471 5.60481 4.04219 5.07459C4.06684 5.0459 4.09313 5.01961 4.11778 4.99087ZM3.07261 6.41647C4.33212 7.05959 5.67751 7.5184 7.06754 7.77881C6.82205 8.72846 6.66823 9.69944 6.60824 10.6785H1.68649C1.81234 9.16961 2.28685 7.71064 3.07261 6.41647ZM3.07261 16.5837C2.2868 15.2896 1.81229 13.8306 1.68649 12.3218H6.60824C6.66852 13.3008 6.82258 14.2718 7.06835 15.2214C5.67809 15.4817 4.33241 15.9405 3.07261 16.5837ZM9.41424 21.1333C9.36821 21.1226 9.32387 21.1078 9.27784 21.0971C8.98368 21.0281 8.69197 20.9492 8.40686 20.8506C8.36329 20.8359 8.32059 20.8186 8.27784 20.803C7.99518 20.7044 7.71667 20.5951 7.44383 20.4743C7.39617 20.4521 7.34932 20.4274 7.30166 20.4052C7.04038 20.2809 6.78512 20.1464 6.53588 20.0018L6.37156 19.9024C6.13493 19.7578 5.90485 19.603 5.68136 19.4381C5.62383 19.3962 5.56635 19.3559 5.50963 19.31C5.29053 19.1456 5.08071 18.9695 4.88024 18.7816C4.82767 18.734 4.77341 18.6871 4.72165 18.6378C4.51131 18.4382 4.31084 18.227 4.11691 18.0084C4.09226 17.9797 4.06598 17.9534 4.04133 17.9262C5.15389 17.396 6.33252 17.0174 7.54571 16.8006C8.10774 18.3456 8.85018 19.8189 9.7576 21.1899C9.64345 21.1694 9.5268 21.1579 9.41424 21.1333ZM11.5045 20.8243C10.5695 19.4991 9.8004 18.0641 9.21453 16.5517C10.7362 16.3879 12.2711 16.3879 13.7928 16.5517L13.792 16.5525C13.2055 18.0639 12.4374 19.4984 11.5045 20.8243ZM18.8913 18.0093C18.6982 18.2279 18.4969 18.439 18.2866 18.6387C18.2348 18.688 18.1806 18.7348 18.128 18.7825C17.9253 18.9677 17.7155 19.1438 17.4986 19.3108C17.4419 19.3544 17.3844 19.3971 17.3269 19.439C17.1034 19.6033 16.8733 19.7581 16.6367 19.9032L16.4723 20.0027C16.2236 20.1478 15.9684 20.2823 15.7066 20.4061C15.6589 20.4283 15.6121 20.453 15.5644 20.4752C15.2916 20.5984 15.013 20.7077 14.7304 20.8038C14.6877 20.8194 14.6482 20.8367 14.6014 20.8515C14.3163 20.9468 14.0262 21.0257 13.7304 21.098C13.6844 21.1087 13.6401 21.1235 13.5932 21.1333C13.4807 21.158 13.364 21.1695 13.2498 21.19C14.1572 19.8191 14.8997 18.3458 15.4616 16.8007C16.6748 17.0176 17.8535 17.3962 18.966 17.9264C18.9422 17.9543 18.916 17.9806 18.8913 18.0093ZM19.9365 16.5837C18.677 15.9406 17.3316 15.4818 15.9416 15.2214C16.187 14.2718 16.3409 13.3008 16.4008 12.3218H21.3226C21.1967 13.8306 20.7222 15.2895 19.9365 16.5837Z" fill="white"/>
</g>
<defs>
<clipPath id="clip0_2_4022">
<rect width="23" height="23" fill="white"/>
</clipPath>
</defs>
</svg>
