<svg width="31" height="30" viewBox="0 0 31 30" fill="none" xmlns="http://www.w3.org/2000/svg">
<path d="M30.823 10.8969L29.2494 8.79883L28.3745 14.9234C28.2943 15.4845 28.0294 16.0142 27.6285 16.4151L16.8548 27.1889C15.915 28.1287 14.6641 28.6463 13.3326 28.6463C12.9346 28.6463 12.5441 28.5991 12.1667 28.5092C12.7399 29.4052 13.743 30.001 14.8833 30.001H27.7757C29.5529 30.001 30.9988 28.5552 30.9988 26.7779V11.4243C30.9988 11.2341 30.937 11.0491 30.823 10.8969Z" fill="#777777"/>
<path d="M19.1332 14.6008C19.6186 14.6008 20.0122 14.2073 20.0122 13.7218C20.0122 13.2363 19.6186 12.8428 19.1332 12.8428C18.6477 12.8428 18.2542 13.2363 18.2542 13.7218C18.2542 14.2073 18.6477 14.6008 19.1332 14.6008Z" fill="#777777"/>
<path d="M9.19201 14.6008C9.67749 14.6008 10.071 14.2073 10.071 13.7218C10.071 13.2363 9.67749 12.8428 9.19201 12.8428C8.70654 12.8428 8.31299 13.2363 8.31299 13.7218C8.31299 14.2073 8.70654 14.6008 9.19201 14.6008Z" fill="#777777"/>
<path d="M15.6155 25.9478L26.3893 15.174C26.5238 15.0395 26.611 14.865 26.6379 14.6768L27.8811 5.97482C27.9202 5.70091 27.8281 5.42455 27.6325 5.22894L25.7678 3.36423L23.2815 5.85052L23.9031 6.47211C24.2464 6.81534 24.2464 7.37194 23.9031 7.71523C23.7315 7.88687 23.5065 7.97272 23.2816 7.97272C23.0567 7.97272 22.8316 7.88687 22.6601 7.71523L20.1738 5.22894C19.8305 4.88571 19.8305 4.32911 20.1738 3.98582C20.517 3.64259 21.0736 3.64259 21.4169 3.98582L22.0385 4.60741L24.5247 2.12111L22.66 0.256405C22.4644 0.060734 22.188 -0.0310363 21.9141 0.00775806L13.2121 1.25093C13.0238 1.27783 12.8494 1.36509 12.7149 1.49958L1.94107 12.2734C0.684357 13.53 0.684357 15.5749 1.94107 16.8315L11.0573 25.9478C11.6857 26.5762 12.5111 26.8903 13.3364 26.8903C14.1618 26.8903 14.9872 26.5762 15.6155 25.9478ZM19.1377 11.0866C20.5918 11.0866 21.7748 12.2696 21.7748 13.7237C21.7748 15.1778 20.5918 16.3608 19.1377 16.3608C17.6836 16.3608 16.5006 15.1778 16.5006 13.7237C16.5006 12.2696 17.6836 11.0866 19.1377 11.0866ZM9.19262 16.3608C7.73854 16.3608 6.55554 15.1778 6.55554 13.7237C6.55554 12.2696 7.73854 11.0866 9.19262 11.0866C10.6467 11.0866 11.8297 12.2696 11.8297 13.7237C11.8297 15.1778 10.6468 16.3608 9.19262 16.3608ZM12.0934 20.8186C12.0013 20.8186 11.9075 20.804 11.8153 20.7733C11.3548 20.6198 11.1059 20.122 11.2594 19.6614L15.4031 7.23007C15.5566 6.76952 16.0545 6.52063 16.515 6.67411C16.9756 6.82765 17.2245 7.32541 17.071 7.78602L12.9272 20.2174C12.8044 20.5856 12.4614 20.8186 12.0934 20.8186Z" fill="#777777"/>
<path d="M27.6319 1.49956C27.9752 1.15633 27.9752 0.599735 27.6319 0.256446C27.2887 -0.0867841 26.7321 -0.0867841 26.3888 0.256446L24.5242 2.12115L25.7673 3.36427L27.6319 1.49956Z" fill="#777777"/>
</svg>
