<svg width="33" height="33" viewBox="0 0 33 33" fill="none" xmlns="http://www.w3.org/2000/svg">
<path d="M25.4922 14.9439C26.3442 17.5608 30.296 16.8126 30.296 19.3293C30.296 21.6279 23.2054 23.0532 20.9012 23.1718L11.2962 23.3505C5.14292 23.3505 0.684082 21.6725 0.684082 16.63C0.684082 11.5876 5.23305 6.12695 11.737 6.12695C17.8799 6.12695 23.9249 10.1286 25.4922 14.9439Z" fill="#D87E35"/>
<path d="M27.9267 17.0532C27.5143 16.8804 27.0344 16.9706 26.721 17.2896C25.0669 18.9747 19.7603 19.9951 17.826 20.0945L8.22096 20.273C5.4107 20.273 2.95419 19.9228 1.11426 19.062C2.36883 22.2273 6.26647 23.3494 11.2973 23.3494L20.9023 23.1707C23.2063 23.0523 30.2971 21.6268 30.2971 19.3282C30.2971 17.96 29.1294 17.5567 27.9267 17.0532Z" fill="#C67030"/>
<path d="M28.3574 6.42596C28.0178 6.88796 28.0838 7.44739 28.1978 7.83336C28.2852 8.12894 28.1784 8.44692 27.9294 8.6282L23.6632 11.7194C23.1438 12.0958 23.03 12.8232 23.4097 13.3403C23.7891 13.8572 24.5172 13.9665 25.0318 13.5835L29.2588 10.4389C29.5065 10.2556 29.8419 10.2491 30.0977 10.4208C30.4318 10.6454 30.9459 10.876 31.4882 10.6899C32.1992 10.4465 32.4986 9.65768 32.1994 8.96859C31.9643 8.42703 31.4592 8.13624 30.9456 8.13624C30.8351 8.13624 30.7409 8.0811 30.6825 8.00003C30.6229 7.92022 30.5984 7.81397 30.6314 7.70848C30.7853 7.21853 30.6591 6.64928 30.2127 6.26307C29.6447 5.77111 28.8028 5.82071 28.3574 6.42596Z" fill="#E2E2E2"/>
<path d="M12.6872 21.2126C14.4579 23.6243 17.963 24.0597 20.5159 22.1852C21.7171 21.3033 22.4465 20.1016 22.9047 18.673C23.5135 16.7754 24.405 15.2459 25.8935 13.8803C26.2701 13.5347 26.3401 12.9813 26.0541 12.592L24.9154 11.0411C24.6296 10.6516 24.0805 10.5527 23.6381 10.8085C21.8894 11.8196 20.163 12.2124 18.1702 12.225C16.6702 12.2343 15.3051 12.5704 14.1039 13.4523C11.5509 15.3265 10.9167 18.8012 12.6872 21.2126Z" fill="#E88C38"/>
<path d="M26.0547 12.5929L24.9159 11.042C24.824 10.9169 24.6493 10.8539 24.4524 10.8268C23.926 10.7545 23.403 10.9713 23.0531 11.3711C21.8614 12.7327 20.7086 14.5185 20.233 16.0016C19.7748 17.4302 19.0451 18.6319 17.844 19.5138C16.0939 20.7989 13.8962 20.998 12.1167 20.2193C12.267 20.565 12.4563 20.8986 12.688 21.2138C14.4584 23.6252 17.9635 24.0608 20.5165 22.1861C21.7177 21.3044 22.4473 20.1025 22.9053 18.6742C23.5141 16.7766 24.4056 15.2471 25.894 13.8812C26.2707 13.5358 26.3407 12.9824 26.0547 12.5929Z" fill="#D38231"/>
<path d="M32.0765 22.9683H0.923491C0.413406 22.9683 0 23.3817 0 23.8918C0 24.4018 0.413406 24.8152 0.923491 24.8152H2.72918C2.9593 24.8152 3.16676 24.9545 3.25362 25.1677L3.56984 25.9414C3.86542 26.665 4.56937 27.1381 5.35111 27.1381H27.6488C28.4306 27.1381 29.1345 26.665 29.4301 25.9414L29.7463 25.1677C29.8332 24.9545 30.0406 24.8152 30.2708 24.8152H32.0765C32.5865 24.8152 32.9999 24.4018 32.9999 23.8918C32.9999 23.3817 32.5865 22.9683 32.0765 22.9683Z" fill="#E2E2E2"/>
<path d="M32.076 22.9683H29.2038C29.2038 23.9884 28.377 24.8152 27.3568 24.8152H27.3347C27.3228 24.8152 27.3112 24.8163 27.2994 24.8165H2.74634C2.96915 24.8236 3.1683 24.96 3.25315 25.1675L3.51675 25.8125H25.6956C25.6702 25.8616 25.646 25.9117 25.6249 25.9638L25.3996 26.5157C25.2457 26.8921 24.8797 27.1378 24.473 27.1378H27.6484C28.4301 27.1378 29.1341 26.665 29.4296 25.9414L29.7459 25.1675C29.833 24.9545 30.0402 24.8152 30.2703 24.8152H32.076C32.5861 24.8152 32.9995 24.4018 32.9995 23.8918C32.9995 23.3817 32.5861 22.9683 32.076 22.9683Z" fill="#D8D6D4"/>
</svg>
