<svg width="30" height="30" viewBox="0 0 30 30" fill="none" xmlns="http://www.w3.org/2000/svg">
    <path
        d="M11.557 19.3139L11.0967 22.0477C11.034 22.4215 11.1873 22.7981 11.4933 23.0212C11.7998 23.2437 12.2067 23.2736 12.5415 23.0981L14.9994 21.8151L17.4573 23.0983C17.6028 23.1738 17.7621 23.2118 17.9198 23.2118C18.1263 23.2118 18.3322 23.1471 18.506 23.0214C18.8122 22.7984 18.9661 22.4217 18.9029 22.048L18.4431 19.3141L20.4222 17.3727C20.6928 17.1076 20.7892 16.712 20.6731 16.3519C20.5565 15.9921 20.2445 15.7287 19.8701 15.6734L17.1276 15.2667L15.8924 12.784C15.7248 12.4451 15.3777 12.2305 14.9992 12.2305C14.6213 12.2305 14.2745 12.4451 14.1055 12.784L12.8715 15.2667L10.129 15.6731C9.75382 15.7284 9.44327 15.9919 9.32646 16.3517C9.20964 16.7117 9.30579 17.1078 9.57691 17.3725L11.557 19.3139Z"
        fill="#FE4D5F" />
    <path
        d="M26.7862 3.18933H23.6459V1.44745C23.6459 0.648009 22.9979 0 22.1982 0H21.9687C21.1692 0 20.5214 0.648009 20.5214 1.44745V3.18933H9.44159V1.44745C9.44159 0.648009 8.79358 0 7.99439 0H7.7646C6.96517 0 6.3174 0.648009 6.3174 1.44745V3.18933H3.21364C1.57126 3.18933 0.234619 4.52549 0.234619 6.16835V27.0212C0.234619 28.6631 1.57126 30.0002 3.21364 30.0002H26.7864C28.4286 30.0002 29.7654 28.6634 29.7654 27.0212V6.16835C29.7652 4.52549 28.4283 3.18933 26.7862 3.18933ZM26.3975 26.6326H3.6023V10.3999H26.3975V26.6326Z"
        fill="#FE4D5F" />
</svg>
