<svg width="22" height="22" viewBox="0 0 22 22" fill="none" xmlns="http://www.w3.org/2000/svg">
<g clip-path="url(#clip0_5_11006)">
<path d="M7.95679 20.0146C8.47322 21.1822 9.64196 21.9993 10.9986 21.9993C12.3552 21.9993 13.5239 21.1822 14.0404 20.0146H7.95679Z" fill="black"/>
<path d="M10.9998 2.10189C11.8951 2.10189 12.7547 2.25984 13.5524 2.54903V2.45077C13.5524 1.09941 12.4529 0 11.1016 0H10.8985C9.54716 0 8.44775 1.09941 8.44775 2.45077V2.54778C9.24502 2.25945 10.1044 2.10189 10.9998 2.10189Z" fill="black"/>
<path d="M19.055 18.7246H2.94362C2.63882 18.7246 2.35962 18.5191 2.29622 18.2209C2.23347 17.9257 2.36801 17.6343 2.64097 17.5082C2.70574 17.4662 3.1933 17.1253 3.68141 16.0938C4.57788 14.1997 4.76605 11.5314 4.76605 9.62656C4.76605 6.18963 7.56221 3.39355 10.9991 3.39355C14.4279 3.39355 17.2189 6.17616 17.2321 9.60182C17.2324 9.61004 17.2326 9.6183 17.2326 9.62656C17.2326 11.5314 17.4208 14.1997 18.3172 16.0938C18.8053 17.1253 19.2929 17.4662 19.3577 17.5082C19.6306 17.6343 19.7652 17.9257 19.7024 18.2209C19.639 18.519 19.3599 18.7246 19.055 18.7246ZM19.3649 17.5128H19.3653H19.3649Z" fill="black"/>
</g>
<defs>
<clipPath id="clip0_5_11006">
<rect width="22" height="22" fill="white"/>
</clipPath>
</defs>
</svg>
