<svg width="30" height="32" viewBox="0 0 30 32" fill="none" xmlns="http://www.w3.org/2000/svg">
<path d="M16.0043 9.37915C15.231 10.1508 13.9777 10.1508 13.2043 9.37915C12.4312 8.60749 12.4312 7.35627 13.2043 6.58461C13.9777 5.81294 15.231 5.81294 16.0043 6.58461C16.7774 7.35627 16.7774 8.60749 16.0043 9.37915Z" fill="#777777"/>
<path d="M18.7092 12.3717C18.468 12.3717 18.2267 12.2796 18.0431 12.0953C17.6758 11.7275 17.6765 11.1317 18.0443 10.7646C18.7896 10.0208 19.1999 9.03196 19.1999 7.98032C19.1999 6.92868 18.7896 5.93983 18.0443 5.196C17.6765 4.82873 17.6758 4.23309 18.0431 3.8651C18.4101 3.49735 19.006 3.49663 19.3738 3.86391C20.4754 4.96336 21.0819 6.4251 21.0819 7.98032C21.0819 9.5353 20.4754 10.9973 19.3738 12.0967C19.1901 12.2801 18.9496 12.3717 18.7092 12.3717Z" fill="#777777"/>
<path d="M20.8405 15.1442C20.5993 15.1442 20.3581 15.0521 20.1745 14.868C19.8072 14.5 19.8079 13.9044 20.1756 13.5371C21.6624 12.0533 22.4814 10.0806 22.4814 7.98228C22.4814 5.88399 21.6624 3.9113 20.1756 2.42745C19.8079 2.06017 19.8072 1.46453 20.1745 1.09654C20.5417 0.728791 21.1374 0.728077 21.5051 1.09535C23.3482 2.93483 24.3634 5.38065 24.3632 7.98228C24.3632 10.5839 23.3482 13.03 21.5051 14.8694C21.3215 15.0526 21.081 15.1442 20.8405 15.1442Z" fill="#777777"/>
<path d="M10.4958 12.3718C10.2553 12.3718 10.0149 12.2802 9.83098 12.0968C8.72938 10.9974 8.1228 9.53539 8.1228 7.9804C8.1228 6.42519 8.72938 4.96345 9.83098 3.864C10.1987 3.49672 10.7946 3.4972 11.1616 3.86519C11.5289 4.23294 11.5282 4.82881 11.1605 5.19609C10.4152 5.93992 10.0049 6.92876 10.0049 7.9804C10.0049 9.03204 10.4152 10.0209 11.1605 10.7647C11.5282 11.1318 11.5289 11.7276 11.1616 12.0954C10.978 12.2795 10.7368 12.3718 10.4958 12.3718Z" fill="#777777"/>
<path d="M8.36666 15.1443C8.12593 15.1443 7.88544 15.0527 7.70181 14.8693C5.85876 13.0298 4.84375 10.584 4.84375 7.9824C4.84375 5.38053 5.85876 2.93471 7.70181 1.09524C8.06956 0.728196 8.66543 0.728672 9.03247 1.09666C9.39975 1.46442 9.39904 2.06005 9.03128 2.42733C7.54457 3.91119 6.72557 5.88387 6.72557 7.98216C6.72557 10.0804 7.54457 12.0534 9.03128 13.5372C9.39904 13.9045 9.39975 14.5001 9.03247 14.8681C8.84883 15.0522 8.60763 15.1443 8.36666 15.1443Z" fill="#777777"/>
<path d="M27.006 16.7705H2.20128C0.985509 16.7705 0 17.756 0 18.9715V29.7969C0 31.0127 0.985509 31.9982 2.20128 31.9982H27.0058C28.2215 31.9982 29.207 31.0127 29.207 29.7969V18.9715C29.207 17.756 28.2215 16.7705 27.006 16.7705ZM7.23872 29.1739H3.77172C3.2522 29.1739 2.83093 28.7527 2.83093 28.2329V20.5358C2.83093 20.0163 3.2522 19.5948 3.77172 19.5948C4.29147 19.5948 4.71275 20.0161 4.71275 20.5358V27.2919H7.23872C7.75847 27.2919 8.17975 27.7132 8.17975 28.2329C8.17975 28.7527 7.75847 29.1739 7.23872 29.1739ZM11.0951 28.2329C11.0951 28.7527 10.6738 29.1739 10.1541 29.1739C9.63434 29.1739 9.21307 28.7527 9.21307 28.2329V20.5358C9.21307 20.0163 9.63434 19.5948 10.1541 19.5948C10.6738 19.5948 11.0951 20.0161 11.0951 20.5358V28.2329ZM19.0125 20.8079L16.6887 28.5048C16.6885 28.5055 16.6882 28.5062 16.688 28.5069C16.4356 29.3683 15.149 29.3471 14.8878 28.5069C14.8875 28.5062 14.8873 28.5055 14.8871 28.5048L12.5633 20.8079C12.4132 20.3103 12.6946 19.7853 13.1922 19.635C13.6894 19.4849 14.2148 19.7663 14.3649 20.2639L15.7879 24.9769L17.2108 20.2639C17.3612 19.7663 17.8862 19.4846 18.3838 19.635C18.8812 19.7853 19.1628 20.3103 19.0125 20.8079ZM24.8016 22.9588C25.3214 22.9588 25.7426 23.3801 25.7426 23.8998C25.7426 24.4193 25.3214 24.8408 24.8016 24.8408H22.1313V27.2919H25.3085C25.8283 27.2919 26.2496 27.7132 26.2496 28.2329C26.2496 28.7527 25.8283 29.1739 25.3085 29.1739H21.1902C20.6705 29.1739 20.2492 28.7527 20.2492 28.2329V20.5358C20.2492 20.0163 20.6705 19.5948 21.1902 19.5948H25.4353C25.9548 19.5948 26.3763 20.0161 26.3763 20.5358C26.3763 21.0556 25.9548 21.4768 25.4353 21.4768H22.131V22.9588H24.8016Z" fill="#777777"/>
</svg>
