<svg width="25" height="25" viewBox="0 0 25 25" fill="none" xmlns="http://www.w3.org/2000/svg">
<g clip-path="url(#clip0_1_2)">
<path d="M19.0918 12.207L13.2324 14.1602L19.0918 16.1133L24.9512 14.1602L19.0918 12.207ZM0.0488281 14.1602L5.9082 16.1133L11.7676 14.1602L5.9082 12.207L0.0488281 14.1602ZM12.7316 0.0376042C12.5812 -0.012494 12.4187 -0.012494 12.2684 0.0376042L6.64062 1.91353L12.5 3.86666L18.3594 1.91353L12.7316 0.0376042ZM6.64062 25L11.7676 23.291V15.7043L6.64062 17.4132V25ZM0.0488281 22.7631C0.0488173 22.9169 0.097183 23.0667 0.187072 23.1914C0.276961 23.3161 0.403814 23.4094 0.549658 23.458L5.17578 25V17.4132L0.0488281 15.7043V22.7631ZM13.2324 23.291L18.3594 25V17.4132L13.2324 15.7043V23.291ZM19.8242 25L24.4503 23.458C24.5962 23.4094 24.723 23.3161 24.8129 23.1914C24.9028 23.0667 24.9512 22.9169 24.9512 22.7631V15.7043L19.8242 17.4132V25ZM6.64062 11.1816L11.7676 12.8906V5.16661L6.64062 3.45758V11.1816ZM18.3594 11.1816V3.45758L13.2324 5.16661V12.8906L18.3594 11.1816Z" fill="black"/>
</g>
<defs>
<clipPath id="clip0_1_2">
<rect width="25" height="25" fill="white"/>
</clipPath>
</defs>
</svg>
