<svg width="13" height="13" viewBox="0 0 13 13" fill="none" xmlns="http://www.w3.org/2000/svg">
<g clip-path="url(#clip0_47_266)">
<path d="M4.77266 5.93936C5.07278 5.93936 5.31607 5.69607 5.31607 5.39595C5.31607 5.09583 5.07278 4.85254 4.77266 4.85254C4.47254 4.85254 4.22925 5.09583 4.22925 5.39595C4.22925 5.69607 4.47254 5.93936 4.77266 5.93936Z" fill="#9BA0A8"/>
<path d="M8.22481 8.14493C8.52493 8.14493 8.76822 7.90164 8.76822 7.60152C8.76822 7.3014 8.52493 7.05811 8.22481 7.05811C7.92469 7.05811 7.6814 7.3014 7.6814 7.60152C7.6814 7.90164 7.92469 8.14493 8.22481 8.14493Z" fill="#9BA0A8"/>
<path d="M12.7053 7.21789L12.5082 6.94884C12.2951 6.65583 12.2898 6.25892 12.5002 5.96058L12.692 5.68887C12.985 5.27332 12.8492 4.69528 12.399 4.45288L12.106 4.29571C11.7863 4.12523 11.6105 3.76828 11.6718 3.40867L11.7277 3.08102C11.813 2.58023 11.4374 2.11673 10.9286 2.09542L10.5956 2.0821C10.2333 2.06612 9.91902 1.82105 9.81779 1.4721L9.72456 1.15244C9.58338 0.662306 9.0453 0.409246 8.57647 0.611694L8.27013 0.74222C7.93716 0.886064 7.54825 0.800823 7.30584 0.529117L7.08475 0.281384C6.74645 -0.0968735 6.15242 -0.0942097 5.81679 0.292039L5.59835 0.542435C5.35861 0.816806 4.97236 0.907374 4.63673 0.768857L4.32773 0.640996C3.85624 0.446539 3.32348 0.710254 3.18763 1.20039L3.09972 1.52271C3.00383 1.87433 2.69483 2.12472 2.33255 2.14337L1.99958 2.16202C1.4908 2.19132 1.12319 2.66015 1.21642 3.16094L1.27769 3.48858C1.34429 3.84553 1.1738 4.20514 0.856814 4.38095L0.566461 4.54344C0.121608 4.79118 -0.0062533 5.37188 0.294755 5.7821L0.491875 6.05115C0.704978 6.34416 0.710305 6.74107 0.499866 7.03941L0.308074 7.31112C0.015057 7.72667 0.15091 8.30471 0.60109 8.54712L0.894107 8.70428C1.21376 8.87476 1.38957 9.23171 1.3283 9.59132L1.27236 9.91897C1.18712 10.4198 1.56272 10.8833 2.0715 10.9046L2.40447 10.9179C2.76675 10.9339 3.08108 11.1789 3.1823 11.5279L3.27553 11.8475C3.41671 12.3377 3.9548 12.5907 4.42362 12.3883L4.72996 12.2578C5.06293 12.1139 5.45185 12.1992 5.69425 12.4709L5.91535 12.7186C6.25631 13.0969 6.85034 13.0942 7.18331 12.708L7.40174 12.4576C7.64148 12.1832 8.02773 12.0926 8.36337 12.2311L8.67237 12.359C9.14386 12.5535 9.67661 12.2897 9.81247 11.7996L9.90037 11.4773C9.99627 11.1257 10.3053 10.8753 10.6675 10.8566L11.0005 10.838C11.5093 10.8087 11.8769 10.3398 11.7837 9.83905L11.7224 9.51141C11.6558 9.15446 11.8263 8.79485 12.1433 8.61904L12.4336 8.45655C12.8785 8.21148 13.0063 7.63077 12.7053 7.21789ZM3.45933 5.39586C3.45933 4.67131 4.04537 4.08527 4.76992 4.08527C5.49447 4.08527 6.0805 4.67131 6.0805 5.39586C6.0805 6.12041 5.49447 6.70644 4.76992 6.70644C4.04537 6.70644 3.45933 6.11774 3.45933 5.39586ZM5.02298 8.7762C4.9111 8.91206 4.70865 8.9307 4.5728 8.81882C4.43694 8.70694 4.4183 8.50449 4.53018 8.36864L7.96913 4.22645C8.081 4.0906 8.28345 4.07195 8.41931 4.18383C8.55516 4.29571 8.5738 4.49816 8.46193 4.63401L5.02298 8.7762ZM8.22485 8.91205C7.5003 8.91205 6.91427 8.32602 6.91427 7.60147C6.91427 6.87692 7.5003 6.29089 8.22485 6.29089C8.9494 6.29089 9.53543 6.87692 9.53543 7.60147C9.53543 8.32602 8.9494 8.91205 8.22485 8.91205Z" fill="#9BA0A8"/>
</g>
<defs>
<clipPath id="clip0_47_266">
<rect width="13" height="13" fill="white"/>
</clipPath>
</defs>
</svg>
