<svg width="23" height="23" viewBox="0 0 23 23" fill="none" xmlns="http://www.w3.org/2000/svg">
<path d="M20.5305 2.45112H18.1346V1.10577C18.1346 0.497596 17.6371 0 17.0289 0H16.8446C16.2364 0 15.7388 0.497596 15.7388 1.10577V2.43269H7.24282V1.10577C7.24282 0.497596 6.74522 0 6.13705 0H5.95276C5.34458 0 4.84699 0.497596 4.84699 1.10577V2.43269H2.46958C1.19795 2.45112 0.184326 3.46474 0.184326 4.73638V20.7332C0.184326 21.9864 1.21638 23.0184 2.46958 23.0184H20.5489C21.8021 23.0184 22.8342 21.9864 22.8342 20.7332V4.73638C22.8157 3.46474 21.8021 2.45112 20.5305 2.45112ZM20.2356 20.4199H2.76445V7.97997H20.2356V20.4199Z" fill="black"/>
<path d="M11.2043 11.9795V14.7992L13.6002 16.2367L14.0056 15.5364L12.0521 14.3753V11.9795H11.2043Z" fill="black"/>
<path d="M7.2434 16.5117L9.51022 14.2449H7.81471C7.81471 12.0702 9.58394 10.301 11.7586 10.301C13.9333 10.301 15.7025 12.0702 15.7025 14.2449C15.7025 16.4195 13.9333 18.1888 11.7586 18.1888C10.6713 18.1888 9.69452 17.7465 8.97577 17.0277L8.1833 17.8202C9.10477 18.7417 10.358 19.313 11.7586 19.313C14.5599 19.313 16.8267 17.0461 16.8267 14.2449C16.8267 11.4436 14.5599 9.17676 11.7586 9.17676C8.95734 9.17676 6.70894 11.4436 6.70894 14.2449H5.01343L7.20654 16.438L7.2434 16.5117Z" fill="black"/>
<path d="M7.2434 16.5117L9.51022 14.2449H7.81471C7.81471 12.0702 9.58394 10.301 11.7586 10.301C13.9333 10.301 15.7025 12.0702 15.7025 14.2449C15.7025 16.4195 13.9333 18.1888 11.7586 18.1888C10.6713 18.1888 9.69452 17.7465 8.97577 17.0277L8.1833 17.8202C9.10477 18.7417 10.358 19.313 11.7586 19.313C14.5599 19.313 16.8267 17.0461 16.8267 14.2449C16.8267 11.4436 14.5599 9.17676 11.7586 9.17676C8.95734 9.17676 6.70894 11.4436 6.70894 14.2449H5.01343L7.20654 16.438L7.2434 16.5117Z" stroke="black"/>
</svg>
