<svg width="62" height="60" viewBox="0 0 62 60" fill="none" xmlns="http://www.w3.org/2000/svg">
<path d="M17.2835 17.1284L26.3631 22.8622C26.1512 23.5089 26.0362 24.1991 26.0362 24.9148V36.237H6.31848C2.91453 36.237 0.131797 33.4882 0.00585938 30.06L17.2835 17.1284Z" fill="black"/>
<path d="M40.8086 9.11133C42.4805 9.11133 43.8359 7.75594 43.8359 6.08398C43.8359 4.41203 42.4805 3.05664 40.8086 3.05664C39.1366 3.05664 37.7812 4.41203 37.7812 6.08398C37.7812 7.75594 39.1366 9.11133 40.8086 9.11133Z" fill="black"/>
<path d="M43.8359 17.7707L38.4715 21.8359C37.3635 19.7434 35.162 18.3145 32.6348 18.3145C31.0266 18.3145 29.5493 18.8933 28.4025 19.8536L17.1081 12.7199L0 25.5244V7.41723C0 3.87766 2.83359 0.998047 6.31746 0.998047H36.5146C35.0688 2.21867 34.1484 4.04598 34.1484 6.08398C34.1484 9.75676 37.1358 12.7441 40.8086 12.7441C41.8972 12.7441 42.9265 12.4814 43.8359 12.0152V17.7707Z" fill="black"/>
<path d="M43.8359 34.0335C42.4095 33.3627 40.8607 32.9086 39.2344 32.7124V25.8173L43.8359 22.3298V34.0335Z" fill="black"/>
<path d="M48.9219 47.7402V59.9707H20.9492V45.6816H24.2188C25.2202 45.6816 26.0352 46.4966 26.0352 47.498V50.7676H29.668V24.9141C29.668 23.2781 30.9988 21.9473 32.6348 21.9473C34.2707 21.9473 35.6016 23.2781 35.6016 24.9141V36.2363H37.418C43.7609 36.2363 48.9219 41.3973 48.9219 47.7402Z" fill="black"/>
<path d="M47.4684 36.2363V36.4325C47.3946 36.3659 47.3207 36.3017 47.2456 36.2363H47.4684Z" fill="black"/>
<path d="M55.6825 0.998047H47.4688V36.2363H55.6825C59.1664 36.2363 62 33.3567 62 29.8171V7.41723C62 3.87766 59.1664 0.998047 55.6825 0.998047ZM56.6719 20.373H53.0391V16.7402H56.6719V20.373Z" fill="black"/>
</svg>
