<svg width="110" height="110" viewBox="0 0 110 110" fill="none" xmlns="http://www.w3.org/2000/svg">
<g opacity="0.4">
<path d="M4.68573 23.2545C3.40354 23.2545 2.36413 22.2151 2.36413 20.9329C2.36413 19.6507 3.40354 18.6113 4.68573 18.6113C5.96791 18.6113 7.00732 19.6507 7.00732 20.9329C7.00732 22.2151 5.96791 23.2545 4.68573 23.2545Z" fill="white"/>
<path d="M81.0844 38.3869L86.7913 42.0154L79.8226 52.9754L68.0577 45.4954L75.0266 34.5352L80.992 38.3284C81.0221 38.3499 81.053 38.3686 81.0844 38.3869Z" fill="white"/>
<path d="M100.973 39.0343C101.249 40.2753 101.021 41.5753 100.339 42.6482C99.6568 43.7212 98.5763 44.4792 97.3353 44.7556L96.398 44.9644L89.272 40.4974C89.1928 40.448 89.1084 40.4073 89.0204 40.376L84.8349 37.7149L95.2513 35.3968C96.4923 35.1219 97.7916 35.3506 98.8642 36.0325C99.9368 36.7144 100.695 37.794 100.973 39.0343Z" fill="white"/>
<path d="M70.8431 16.3548C72.0842 16.0785 73.3841 16.3065 74.4571 16.9887C75.53 17.6709 76.2881 18.7513 76.5644 19.9924L79.7974 34.5134L75.5561 31.8167C75.4901 31.7499 75.417 31.6904 75.3381 31.6395L68.2673 27.155L67.209 22.0927C66.9302 20.8499 67.1565 19.5473 67.838 18.4713C68.5194 17.3953 69.6004 16.634 70.8431 16.3548Z" fill="white"/>
<path d="M53.0179 22.347C53.3929 22.2633 53.7759 22.221 54.1601 22.2207C55.147 22.2213 56.1132 22.5041 56.9446 23.0358L72.8525 33.1505L65.8836 44.1105L45.5809 31.2014L49.7551 24.6366C50.1206 24.0582 50.5972 23.5581 51.1572 23.1651C51.7173 22.7721 52.3497 22.494 53.0179 22.347Z" fill="white"/>
<path d="M88.9677 43.3984L105.224 53.7344C106.388 54.4767 107.211 55.6505 107.511 56.9985C107.811 58.3464 107.564 59.7584 106.824 60.9245L102.651 67.4893L81.9988 54.3585L88.9677 43.3984Z" fill="white"/>
<path d="M58.6892 105.318H42.0034C40.6224 105.316 39.2985 104.767 38.322 103.791C37.3456 102.814 36.7963 101.49 36.7947 100.109V66.4883H58.6892V105.318Z" fill="white"/>
<path d="M95.2457 100.109C95.2441 101.49 94.6948 102.814 93.7184 103.791C92.7419 104.767 91.418 105.316 90.037 105.318H77.6506V66.4883H95.2463L95.2457 100.109Z" fill="white"/>
<path d="M75.073 66.4883H61.2663V105.318H75.073V66.4883Z" fill="white"/>
<path d="M21.0916 52.2009L20.475 48.6058C20.4343 48.3687 20.4608 48.125 20.5514 47.9021C20.6421 47.6793 20.7932 47.4863 20.9878 47.3449C21.1824 47.2036 21.4127 47.1194 21.6526 47.1021C21.8925 47.0848 22.1325 47.1349 22.3454 47.2469L25.5741 48.9441L28.8028 47.2469C29.0157 47.1349 29.2557 47.0847 29.4956 47.102C29.7356 47.1193 29.9659 47.2034 30.1605 47.3448C30.3552 47.4862 30.5064 47.6792 30.597 47.902C30.6876 48.1249 30.7141 48.3686 30.6734 48.6058L30.0566 52.2009L32.6689 54.7471C32.8411 54.915 32.9629 55.1277 33.0206 55.3612C33.0782 55.5948 33.0693 55.8398 32.995 56.0685C32.9206 56.2973 32.7838 56.5007 32.5999 56.6557C32.416 56.8107 32.1923 56.9112 31.9543 56.9458L28.3449 57.4706L26.7306 60.7414C26.6242 60.9572 26.4595 61.1388 26.2552 61.2659C26.0509 61.3929 25.8151 61.4602 25.5745 61.4602C25.3339 61.4602 25.0982 61.3929 24.8939 61.2659C24.6896 61.1388 24.5249 60.9572 24.4185 60.7414L22.8043 57.4706L19.195 56.9458C18.9569 56.9112 18.7334 56.8107 18.5495 56.6556C18.3656 56.5006 18.2288 56.2972 18.1544 56.0684C18.0801 55.8397 18.0713 55.5947 18.1289 55.3612C18.1866 55.1277 18.3084 54.9149 18.4806 54.7471L21.0916 52.2009Z" fill="white"/>
<path d="M6.26473 34.4404L9.80966 33.5789L11.1097 30.1708C11.1953 29.946 11.3422 29.7497 11.5337 29.604C11.7251 29.4583 11.9535 29.3692 12.193 29.3465C12.4325 29.3239 12.6736 29.3688 12.8889 29.476C13.1042 29.5833 13.2853 29.7486 13.4115 29.9534L15.326 33.0585L18.9691 33.2416C19.2093 33.2537 19.4413 33.3327 19.639 33.4698C19.8366 33.6069 19.9919 33.7965 20.0874 34.0172C20.1829 34.238 20.2147 34.481 20.1793 34.7189C20.1439 34.9568 20.0426 35.18 19.8869 35.3634L17.5256 38.1439L18.4756 41.665C18.5384 41.8972 18.535 42.1423 18.4657 42.3727C18.3964 42.6031 18.2641 42.8095 18.0836 42.9685C17.9032 43.1276 17.6818 43.233 17.4446 43.2728C17.2073 43.3126 16.9637 43.2852 16.7412 43.1938L13.3681 41.8072L10.3128 43.8003C10.1114 43.9317 9.87716 44.0041 9.63668 44.0094C9.39621 44.0147 9.15906 43.9525 8.95205 43.83C8.74504 43.7075 8.57643 43.5296 8.4653 43.3163C8.35416 43.1029 8.30492 42.8628 8.32315 42.6229L8.59923 38.9858L5.76007 36.6963C5.57289 36.5453 5.43169 36.3449 5.35241 36.1179C5.27313 35.8909 5.25893 35.6462 5.31144 35.4115C5.36394 35.1768 5.48103 34.9615 5.6495 34.7899C5.81796 34.6183 6.03107 34.4972 6.26473 34.4404Z" fill="white"/>
<path d="M13.0095 10.7534C13.062 10.5186 13.1791 10.3033 13.3476 10.1316C13.5161 9.95997 13.7293 9.83889 13.963 9.78207L17.5079 8.92054L18.8077 5.51248C18.8934 5.2877 19.0403 5.09138 19.2318 4.94573C19.4232 4.80008 19.6516 4.71092 19.8911 4.68832C20.1306 4.66572 20.3717 4.71059 20.587 4.81785C20.8023 4.92511 20.9833 5.09049 21.1096 5.29527L23.0238 8.40041L26.6671 8.58345C26.9074 8.59551 27.1394 8.67453 27.3371 8.81159C27.5347 8.94865 27.6901 9.13827 27.7856 9.35902C27.8811 9.57977 27.913 9.82285 27.8775 10.0608C27.8421 10.2987 27.7408 10.5219 27.5852 10.7053L25.2225 13.4855L26.1741 17.007C26.2368 17.2393 26.2334 17.4844 26.1641 17.7147C26.0948 17.9451 25.9624 18.1514 25.782 18.3104C25.6015 18.4695 25.3802 18.5749 25.1429 18.6147C24.9057 18.6545 24.6621 18.6271 24.4396 18.5357L21.0666 17.1491L18.0113 19.1426C17.8098 19.274 17.5756 19.3465 17.3352 19.3517C17.0947 19.357 16.8575 19.2948 16.6505 19.1723C16.4435 19.0499 16.2749 18.8719 16.1638 18.6586C16.0526 18.4453 16.0034 18.2051 16.0216 17.9653L16.2979 14.3277L13.4586 12.0381C13.2713 11.8872 13.13 11.6869 13.0507 11.4598C12.9713 11.2328 12.9571 10.9881 13.0095 10.7534Z" fill="white"/>
<path d="M35.1947 50.5693C41.4407 49.0237 45.9369 50.7042 48.6092 52.3862C51.5184 54.2178 52.9413 56.4371 53.0008 56.5308C53.1839 56.8195 53.2447 57.1692 53.17 57.5028C53.0953 57.8364 52.8911 58.1267 52.6023 58.3098C52.3136 58.4929 51.9639 58.5538 51.6303 58.479C51.2967 58.4043 51.0064 58.2001 50.8233 57.9114C50.63 57.6106 45.9661 50.5607 35.8146 53.0718C35.6496 53.1143 35.478 53.1236 35.3094 53.0993C35.1409 53.075 34.9788 53.0176 34.8326 52.9303C34.6863 52.843 34.5589 52.7277 34.4575 52.5908C34.3561 52.454 34.2829 52.2984 34.2419 52.1331C34.201 51.9678 34.1933 51.7961 34.2191 51.6278C34.245 51.4594 34.3039 51.2979 34.3925 51.1525C34.4812 51.0071 34.5977 50.8807 34.7355 50.7806C34.8733 50.6805 35.0295 50.6087 35.1952 50.5693H35.1947Z" fill="white"/>
<path d="M49.4043 46.0331C49.481 46.1849 49.527 46.3504 49.5395 46.52C49.552 46.6896 49.5308 46.86 49.4771 47.0214C49.4235 47.1828 49.3384 47.332 49.2269 47.4603C49.1153 47.5887 48.9795 47.6937 48.8271 47.7693C48.6748 47.845 48.509 47.8897 48.3393 47.901C48.1696 47.9122 47.9994 47.8898 47.8384 47.835C47.6774 47.7802 47.5288 47.694 47.4013 47.5815C47.2737 47.4691 47.1697 47.3324 47.0952 47.1796C45.6745 44.5917 43.7418 42.3201 41.4147 40.5035C36.4112 36.652 30.6023 36.0562 24.1496 38.7351C23.9933 38.8 23.8257 38.8335 23.6564 38.8336C23.4871 38.8337 23.3194 38.8005 23.163 38.7358C23.0065 38.6711 22.8644 38.5763 22.7446 38.4566C22.6248 38.337 22.5297 38.195 22.4648 38.0386C22.3999 37.8822 22.3665 37.7146 22.3664 37.5453C22.3663 37.376 22.3995 37.2084 22.4642 37.0519C22.5288 36.8955 22.6237 36.7533 22.7433 36.6335C22.863 36.5137 23.005 36.4187 23.1614 36.3538C32.3382 32.5453 39.0078 35.3973 42.9871 38.4608C45.627 40.5138 47.8121 43.0923 49.4043 46.0331Z" fill="white"/>
<path d="M37.0137 28.3535C37.339 28.2485 37.6928 28.2769 37.9971 28.4327C38.3015 28.5885 38.5315 28.8588 38.6366 29.1841C38.7417 29.5095 38.7132 29.8632 38.5574 30.1676C38.4017 30.472 38.1314 30.702 37.806 30.8071C36.0313 31.3299 34.1909 31.5959 32.3408 31.5968C30.1851 31.5968 27.6952 31.2075 25.4626 29.8843C22.5407 28.1531 20.6671 25.2035 19.8908 21.1187C19.8592 20.9524 19.8607 20.7815 19.8951 20.6157C19.9295 20.45 19.9963 20.2926 20.0915 20.1527C20.1868 20.0127 20.3086 19.8929 20.4502 19.8001C20.5917 19.7072 20.7502 19.6432 20.9165 19.6115C21.0828 19.5799 21.2537 19.5814 21.4195 19.6158C21.5852 19.6503 21.7425 19.717 21.8825 19.8122C22.0224 19.9075 22.1423 20.0294 22.2351 20.1709C22.3279 20.3125 22.392 20.4709 22.4236 20.6372C23.0548 23.9589 24.5156 26.322 26.7658 27.6607C31.0459 30.2057 36.9208 28.3832 37.0137 28.3535Z" fill="white"/>
<path d="M55.6745 62.4908C54.3923 62.4908 53.3529 61.4514 53.3529 60.1692C53.3529 58.8871 54.3923 57.8477 55.6745 57.8477C56.9567 57.8477 57.9961 58.8871 57.9961 60.1692C57.9961 61.4514 56.9567 62.4908 55.6745 62.4908Z" fill="white"/>
<path d="M37.4081 20.3815C36.126 20.3815 35.0865 19.3421 35.0865 18.0599C35.0865 16.7777 36.126 15.7383 37.4081 15.7383C38.6903 15.7383 39.7297 16.7777 39.7297 18.0599C39.7297 19.3421 38.6903 20.3815 37.4081 20.3815Z" fill="white"/>
<path d="M58.9457 51.7418C57.6635 51.7418 56.6241 50.7024 56.6241 49.4202C56.6241 48.138 57.6635 47.0986 58.9457 47.0986C60.2279 47.0986 61.2673 48.138 61.2673 49.4202C61.2673 50.7024 60.2279 51.7418 58.9457 51.7418Z" fill="white"/>
<path d="M8.50847 55.5202C7.22628 55.5202 6.18686 54.4807 6.18686 53.1986C6.18686 51.9164 7.22628 50.877 8.50847 50.877C9.79066 50.877 10.8301 51.9164 10.8301 53.1986C10.8301 54.4807 9.79066 55.5202 8.50847 55.5202Z" fill="white"/>
</g>
</svg>
