<svg width="92" height="91" viewBox="0 0 92 91" fill="none" xmlns="http://www.w3.org/2000/svg">
<path d="M48.2864 12.4986L53.8828 15.5593L56.9434 21.1556C57.1149 21.469 57.4436 21.6639 57.801 21.6639C58.1583 21.6639 58.487 21.469 58.6585 21.1556L61.7192 15.5593L67.3155 12.4986C67.6289 12.3271 67.8239 11.9984 67.8239 11.641C67.8239 11.2837 67.6289 10.955 67.3155 10.7835L61.7192 7.72284L58.6585 2.12653C58.487 1.81309 58.1583 1.61816 57.801 1.61816C57.4436 1.61816 57.1149 1.81309 56.9434 2.12653L53.8828 7.72284L48.2864 10.7837C47.973 10.9552 47.7781 11.2839 47.7781 11.6412C47.7781 11.9986 47.9732 12.3271 48.2864 12.4986Z" fill="white" fill-opacity="0.4"/>
<path d="M44.1668 25.8209C45.6388 25.8209 46.8321 24.6276 46.8321 23.1556C46.8321 21.6835 45.6388 20.4902 44.1668 20.4902C42.6948 20.4902 41.5015 21.6835 41.5015 23.1556C41.5015 24.6276 42.6948 25.8209 44.1668 25.8209Z" fill="white" fill-opacity="0.4"/>
<path d="M69.8073 54.3559C68.7664 55.3968 68.7664 57.0843 69.8073 58.1252C70.8482 59.1661 72.5357 59.1661 73.5766 58.1252C74.6175 57.0843 74.6175 55.3968 73.5766 54.3559C72.5357 53.315 70.848 53.315 69.8073 54.3559Z" fill="white" fill-opacity="0.4"/>
<path d="M70.7615 26.9879C72.2335 26.9879 73.4269 25.7946 73.4269 24.3226C73.4269 22.8505 72.2335 21.6572 70.7615 21.6572C69.2895 21.6572 68.0962 22.8505 68.0962 24.3226C68.0962 25.7946 69.2895 26.9879 70.7615 26.9879Z" fill="white" fill-opacity="0.4"/>
<path d="M28.3501 16.3457C28.6452 16.4507 28.9466 16.5005 29.2428 16.5005C30.339 16.5005 31.366 15.8192 31.7543 14.7273L34.5557 6.84809C35.0488 5.46123 34.3242 3.93702 32.9373 3.44393C31.5499 2.95049 30.0261 3.67529 29.5331 5.06232L26.7317 12.9416C26.2384 14.3284 26.9631 15.8526 28.3501 16.3457Z" fill="white" fill-opacity="0.4"/>
<path d="M89.0282 26.6165C87.601 26.2571 86.1521 27.1222 85.7923 28.5494L83.9474 35.8682C82.486 34.9821 81.0805 33.9988 79.7502 32.9314C78.6922 32.0826 77.2599 31.8839 76.0119 32.4134C74.766 32.9421 73.9145 34.1077 73.7899 35.4558C73.5979 37.5341 73.4468 39.6367 73.339 41.7336C71.9173 41.0068 70.505 40.2284 69.1237 39.467C68.1043 38.9051 67.0504 38.3241 66.0003 37.7677C64.8584 37.1627 63.5133 37.1968 62.4022 37.8594C61.2903 38.5224 60.62 39.6905 60.6094 40.9841C60.5895 43.3875 60.5871 45.8268 60.6028 48.2343C60.6122 49.7004 61.8036 50.8824 63.2678 50.8824H63.2853C64.7573 50.873 65.943 49.6718 65.9334 48.2C65.924 46.7369 65.9212 45.2621 65.9251 43.7908C66.1348 43.9062 66.3434 44.0213 66.5507 44.1356C68.7384 45.3414 71.0006 46.5884 73.3502 47.6661C74.4717 48.1805 75.7678 48.101 76.8174 47.4534C77.8636 46.8076 78.5138 45.6889 78.5568 44.4604C78.6211 42.6177 78.7208 40.7614 78.8543 38.9124C80.2836 39.906 81.7724 40.8167 83.3045 41.6341C84.1924 42.1076 85.1906 42.1906 86.115 41.8677C87.1449 41.5083 87.9876 40.6747 88.4878 39.521C88.5452 39.3886 88.5918 39.252 88.627 39.1121L90.9613 29.8524C91.3209 28.4252 90.4556 26.9763 89.0282 26.6165Z" fill="white" fill-opacity="0.4"/>
<path d="M82.9481 16.0716C87.3862 16.0716 90.9839 12.4738 90.9839 8.03579C90.9839 3.59775 87.3862 0 82.9481 0C78.5101 0 74.9124 3.59775 74.9124 8.03579C74.9124 12.4738 78.5101 16.0716 82.9481 16.0716Z" fill="white" fill-opacity="0.4"/>
<path d="M49.7513 35.988C50.0724 35.988 50.3991 35.9295 50.7165 35.8062L58.5106 32.7763C59.8826 32.2429 60.5624 30.6984 60.0292 29.3263C59.4957 27.9543 57.9511 27.2745 56.5791 27.8077L48.785 30.8377C47.4131 31.3711 46.7332 32.9156 47.2665 34.2877C47.6764 35.3425 48.6839 35.988 49.7513 35.988Z" fill="white" fill-opacity="0.4"/>
<path d="M8.36304 69.7251L29.043 79.2446L42.2948 73.4446L13.1137 58.9092L8.36304 69.7251Z" fill="white" fill-opacity="0.4"/>
<path d="M15.3157 53.893L47.265 69.8074L20.2094 42.752L15.3157 53.893Z" fill="white" fill-opacity="0.4"/>
<path d="M28.9193 26.9772C27.7632 25.8212 26.2481 25.2432 24.7329 25.2432C23.2178 25.2432 21.7026 25.8212 20.5466 26.9772C18.2345 29.2893 18.2345 33.0378 20.5466 35.3499L56.1703 70.9737C57.3263 72.1297 58.8415 72.7077 60.3566 72.7077C61.8718 72.7077 63.3869 72.1297 64.543 70.9737C66.8551 68.6616 66.8551 64.913 64.543 62.601L28.9193 26.9772Z" fill="white" fill-opacity="0.4"/>
<path d="M0.161393 88.3935C-0.513291 89.9296 1.04948 91.4947 2.58649 90.8219L22.3339 82.1792L6.16087 74.7344L0.161393 88.3935Z" fill="white" fill-opacity="0.4"/>
</svg>
