<svg width="34" height="34" viewBox="0 0 34 34" fill="none" xmlns="http://www.w3.org/2000/svg">
<path d="M30.4141 9.62891H3.58594C1.9382 9.62891 0.597656 10.9694 0.597656 12.6172V24.5703C0.597656 26.2181 1.9382 27.5586 3.58594 27.5586H30.4141C32.0618 27.5586 33.4023 26.2181 33.4023 24.5703V12.6172C33.4023 10.9694 32.0618 9.62891 30.4141 9.62891ZM8.4828 20.1435C8.22813 20.1435 7.79304 20.1453 7.38577 20.1474V22.4448C7.38577 22.995 6.93979 23.4409 6.38968 23.4409C5.83957 23.4409 5.39358 22.995 5.39358 22.4448L5.37891 14.8782C5.37804 14.6135 5.48263 14.3593 5.6695 14.1718C5.85637 13.9842 6.1103 13.8789 6.375 13.8789H8.4828C10.233 13.8789 11.657 15.2841 11.657 17.0112C11.657 18.7384 10.233 20.1435 8.4828 20.1435ZM17.0338 23.2008C16.4405 23.2111 14.9565 23.2168 14.8937 23.217C14.8924 23.217 14.8911 23.217 14.8899 23.217C14.627 23.217 14.3748 23.1132 14.1882 22.9279C14.0006 22.7417 13.8948 22.4887 13.8938 22.2245C13.8937 22.1979 13.8789 14.8769 13.8789 14.8769C13.8784 14.6124 13.9831 14.3586 14.17 14.1714C14.3568 13.9842 14.6105 13.8789 14.875 13.8789H16.9555C19.3257 13.8789 20.9181 15.7553 20.9181 18.548C20.9181 21.2046 19.2845 23.1614 17.0338 23.2008ZM27.2412 17.4881C27.7913 17.4881 28.2373 17.9341 28.2373 18.4842C28.2373 19.0343 27.7913 19.4803 27.2412 19.4803H25.4336V22.3125C25.4336 22.8626 24.9876 23.3086 24.4375 23.3086C23.8874 23.3086 23.4414 22.8626 23.4414 22.3125V14.7981C23.4414 14.248 23.8874 13.802 24.4375 13.802H27.4831C28.0332 13.802 28.4792 14.248 28.4792 14.7981C28.4792 15.3482 28.0332 15.7942 27.4831 15.7942H25.4336V17.4881H27.2412Z" fill="#B1B1B1"/>
<path d="M16.9566 15.8711H15.874C15.8756 16.7702 15.881 20.3544 15.8838 21.2197C16.2983 21.217 16.7422 21.2133 17.0001 21.2088C18.3313 21.1856 18.9271 19.8557 18.9271 18.548C18.927 17.92 18.785 15.8711 16.9566 15.8711Z" fill="#B1B1B1"/>
<path d="M8.48225 15.8711H7.37354C7.37473 16.3144 7.37586 16.7859 7.37586 17.0112C7.37586 17.2745 7.37772 17.7312 7.37984 18.1553C7.78864 18.1532 8.22533 18.1514 8.48232 18.1514C9.12301 18.1514 9.66428 17.6293 9.66428 17.0112C9.66428 16.3932 9.12294 15.8711 8.48225 15.8711Z" fill="#B1B1B1"/>
<path d="M29.3818 7.63672C29.1509 7.00387 28.7923 6.41896 28.3175 5.91813L24.18 1.55384C23.2438 0.566379 21.9265 0 20.5657 0H7.30469C5.65695 0 4.31641 1.34054 4.31641 2.98828V7.63672H29.3818Z" fill="#B1B1B1"/>
<path d="M4.31641 29.5508V31.0117C4.31641 32.6595 5.65695 34 7.30469 34H26.6953C28.3431 34 29.6836 32.6595 29.6836 31.0117V29.5508H4.31641Z" fill="#B1B1B1"/>
</svg>
