<svg width="89" height="89" viewBox="0 0 89 89" fill="none" xmlns="http://www.w3.org/2000/svg">
    <path
        d="M43.097 27.3979V39.0038H48.3169V27.3979C50.7367 26.3764 52.4393 23.9796 52.4393 21.1923C52.4393 17.48 49.4192 14.46 45.7069 14.46C41.9947 14.46 38.9746 17.48 38.9746 21.1923C38.9746 23.9794 40.6774 26.3764 43.097 27.3979Z"
        fill="white" fill-opacity="0.4" />
    <path
        d="M0 44.2246V89.0002H89V44.2246H0ZM25.4336 78.0839H13.982V55.0828H19.2019V72.864H25.4335V78.0839H25.4336ZM35.9057 77.9319H30.6858V54.9156H35.9057V77.9319ZM51.4303 77.5661H46.8994L39.0695 54.882H44.587L49.1127 67.984L53.4626 54.882H59.0863L51.4303 77.5661ZM75.018 60.2168H67.5878V63.8138H74.4701V69.0338H67.5878V72.6307H75.0179V77.8506H62.3679V54.9968H75.0179V60.2168H75.018Z"
        fill="white" fill-opacity="0.4" />
    <path
        d="M54.2109 31.9525L57.902 35.6435L59.7474 33.7979C66.6988 26.8464 66.6988 15.5354 59.7474 8.58388L57.902 6.73828L54.2109 10.4293L56.0564 12.2749C60.9725 17.1912 60.9725 25.1906 56.0564 30.1069L54.2109 31.9525Z"
        fill="white" fill-opacity="0.4" />
    <path
        d="M31.671 33.8005L33.5164 35.6461L37.2074 31.9551L35.362 30.1097C32.9803 27.728 31.6689 24.5617 31.6689 21.1937C31.6689 17.8258 32.9803 14.6592 35.362 12.2777L37.2074 10.4322L33.5164 6.74121L31.671 8.58681C28.3034 11.9544 26.449 16.4315 26.449 21.1938C26.449 25.9558 28.3034 30.4331 31.671 33.8005Z"
        fill="white" fill-opacity="0.4" />
    <path
        d="M64.5773 36.8493L62.7319 38.6947L66.4227 42.3859L68.2681 40.5403C78.9363 29.8722 78.9363 12.5138 68.2681 1.8456L66.4227 0L62.7317 3.69102L64.5771 5.53644C73.21 14.1697 73.21 28.2164 64.5773 36.8493Z"
        fill="white" fill-opacity="0.4" />
    <path
        d="M24.9956 42.3859L28.6866 38.6949L26.841 36.8493C22.6591 32.6673 20.3559 27.1072 20.3559 21.193C20.3559 15.2788 22.6591 9.71866 26.841 5.53662L28.6864 3.69119L24.9956 0L23.1502 1.8456C17.9821 7.01351 15.136 13.8845 15.136 21.193C15.136 28.5014 17.9821 35.3724 23.1502 40.5403L24.9956 42.3859Z"
        fill="white" fill-opacity="0.4" />
</svg>
