<svg width="21" height="21" viewBox="0 0 21 21" fill="none" xmlns="http://www.w3.org/2000/svg">
<path d="M10.4521 0.0835327C9.78911 -0.0939468 9.11779 0.0222537 8.58355 0.329264C7.79525 0.785288 7.32421 1.63425 7.35547 2.54511L7.39956 3.85523L8.60677 3.15827V3.1572L10.8795 1.84455C10.8797 1.84491 10.8801 1.84516 10.8803 1.84553L11.9461 1.23011C11.9459 1.22975 11.9455 1.22938 11.9453 1.22901L11.949 1.22692C11.6443 0.704649 11.0861 0.253178 10.4521 0.0835327Z" fill="black"/>
<path d="M19.6861 20.3855C19.6861 20.2591 19.6861 12.1788 19.6861 12.3052C19.4979 12.3052 13.2652 12.3052 13.5336 12.3052V21.0007H19.0708C19.4109 21.0007 19.6861 20.7255 19.6861 20.3855Z" fill="black"/>
<path d="M9.08062 8.56352L10.1512 7.94827C10.0786 7.82382 8.17292 4.55516 8.2931 4.76131L7.23486 5.37656C7.30709 5.50121 9.20022 8.77 9.08062 8.56352Z" fill="black"/>
<path d="M0.0852471 10.2117C0.156534 10.3349 1.72264 13.0411 1.62337 12.8696L8.00968 9.19035C7.9377 9.06557 6.04293 5.78132 6.16393 5.99108L0.306737 9.37496C0.011458 9.53497 -0.0870232 9.91642 0.0852471 10.2117Z" fill="black"/>
<path d="M16.07 0.983869C15.9839 0.836209 15.8485 0.737769 15.6886 0.700895C15.5409 0.651634 15.3686 0.676244 15.221 0.76242L9.36377 4.1463C9.43596 4.27095 11.3291 7.53974 11.2095 7.33326L17.6081 3.64175C17.5368 3.51854 15.9707 0.812337 16.07 0.983869Z" fill="black"/>
<path d="M11.0737 12.3047H12.3042V21.0002H11.0737V12.3047Z" fill="black"/>
<path d="M4.30519 21.0002H9.84245V12.3047H3.68994V20.385C3.68994 20.7248 3.96545 21.0002 4.30519 21.0002Z" fill="black"/>
<path d="M20.3853 6.15042H19.7701V5.53517C19.7701 5.1951 19.4949 4.91992 19.1548 4.91992C18.8148 4.91992 18.5396 5.1951 18.5396 5.53517V6.15042H17.9243C17.5843 6.15042 17.3091 6.42561 17.3091 6.76568C17.3091 7.10575 17.5843 7.38093 17.9243 7.38093H18.5396V7.99618C18.5396 8.33625 18.8148 8.61143 19.1548 8.61143C19.4949 8.61143 19.7701 8.33625 19.7701 7.99618V7.38093H20.3853C20.7254 7.38093 21.0006 7.10575 21.0006 6.76568C21.0006 6.42561 20.7254 6.15042 20.3853 6.15042Z" fill="black"/>
<path d="M16.6102 8.61332H15.9949V7.99806C15.9949 7.65799 15.7198 7.38281 15.3797 7.38281C15.0396 7.38281 14.7644 7.65799 14.7644 7.99806V8.61332H14.1492C13.8091 8.61332 13.5339 8.8885 13.5339 9.22857C13.5339 9.56864 13.8091 9.84382 14.1492 9.84382H14.7644V10.4591C14.7644 10.7991 15.0396 11.0743 15.3797 11.0743C15.7198 11.0743 15.9949 10.7991 15.9949 10.4591V9.84382H16.6102C16.9503 9.84382 17.2254 9.56864 17.2254 9.22857C17.2254 8.8885 16.9503 8.61332 16.6102 8.61332Z" fill="black"/>
<path d="M3.25603 3.40646C2.37483 3.91535 1.92721 4.89118 2.04489 5.84343C2.06642 6.01927 2.18402 6.47172 2.35539 6.76864L3.42117 6.15323C3.42117 6.15314 3.42108 6.15314 3.42108 6.15306L5.69431 4.84016L5.69485 4.84044L6.90258 4.14312C5.60572 3.37081 5.66572 3.27725 4.94477 3.13964C4.33444 3.02225 3.67633 3.16372 3.25603 3.40646Z" fill="black"/>
</svg>
