<svg width="25" height="27" viewBox="0 0 25 27" fill="none" xmlns="http://www.w3.org/2000/svg">
<path d="M0.71875 15.7656H24.2812V26.6406H0.71875V15.7656Z" fill="#FBB540"/>
<path d="M0.71875 19.3906H24.2812V23.0156H0.71875V19.3906Z" fill="#EA9D2D"/>
<path d="M4.34375 11.2344H6.60938V15.7656H4.34375V11.2344Z" fill="#683B0D"/>
<path d="M3.4375 2.05859L3.56285 2.14214C4.14239 2.52851 4.57662 3.09703 4.79688 3.75781C5.01713 3.09703 5.45136 2.52851 6.0309 2.14214L6.15625 2.05859L6.0309 1.97505C5.45136 1.58868 5.01713 1.02016 4.79688 0.359375C4.57662 1.02016 4.14239 1.58868 3.56285 1.97505L3.4375 2.05859Z" fill="#FBB540"/>
<path d="M0.71875 5.00391L0.844096 5.08745C1.42364 5.47382 1.85787 6.04234 2.07812 6.70312C2.29838 6.04234 2.73261 5.47382 3.31215 5.08745L3.4375 5.00391L3.31215 4.92036C2.73261 4.53399 2.29838 3.96547 2.07812 3.30469C1.85787 3.96547 1.42364 4.53399 0.844096 4.92036L0.71875 5.00391Z" fill="#FBB540"/>
<path d="M11.1836 2.4199L10.6875 2.17188V3.87738C10.6875 4.03185 10.648 4.18376 10.5728 4.31869C10.4976 4.45361 10.3891 4.56706 10.2577 4.64827C10.1263 4.72949 9.97632 4.77577 9.822 4.78271C9.66769 4.78966 9.51415 4.75704 9.37599 4.68796C9.22545 4.6127 9.09884 4.497 9.01036 4.35383C8.92187 4.21067 8.875 4.04569 8.875 3.87738V2.17188L8.37894 2.4199C7.98337 2.61769 7.65069 2.92173 7.41818 3.29794C7.18567 3.67415 7.06251 4.10767 7.0625 4.54993C7.06251 5.06521 7.22964 5.56658 7.53879 5.9788L8.42188 7.15625V15.7656H11.1406V7.15625L12.0237 5.9788C12.3329 5.56658 12.5 5.06521 12.5 4.54993C12.5 4.10767 12.3768 3.67415 12.1443 3.29794C11.9118 2.92173 11.5791 2.61769 11.1836 2.4199Z" fill="#CBCBCB"/>
<path d="M3.89062 8.51562H6.60938V11.2344H3.89062V8.51562Z" fill="#0BAFEA"/>
<path d="M0.265625 8.51562H2.07812V11.2344H0.265625V8.51562Z" fill="#0BAFEA"/>
<path d="M3.89062 8.96875L2.07812 8.51562V11.2344L3.89062 10.7812V8.96875Z" fill="#0A9ACD"/>
<path d="M6.60938 8.96875H8.42188L9.78125 11.6875H8.98199C8.67753 11.6875 8.37908 11.6027 8.12008 11.4427C7.86109 11.2826 7.65178 11.0536 7.51562 10.7812H6.60938V8.96875Z" fill="#0A9ACD"/>
<path d="M2.98438 18.0312H2.53125C2.41107 18.0312 2.29582 17.9835 2.21084 17.8985C2.12586 17.8136 2.07812 17.6983 2.07812 17.5781C2.07812 17.4579 2.12586 17.3427 2.21084 17.2577C2.29582 17.1727 2.41107 17.125 2.53125 17.125H2.98438C3.10455 17.125 3.21981 17.1727 3.30478 17.2577C3.38976 17.3427 3.4375 17.4579 3.4375 17.5781C3.4375 17.6983 3.38976 17.8136 3.30478 17.8985C3.21981 17.9835 3.10455 18.0312 2.98438 18.0312Z" fill="#C38325"/>
<path d="M2.98438 21.6562H2.53125C2.41107 21.6562 2.29582 21.6085 2.21084 21.5235C2.12586 21.4386 2.07812 21.3233 2.07812 21.2031C2.07812 21.0829 2.12586 20.9677 2.21084 20.8827C2.29582 20.7977 2.41107 20.75 2.53125 20.75H2.98438C3.10455 20.75 3.21981 20.7977 3.30478 20.8827C3.38976 20.9677 3.4375 21.0829 3.4375 21.2031C3.4375 21.3233 3.38976 21.4386 3.30478 21.5235C3.21981 21.6085 3.10455 21.6562 2.98438 21.6562Z" fill="#C38325"/>
<path d="M2.98438 25.2812H2.53125C2.41107 25.2812 2.29582 25.2335 2.21084 25.1485C2.12586 25.0636 2.07812 24.9483 2.07812 24.8281C2.07812 24.7079 2.12586 24.5927 2.21084 24.5077C2.29582 24.4227 2.41107 24.375 2.53125 24.375H2.98438C3.10455 24.375 3.21981 24.4227 3.30478 24.5077C3.38976 24.5927 3.4375 24.7079 3.4375 24.8281C3.4375 24.9483 3.38976 25.0636 3.30478 25.1485C3.21981 25.2335 3.10455 25.2812 2.98438 25.2812Z" fill="#C38325"/>
<path d="M19.2969 26.6406C22.2999 26.6406 24.7344 24.2062 24.7344 21.2031C24.7344 18.2001 22.2999 15.7656 19.2969 15.7656C16.2938 15.7656 13.8594 18.2001 13.8594 21.2031C13.8594 24.2062 16.2938 26.6406 19.2969 26.6406Z" fill="#0A9ACD"/>
<path d="M19.2969 25.7344C21.7994 25.7344 23.8281 23.7057 23.8281 21.2031C23.8281 18.7006 21.7994 16.6719 19.2969 16.6719C16.7943 16.6719 14.7656 18.7006 14.7656 21.2031C14.7656 23.7057 16.7943 25.7344 19.2969 25.7344Z" fill="#6EE7F5"/>
<path d="M16.5781 20.2969H22.0156V23.9219H16.5781V20.2969Z" fill="#EAEAE8"/>
<path d="M19.2969 18.0312L16.5781 20.2969H22.0156L19.2969 18.0312Z" fill="#D32B39"/>
<path d="M18.3906 22.1094H20.2031V23.9219H18.3906V22.1094Z" fill="#D32B39"/>
<path d="M15.6719 6.25C15.0735 6.25016 14.4919 6.4477 14.0173 6.81202C13.5426 7.17633 13.2014 7.68706 13.0465 8.26503C12.8916 8.843 12.9318 9.45592 13.1606 10.0088C13.3895 10.5616 13.7944 11.0235 14.3125 11.3228V15.7656H17.0313V11.3228C17.5494 11.0235 17.9543 10.5616 18.1832 10.0088C18.412 9.45592 18.4522 8.843 18.2973 8.26503C18.1424 7.68706 17.8012 7.17633 17.3265 6.81202C16.8519 6.4477 16.2703 6.25016 15.6719 6.25ZM16.1785 9.84623H15.1653L14.6587 8.96875L15.1653 8.09127H16.1785L16.6851 8.96875L16.1785 9.84623Z" fill="#D32B39"/>
<path d="M20.2031 2.17188L19.75 3.98438L20.2031 5.34375V11.2344H22.0156V5.34375L22.4688 3.98438L22.0156 2.17188H20.2031Z" fill="#CBCBCB"/>
<path d="M22.4688 3.98438H19.75L20.2031 2.17188H22.0156L22.4688 3.98438Z" fill="#EAEAE8"/>
<path d="M22.4688 11.2344H19.75C19.2495 11.2344 18.8438 11.6401 18.8438 12.1406C18.8438 12.6411 19.2495 13.0469 19.75 13.0469H22.4688C22.9693 13.0469 23.375 12.6411 23.375 12.1406C23.375 11.6401 22.9693 11.2344 22.4688 11.2344Z" fill="#02A437"/>
<path d="M19.75 13.0469H22.4688V15.7656H19.75V13.0469Z" fill="#02A437"/>
<path d="M19.75 13.0469H22.4688V13.9531H19.75V13.0469Z" fill="#027E2A"/>
<path d="M4.34375 11.2344H6.60938V12.1406H4.34375V11.2344Z" fill="#533222"/>
</svg>
