<svg width="26" height="26" viewBox="0 0 26 26" fill="none" xmlns="http://www.w3.org/2000/svg">
<path d="M20.6172 16.8594C19.112 16.8594 17.7856 17.5998 16.9525 18.7258L9.74949 15.0375C9.86908 14.6299 9.95312 14.2075 9.95312 13.7617C9.95312 13.1571 9.82917 12.5823 9.61502 12.0536L17.1532 7.51745C17.9922 8.502 19.2252 9.14062 20.6172 9.14062C23.1374 9.14062 25.1875 7.09054 25.1875 4.57031C25.1875 2.05009 23.1374 0 20.6172 0C18.097 0 16.0469 2.05009 16.0469 4.57031C16.0469 5.1511 16.1665 5.70202 16.3649 6.21349L8.8042 10.763C7.966 9.80769 6.75071 9.19141 5.38281 9.19141C2.86259 9.19141 0.8125 11.2415 0.8125 13.7617C0.8125 16.2819 2.86259 18.332 5.38281 18.332C6.91285 18.332 8.26165 17.5699 9.09162 16.4122L16.2709 20.0885C16.1386 20.5154 16.0469 20.96 16.0469 21.4297C16.0469 23.9499 18.097 26 20.6172 26C23.1374 26 25.1875 23.9499 25.1875 21.4297C25.1875 18.9095 23.1374 16.8594 20.6172 16.8594Z" fill="black"/>
</svg>
