<svg width="33" height="33" viewBox="0 0 33 33" fill="none" xmlns="http://www.w3.org/2000/svg">
<path d="M6.76953 8.25V19.5938C6.76953 20.1274 7.20266 20.5605 7.73633 20.5605H25.2676C25.8012 20.5605 26.2344 20.1274 26.2344 19.5938V8.25C26.2344 7.71633 25.8012 7.2832 25.2676 7.2832H7.73633C7.20266 7.2832 6.76953 7.71633 6.76953 8.25Z" fill="#F4F4F6"/>
<path d="M6.76953 8.25V19.5938C6.76953 20.1274 7.20266 20.5605 7.73633 20.5605H16.502V7.2832H7.73633C7.20266 7.2832 6.76953 7.71633 6.76953 8.25Z" fill="#E4E4FF"/>
<path d="M10.8945 20.625V23.7188C10.8945 24.2524 11.3277 24.6855 11.8613 24.6855H21.1426C21.6762 24.6855 22.1094 24.2524 22.1094 23.7188V20.625C22.1094 17.5332 19.5938 15.0176 16.502 15.0176C13.4101 15.0176 10.8945 17.5332 10.8945 20.625Z" fill="#FF5E90"/>
<path d="M10.8945 20.625V23.7188C10.8945 24.2524 11.3277 24.6855 11.8613 24.6855H16.502V15.0176C13.4101 15.0176 10.8945 17.5332 10.8945 20.625Z" fill="#D01273"/>
<path d="M16.502 16.9512C14.8289 16.9512 13.4727 15.5949 13.4727 13.9219C13.4727 12.2488 14.8289 10.8926 16.502 10.8926C18.175 10.8926 19.5312 12.2488 19.5312 13.9219C19.5312 15.5949 18.175 16.9512 16.502 16.9512Z" fill="#FFCBBC"/>
<path d="M13.4727 13.9219C13.4727 15.5925 14.8313 16.9512 16.502 16.9512V10.8926C14.8313 10.8926 13.4727 12.2513 13.4727 13.9219Z" fill="#F9A58B"/>
<path d="M25.2676 20.5605C25.8015 20.5605 26.2344 20.1277 26.2344 19.5938V8.25C26.2344 7.71607 25.8015 7.2832 25.2676 7.2832C24.7336 7.2832 24.3008 7.71607 24.3008 8.25V19.5938C24.3008 20.1277 24.7336 20.5605 25.2676 20.5605Z" fill="#E4E4FF"/>
<path d="M7.73633 20.5605C8.27026 20.5605 8.70312 20.1277 8.70312 19.5938V8.25C8.70312 7.71607 8.27026 7.2832 7.73633 7.2832C7.2024 7.2832 6.76953 7.71607 6.76953 8.25V19.5938C6.76953 20.1277 7.2024 20.5605 7.73633 20.5605Z" fill="#B4B9F1"/>
<path d="M5.22266 2.90039V8.25C5.22266 8.78367 5.65578 9.2168 6.18945 9.2168H26.8145C27.3481 9.2168 27.7812 8.78367 27.7812 8.25V2.90039C27.7812 1.30131 26.4799 0 24.8809 0H8.12305C6.52396 0 5.22266 1.30131 5.22266 2.90039Z" fill="#ACCEFF"/>
<path d="M5.22266 2.90039V8.25C5.22266 8.78367 5.65578 9.2168 6.18945 9.2168H16.502V0H8.12305C6.52396 0 5.22266 1.30131 5.22266 2.90039Z" fill="#989DEC"/>
<path d="M12.4414 4.64062C12.4414 5.1743 12.8745 5.60742 13.4082 5.60742H19.5957C20.1294 5.60742 20.5625 5.1743 20.5625 4.64062C20.5625 4.10695 20.1294 3.67383 19.5957 3.67383H13.4082C12.8745 3.67383 12.4414 4.10695 12.4414 4.64062Z" fill="#FFDD54"/>
<path d="M12.4414 4.64062C12.4414 5.1743 12.8745 5.60742 13.4082 5.60742H16.502V3.67383H13.4082C12.8745 3.67383 12.4414 4.10695 12.4414 4.64062Z" fill="#FFB454"/>
<path d="M8.31641 19.5938V32.0332C8.31641 32.5669 8.74953 33 9.2832 33H23.7207C24.2544 33 24.6875 32.5669 24.6875 32.0332V19.5938C24.6875 19.0601 24.2544 18.627 23.7207 18.627H9.2832C8.74953 18.627 8.31641 19.0601 8.31641 19.5938Z" fill="#ACCEFF"/>
<path d="M8.31641 19.5938V32.0332C8.31641 32.5669 8.74953 33 9.2832 33H16.502V18.627H9.2832C8.74953 18.627 8.31641 19.0601 8.31641 19.5938Z" fill="#989DEC"/>
<path d="M5.22266 19.5938C5.22266 20.1274 5.65578 20.5605 6.18945 20.5605H26.8145C27.3481 20.5605 27.7812 20.1274 27.7812 19.5938C27.7812 19.0601 27.3481 18.627 26.8145 18.627H6.18945C5.65578 18.627 5.22266 19.0601 5.22266 19.5938Z" fill="#989DEC"/>
<path d="M5.22266 19.5938C5.22266 20.1274 5.65578 20.5605 6.18945 20.5605H16.502V18.627H6.18945C5.65578 18.627 5.22266 19.0601 5.22266 19.5938Z" fill="#5E69E2"/>
<path d="M12.4414 23.7188V27.8438C12.4414 28.3774 12.8745 28.8105 13.4082 28.8105H19.5957C20.1294 28.8105 20.5625 28.3774 20.5625 27.8438V23.7188C20.5625 23.1851 20.1294 22.752 19.5957 22.752H13.4082C12.8745 22.752 12.4414 23.1851 12.4414 23.7188Z" fill="#FFDD54"/>
<path d="M12.4414 23.7188V27.8438C12.4414 28.3774 12.8745 28.8105 13.4082 28.8105H16.502V22.752H13.4082C12.8745 22.752 12.4414 23.1851 12.4414 23.7188Z" fill="#FFB454"/>
<path d="M0.0664062 32.0332C0.0664062 32.5669 0.499531 33 1.0332 33H31.9707C32.5044 33 32.9375 32.5669 32.9375 32.0332C32.9375 31.4995 32.5044 31.0664 31.9707 31.0664H1.0332C0.499531 31.0664 0.0664062 31.4995 0.0664062 32.0332Z" fill="#8078BE"/>
<path d="M0.00195312 32.0332C0.00195312 32.5669 0.435078 33 0.96875 33H16.4375V31.0664H0.96875C0.435078 31.0664 0.00195312 31.4995 0.00195312 32.0332Z" fill="#524798"/>
</svg>
