<svg width="345" height="345" viewBox="0 0 345 345" fill="none" xmlns="http://www.w3.org/2000/svg">
<g style="mix-blend-mode:luminosity">
<path d="M46.8719 115.291C46.8719 115.291 27.6347 164.971 54.6689 214.996C81.7031 265.021 137.386 291.448 181.953 314.046C226.52 336.643 272.799 325.638 294.789 288.626C316.779 251.614 286.619 225.194 286.578 172.416C286.537 119.638 294.478 105.666 265.878 61.0779C237.277 16.4901 167.167 6.61617 114.147 39.6879C61.1273 72.7596 46.8719 115.291 46.8719 115.291Z" fill="white"/>
<path opacity="0.7" d="M42.2699 127.277C68.3657 101.188 90.4664 123.075 99.7814 88.0438C120.813 8.90765 208.042 9.65975 219.51 65.9707C240.176 167.401 330.186 102.989 329.517 175.632C328.827 253.195 271.764 313.632 169.437 319.642C77.7566 325.059 -0.972449 170.506 42.2699 127.277Z" fill="#DADADA"/>
<path d="M107.019 82.8004C106.853 81.4204 107.481 80.5303 108.827 80.3716C110.172 80.2129 110.987 80.9098 111.152 82.3174L111.683 86.8093C111.842 88.1893 111.214 89.0794 109.869 89.2381C108.523 89.3968 107.709 88.6999 107.543 87.2923L107.019 82.8004ZM108.917 87.2302C108.992 87.8374 109.275 88.0582 109.724 88.0099C110.172 87.9616 110.414 87.6718 110.324 87.0646L109.779 82.3795C109.703 81.7723 109.4 81.5515 108.972 81.6067C108.544 81.6619 108.282 81.9379 108.371 82.5451L108.917 87.2302ZM114.23 79.8403L115.499 79.6885L111.711 93.9853L110.441 94.1371L114.23 79.8403ZM114.374 87.0094C114.209 85.6294 114.844 84.7324 116.189 84.5806C117.535 84.4288 118.349 85.1188 118.514 86.5195L119.039 91.0114C119.204 92.3914 118.577 93.2815 117.224 93.4402C115.872 93.5989 115.064 92.902 114.899 91.4944L114.374 87.0094ZM116.279 91.4323C116.348 92.0395 116.631 92.2672 117.079 92.212C117.528 92.1568 117.769 91.8739 117.686 91.2667L117.134 86.5816C117.065 85.9813 116.762 85.7605 116.334 85.8088C115.906 85.8571 115.644 86.1469 115.734 86.7472L116.279 91.4323Z" fill="#263238"/>
<path d="M122.241 96.5448L106.26 98.4147C105.897 98.4575 105.532 98.3544 105.245 98.1279C104.957 97.9015 104.772 97.5704 104.729 97.2072L102.81 80.73C102.777 80.4234 102.812 80.1131 102.913 79.8218C103.015 79.5305 103.18 79.2656 103.397 79.0464L110.062 72.4845C110.383 72.1662 110.802 71.9647 111.251 71.9121C111.7 71.8596 112.154 71.9591 112.539 72.1947L120.537 77.0247C120.8 77.1847 121.023 77.4027 121.19 77.6623C121.356 77.9218 121.461 78.2158 121.496 78.522L123.428 94.9992C123.475 95.3614 123.376 95.7276 123.154 96.0173C122.931 96.307 122.603 96.4967 122.241 96.5448V96.5448Z" stroke="#263238" stroke-linecap="round" stroke-linejoin="round"/>
<path d="M112.58 74.3119C112.605 74.5144 112.569 74.7196 112.477 74.9015C112.385 75.0835 112.241 75.2339 112.063 75.3337C111.885 75.4334 111.681 75.4781 111.478 75.4619C111.275 75.4457 111.081 75.3694 110.921 75.2427C110.761 75.116 110.643 74.9447 110.581 74.7504C110.519 74.5562 110.516 74.3479 110.572 74.1519C110.629 73.956 110.742 73.7813 110.898 73.6501C111.054 73.5188 111.246 73.437 111.449 73.415C111.718 73.3839 111.988 73.4609 112.2 73.6291C112.412 73.7973 112.549 74.043 112.58 74.3119V74.3119Z" stroke="#263238" stroke-linecap="round" stroke-linejoin="round"/>
<path d="M111.566 62.7891C111.566 62.7891 114.684 74.7951 111.566 74.4501" stroke="#263238" stroke-linecap="round" stroke-linejoin="round"/>
<path d="M110.773 72.0364C111.38 68.6968 114.437 63.0664 114.437 63.0664" stroke="#263238" stroke-linecap="round" stroke-linejoin="round"/>
<path d="M111.566 74.4298C111.384 74.4181 111.21 74.3501 111.068 74.2351C110.926 74.1202 110.823 73.964 110.773 73.7881" stroke="#263238" stroke-linecap="round" stroke-linejoin="round"/>
<path d="M125.484 67.2266C128.281 69.487 130.424 72.4524 131.694 75.8171" stroke="#263238" stroke-linecap="round" stroke-linejoin="round"/>
<path d="M93.1843 77.88C93.9861 74.7954 95.505 71.9438 97.6175 69.5573C99.7299 67.1709 102.376 65.3171 105.341 64.1469C108.305 62.9767 111.504 62.5232 114.677 62.8233C117.85 63.1235 120.907 64.1687 123.6 65.874" stroke="#263238" stroke-linecap="round" stroke-linejoin="round"/>
<path d="M99.4843 98.2218C95.8358 95.0543 93.4481 90.6804 92.7568 85.8984" stroke="#263238" stroke-linecap="round" stroke-linejoin="round"/>
<path d="M111.98 103.189C108.289 103.042 104.709 101.884 101.63 99.8428" stroke="#263238" stroke-linecap="round" stroke-linejoin="round"/>
<path d="M132.79 80.0391C133.568 85.3487 132.205 90.7498 129.001 95.0547C125.797 99.3596 121.015 102.216 115.706 102.995" stroke="#263238" stroke-linecap="round" stroke-linejoin="round"/>
<path d="M61.5546 147.368L86.9594 152.293L84.0005 167.555C83.9428 167.852 83.7692 168.115 83.5179 168.285C83.2665 168.454 82.9581 168.517 82.6604 168.46L59.4938 163.968C59.1961 163.91 58.9335 163.737 58.7638 163.485C58.5941 163.234 58.5312 162.926 58.5889 162.628L61.5479 147.366L61.5546 147.368Z" stroke="#263238" stroke-width="0.998248" stroke-linecap="round" stroke-linejoin="round"/>
<path d="M87.8431 152.641L61.1011 147.486L61.8846 143.421C61.9421 143.123 62.1158 142.859 62.3674 142.689C62.6189 142.519 62.9278 142.456 63.2261 142.513L87.7459 147.239C88.0346 147.302 88.2879 147.474 88.4528 147.719C88.6177 147.965 88.6814 148.264 88.6306 148.555L87.8471 152.62L87.8431 152.641Z" stroke="#263238" stroke-linecap="round" stroke-linejoin="round"/>
<path d="M77.3268 145.209L73.6885 144.508L69.5199 166.135L73.1582 166.836L77.3268 145.209Z" stroke="#263238" stroke-linecap="round" stroke-linejoin="round"/>
<path d="M75.5068 144.858C75.5068 144.858 81.8203 140.249 84.739 141.642C87.6577 143.036 86.2156 146.921 84.739 146.638" stroke="#263238" stroke-linecap="round" stroke-linejoin="round"/>
<path d="M78.0043 145.335C78.0043 145.335 83.1379 142.782 83.8831 143.955C84.6283 145.128 82.4134 146.211 80.7091 145.88" stroke="#263238" stroke-linecap="round" stroke-linejoin="round"/>
<path d="M75.6793 144.541C75.6793 144.541 78.3427 139.711 77.9977 138.151H79.771C79.771 138.151 80.3506 139.987 78.2806 143.126" stroke="#263238" stroke-linecap="round" stroke-linejoin="round"/>
<path d="M75.5063 144.859C75.5063 144.859 71.3663 138.235 68.1302 138.448C64.8941 138.662 64.8044 142.795 66.2741 143.078" stroke="#263238" stroke-linecap="round" stroke-linejoin="round"/>
<path d="M73.0087 144.375C73.0087 144.375 69.193 140.09 68.0683 140.891C66.9436 141.691 68.5996 143.526 70.3039 143.851" stroke="#263238" stroke-linecap="round" stroke-linejoin="round"/>
<path d="M75.4655 144.499C75.4655 144.499 74.7755 139.014 75.6932 137.71L74.0372 137.02C74.0372 137.02 72.8228 138.51 73.5818 142.195" stroke="#263238" stroke-linecap="round" stroke-linejoin="round"/>
<path d="M94.2953 137.103C97.1399 140.697 98.9761 144.984 99.6152 149.523" stroke="#263238" stroke-linecap="round" stroke-linejoin="round"/>
<path d="M51.0599 141.243C52.9298 137.628 55.6271 134.506 58.9321 132.131C62.2372 129.756 66.0565 128.195 70.079 127.575C74.1016 126.956 78.2135 127.296 82.08 128.566C85.9464 129.837 89.4581 132.003 92.3288 134.888" stroke="#263238" stroke-linecap="round" stroke-linejoin="round"/>
<path d="M53.1297 168.36C49.4838 163.382 47.7455 157.261 48.2307 151.11" stroke="#263238" stroke-linecap="round" stroke-linejoin="round"/>
<path d="M67.3225 178.068C62.7561 176.848 58.614 174.394 55.351 170.975" stroke="#263238" stroke-linecap="round" stroke-linejoin="round"/>
<path d="M99.7812 155.112C99.2509 161.944 96.0285 168.286 90.8229 172.742C85.6172 177.199 78.8546 179.405 72.0225 178.876" stroke="#263238" stroke-linecap="round" stroke-linejoin="round"/>
<path d="M201.984 86.3131L199.817 85.2091C200.139 84.2577 200.247 83.2471 200.135 82.249C200.825 82.5802 201.556 82.939 202.205 83.2357C202.17 84.1258 202.115 85.1746 201.984 86.3131Z" stroke="#263238" stroke-linecap="round" stroke-linejoin="round"/>
<path d="M205.137 84.6568C205.824 85.0068 206.559 85.2533 207.318 85.3882C208.112 89.6307 207.489 94.0169 205.544 97.8702C204.985 98.9604 199.113 95.952 199.665 94.8618C200.924 92.1665 201.708 89.2745 201.984 86.3128C202.115 85.1743 202.191 84.1255 202.225 83.2354C203.454 83.815 204.53 84.3463 205.137 84.6568Z" stroke="#263238" stroke-linecap="round" stroke-linejoin="round"/>
<path d="M212.14 70.9741C213.779 71.8121 215.062 73.2101 215.757 74.914C216.452 76.618 216.513 78.5148 215.929 80.2597C215.344 82.0046 214.152 83.4818 212.571 84.4229C210.99 85.364 209.123 85.7065 207.31 85.3881C206.552 85.2533 205.817 85.0068 205.13 84.6568C204.523 84.3463 203.446 83.8149 202.218 83.2353C201.528 82.911 200.838 82.5798 200.148 82.2486C198.451 81.4689 196.809 80.7513 195.96 80.4753L203.384 65.9854C204.93 67.117 210.402 70.084 212.14 70.9741Z" stroke="#263238" stroke-linecap="round" stroke-linejoin="round"/>
<path d="M196.174 59.1272C198.254 61.7222 200.675 64.0246 203.371 65.972L195.946 80.462C192.787 79.4272 189.503 78.8214 186.183 78.6611L183.305 78.5093L194.345 56.8916L196.174 59.1272Z" stroke="#263238" stroke-linecap="round" stroke-linejoin="round"/>
<path d="M179.959 79.1102L192.904 53.8217C193.004 53.6308 193.175 53.4869 193.38 53.4211C193.585 53.3552 193.808 53.3728 194.001 53.4698L194.953 53.9597C195.145 54.0586 195.291 54.2292 195.358 54.4346C195.425 54.64 195.408 54.8636 195.312 55.0568L194.366 56.8991L183.326 78.5168L182.388 80.3591C182.339 80.4543 182.272 80.539 182.19 80.6082C182.109 80.6774 182.014 80.7298 181.912 80.7625C181.811 80.7952 181.703 80.8075 181.597 80.7986C181.49 80.7898 181.386 80.76 181.291 80.711L180.332 80.2211C180.232 80.1749 180.143 80.109 180.07 80.0272C179.997 79.9455 179.942 79.8497 179.907 79.7458C179.872 79.6418 179.859 79.5319 179.868 79.4226C179.877 79.3133 179.908 79.2071 179.959 79.1102V79.1102Z" stroke="#263238" stroke-linecap="round" stroke-linejoin="round"/>
<path d="M180.346 63.343L175.358 60.79" stroke="#263238" stroke-linecap="round" stroke-linejoin="round"/>
<path d="M186.19 55.3392L183.044 49.833" stroke="#263238" stroke-linecap="round" stroke-linejoin="round"/>
<path d="M177.275 72.7607L170.975 73.43" stroke="#263238" stroke-linecap="round" stroke-linejoin="round"/>
<path d="M218.979 48.9423C214.624 44.9081 209.268 42.1135 203.468 40.8486" stroke="#263238" stroke-linecap="round" stroke-linejoin="round"/>
<path d="M209.319 104.191C214.158 102.143 218.445 98.9819 221.831 94.9643C225.218 90.9467 227.608 86.1864 228.808 81.0706C230.007 75.9549 229.982 70.6282 228.735 65.5239C227.487 60.4197 225.052 55.682 221.628 51.6963" stroke="#263238" stroke-linecap="round" stroke-linejoin="round"/>
<path d="M174.605 98.8027C180.649 103.997 188.358 106.848 196.327 106.834" stroke="#263238" stroke-linecap="round" stroke-linejoin="round"/>
<path d="M163.53 79.585C164.645 85.5898 167.393 91.1714 171.472 95.7172" stroke="#263238" stroke-linecap="round" stroke-linejoin="round"/>
<path d="M196.326 40.0762C187.473 40.0762 178.982 43.5932 172.721 49.8536C166.461 56.114 162.944 64.6049 162.944 73.4584" stroke="#263238" stroke-linecap="round" stroke-linejoin="round"/>
<path d="M137.206 127.201C134.405 124.697 131.5 125.821 130.016 126.67C129.72 124.973 128.636 122.047 124.938 121.55C120.895 121.012 117.583 124.952 118.666 130.444C119.453 134.398 121.978 138.034 123.33 139.725C123.489 139.932 123.641 140.111 123.765 140.256H124.455C126.635 140.166 131.024 139.732 134.529 137.758C139.38 134.998 140.242 129.92 137.206 127.201Z" stroke="#263238" stroke-linecap="round" stroke-linejoin="round"/>
<path d="M121.474 142.83C121.474 142.83 121.288 143.168 121.033 143.762" stroke="#263238" stroke-linecap="round" stroke-linejoin="round"/>
<path d="M120.329 145.687C119.225 149.295 118.466 155.478 124.345 159.224C138.876 168.491 143.768 146.632 132.625 148.598C124.973 149.978 133.066 170.202 145.045 166.124" stroke="#263238" stroke-linecap="round" stroke-linejoin="round" stroke-dasharray="2.98 2.98"/>
<path d="M146.045 165.744C146.349 165.606 146.659 165.455 146.97 165.289" stroke="#263238" stroke-linecap="round" stroke-linejoin="round"/>
<path d="M128.126 299.294C128.126 299.294 119.922 304.876 116.617 304.503C116.254 304.484 115.909 304.338 115.644 304.089C113.491 301.867 111.759 297.962 111.759 297.962C111.759 297.962 112.787 296.541 115.955 300.315L117.962 298.473L113.822 294.291C113.822 294.291 116.162 292.435 120.136 294.802C119.998 294.512 117.438 288.937 119.37 281.347L109.71 272.025L118.28 264.559L118.97 263.979C118.97 263.979 119.508 264.511 120.35 265.359C121.192 266.208 122.358 267.229 123.62 268.34C126.643 270.997 130.3 273.86 131.9 273.86C134.785 273.764 128.126 299.294 128.126 299.294Z" fill="white"/>
<path d="M121.785 295.637C121.785 295.637 117.107 300.467 116.617 304.504C116.254 304.485 115.909 304.338 115.644 304.09C113.491 301.868 111.759 297.962 111.759 297.962C111.759 297.962 112.787 296.541 115.955 300.315L117.962 298.473L113.822 294.292C113.822 294.292 116.162 292.436 120.136 294.802C119.998 294.512 117.438 288.937 119.37 281.347L109.71 272.025L118.28 264.56L120.35 265.339C121.199 266.14 122.358 267.209 123.62 268.32C121.806 270.977 117.921 276.476 117.921 276.476L121.281 281.03C121.281 281.03 119.211 292.511 121.785 295.637Z" fill="white"/>
<path d="M128.126 299.294C128.126 299.294 119.922 304.876 116.617 304.503C116.254 304.484 115.909 304.338 115.644 304.089C113.491 301.867 111.759 297.962 111.759 297.962C111.759 297.962 112.787 296.541 115.955 300.315L117.962 298.473L113.822 294.291C113.822 294.291 116.162 292.435 120.136 294.802C119.998 294.512 117.438 288.937 119.37 281.347L109.71 272.025L118.28 264.559L118.97 263.979C118.97 263.979 119.508 264.511 120.35 265.359C121.192 266.208 122.358 267.229 123.62 268.34C126.643 270.997 130.3 273.86 131.9 273.86C134.785 273.764 128.126 299.294 128.126 299.294Z" stroke="#263238" stroke-linecap="round" stroke-linejoin="round"/>
<path d="M117.99 298.473C118.445 297.114 119.181 295.866 120.15 294.81" stroke="#263238" stroke-linecap="round" stroke-linejoin="round"/>
<path d="M271.025 234.311C269.73 236.199 268.166 237.887 266.381 239.32C266.381 239.32 266.381 239.32 266.381 239.32C251.298 251.809 216.522 257.95 216.522 257.95C216.522 257.95 215.356 259.696 213.562 262.18C210.346 266.644 205.082 273.503 200.79 276.939C198.975 278.395 197.34 279.237 196.091 279.009L202.618 303.111L205.537 313.571C205.537 313.571 175.55 326.681 124.262 311.694C124.262 311.694 123.675 305.001 124.11 303.573C124.11 303.504 124.151 303.435 124.179 303.359C124.701 302.408 125.383 301.554 126.194 300.834C126.194 300.834 125.904 296.528 125.759 292.147C125.594 289.353 125.628 286.552 125.863 283.763C126.228 281.555 127.843 276.215 128.657 273.593L129.133 272.068L126.58 248.166L125.849 241.266L125.807 240.907C125.807 240.859 125.807 240.804 125.807 240.735L125.407 237.043L112.214 241.073C112.214 241.073 112.904 242.619 113.857 244.785C115.589 248.753 118.135 254.79 118.687 257.205C118.728 257.402 118.783 257.596 118.852 257.785C120.074 261.269 124.724 264.436 124.724 264.436L112.228 279.037L108.537 276.456C108.064 276.806 107.566 277.12 107.046 277.395C104.618 278.712 99.5253 280.651 93.9363 277.691C91.5144 276.33 89.4113 274.467 87.7677 272.226C77.9697 259.503 73.7055 249.091 75.0924 236.898C76.4793 224.706 131.348 187.08 142.236 187.474L158.431 191.048C158.783 190.758 159.728 190.013 160.459 190.047C163.406 190.199 163.481 193.622 163.481 193.622L199.775 199.514C199.775 199.514 203.536 197.631 204.191 197.658C204.665 197.69 205.124 197.84 205.525 198.094C205.926 198.349 206.258 198.699 206.489 199.114C206.489 199.114 215.887 193.484 218.909 194.795C228.859 199.086 278.373 223.147 271.025 234.311Z" fill="#848484"/>
<path opacity="0.2" d="M144.935 293.939C140.811 298.473 135.273 301.477 129.223 302.461C127.312 302.764 125.635 303.068 124.166 303.372C124.688 302.421 125.369 301.567 126.181 300.846C126.181 300.846 125.891 296.541 125.746 292.159C130.003 294.967 137.428 298.21 144.935 293.939Z" fill="black"/>
<path opacity="0.2" d="M128.644 273.627L129.12 272.102L126.567 248.2C130.383 253.672 143.989 272.309 153.367 274.324C163.171 276.421 136.958 280.14 128.644 273.627Z" fill="black"/>
<path opacity="0.2" d="M202.604 303.145C192.358 301.979 177.875 299.399 176.426 294.037C174.169 285.661 185.147 280.638 200.79 276.974C198.975 278.43 197.34 279.271 196.091 279.044L202.604 303.145Z" fill="black"/>
<path opacity="0.2" d="M266.375 239.327C251.292 251.816 216.516 257.957 216.516 257.957C216.516 257.957 215.35 259.703 213.556 262.187C208.439 249.971 207.658 236.372 211.341 223.65C211.341 223.65 214.018 238.14 225.141 241.59C225.141 241.59 216.626 235.249 219.621 219.986C219.621 219.986 222.526 237.926 241.425 242.908C250.595 245.371 259.572 242.694 266.375 239.327Z" fill="black"/>
<path opacity="0.2" d="M125.794 240.954L125.38 237.09L112.188 241.12C112.188 241.12 112.878 242.665 113.83 244.832C108.786 244.315 99.2156 248.972 97.5458 243.894C95.531 237.739 107.896 239.857 107.896 239.857L119.584 233.061C117.376 223.608 123 216.501 123 216.501L124.069 223.097C124.58 210.56 129.486 203.701 129.486 203.701C125.429 213.616 125.539 238.049 125.794 240.954Z" fill="black"/>
<path opacity="0.2" d="M124.718 264.457L112.222 279.057L108.53 276.477C108.058 276.826 107.56 277.14 107.04 277.415C104.611 278.733 99.5191 280.672 93.9301 277.712C97.9804 272.109 106.35 263.864 116.293 260.683C113.852 264.315 111.653 268.105 109.71 272.026L112.277 274.552C112.277 274.552 118.68 267.251 124.718 264.457Z" fill="black"/>
<path opacity="0.2" d="M155.057 200.148C155.057 201.439 154.243 216.018 164.869 219.903C175.495 223.788 184.92 217.219 184.92 217.219C184.92 217.219 168.629 232.937 158.7 224.533C148.771 216.129 155.057 200.148 155.057 200.148Z" fill="black"/>
<path d="M124.241 311.721C124.241 311.721 123.669 305.028 124.096 303.607C124.455 302.406 126.166 300.847 126.166 300.847C126.166 300.847 125.263 287.282 125.842 283.783C126.339 280.782 129.113 272.053 129.113 272.053L125.373 237.043L112.18 241.079C112.18 241.079 117.797 253.499 118.666 257.184C119.536 260.868 124.711 264.408 124.711 264.408L112.215 279.002L108.523 276.428C108.523 276.428 97.6211 284.956 87.7748 272.205C77.9285 259.454 73.6988 249.069 75.0788 236.843C76.4588 224.616 131.348 187.032 142.237 187.418L158.431 190.999C158.776 190.709 159.728 189.964 160.453 189.999C163.399 190.15 163.475 193.573 163.475 193.573L199.769 199.465C199.769 199.465 203.536 197.582 204.192 197.609C204.664 197.642 205.121 197.793 205.521 198.047C205.921 198.301 206.252 198.651 206.482 199.065C206.482 199.065 215.88 193.442 218.902 194.746C228.838 199.038 278.346 223.098 271.004 234.262C260.578 250.132 216.494 257.936 216.494 257.936C216.494 257.936 201.832 280.016 196.057 278.995L205.503 313.557" stroke="#263238" stroke-linecap="round" stroke-linejoin="round"/>
<path d="M232.668 236.732C249.324 247.73 262.752 245.702 273.26 231.543C273.26 231.543 282.01 220.261 281.389 208.083C280.768 195.904 277.863 156.229 239.947 166.372C233.703 168.042 219.137 187.549 217.916 192.91C217.35 195.359 211.505 207.828 205.827 220.738" fill="#848484"/>
<path d="M232.668 236.732C249.324 247.73 262.752 245.702 273.26 231.543C273.26 231.543 282.01 220.261 281.389 208.083C280.768 195.904 277.863 156.229 239.947 166.372C233.703 168.042 219.137 187.549 217.916 192.91C217.35 195.359 211.505 207.828 205.827 220.738" stroke="#263238" stroke-linecap="round" stroke-linejoin="round"/>
<path d="M187.604 120.17C187.604 120.17 198.216 118.562 205.585 125.158C214.907 133.501 225.375 155.995 210.471 193.268C210.471 193.268 188.453 178.654 150.875 188.438C150.875 188.438 154.111 179.696 148.433 152.172C145.866 139.717 152.324 111.027 187.604 120.17Z" fill="#263238"/>
<path d="M171.52 213.706C187.224 216.252 203.908 198.864 203.908 198.864C203.908 198.864 195.373 197.816 194.607 193.807C192.158 181.159 202.011 165.517 202.011 165.517C202.011 165.517 163.881 166.572 170.547 175.177C171.787 176.751 172.802 178.49 173.562 180.345C175.874 186.023 174.252 190.308 173.045 191.385C172.957 191.456 172.862 191.519 172.762 191.571C170.457 192.62 160.983 191.054 160.983 191.054C160.983 191.054 157.188 211.381 171.52 213.706Z" fill="white" stroke="#263238" stroke-linecap="round" stroke-linejoin="round"/>
<path d="M198.507 203.681C198.507 203.681 191.262 206.579 180.656 205.716L175.882 208.055" stroke="#263238" stroke-linecap="round" stroke-linejoin="round"/>
<path d="M171.121 207.69L170.776 204.557C170.776 204.557 162.951 202.108 160.529 197.457" stroke="#263238" stroke-linecap="round" stroke-linejoin="round"/>
<path d="M173.045 191.405C184.72 194.455 190.206 179.482 190.206 179.482C190.206 179.482 180.863 176.722 173.563 180.393C175.874 186.071 174.274 190.356 173.045 191.405Z" fill="#263238"/>
<path d="M202.687 157.658C205.523 141.712 202.37 122.579 178.095 124.166C160.756 125.297 160.901 144.307 162.046 149.986C163.978 159.528 161.211 163.282 164.185 171.3C166.324 177.061 171.285 183.506 177.129 185.921C180.724 187.404 195.276 177.192 196.353 172.521" fill="white"/>
<path d="M202.687 157.658C205.523 141.712 202.37 122.579 178.095 124.166C160.756 125.297 160.901 144.307 162.046 149.986C163.978 159.528 161.211 163.282 164.185 171.3C166.324 177.061 171.285 183.506 177.129 185.921C180.724 187.404 195.276 177.192 196.353 172.521" stroke="#263238" stroke-linecap="round" stroke-linejoin="round"/>
<path d="M172.189 152.96C172.044 154.754 171.83 159.17 168.049 162.454C165.593 164.573 171.223 166.739 171.223 166.739" stroke="#263238" stroke-linecap="round" stroke-linejoin="round"/>
<path d="M168.16 146.632C168.16 146.632 162.805 144.024 159.19 148.33" stroke="#263238" stroke-linecap="round" stroke-linejoin="round"/>
<path d="M177.144 146.28C180.908 145.188 184.925 145.348 188.591 146.735" stroke="#263238" stroke-linecap="round" stroke-linejoin="round"/>
<path d="M182.705 153.821C182.871 155.36 183.906 156.512 185.017 156.388C186.127 156.264 186.893 154.925 186.728 153.387C186.562 151.848 185.527 150.702 184.416 150.82C183.305 150.937 182.539 152.283 182.705 153.821Z" fill="#263238"/>
<path d="M171.485 171.81C175.742 171.223 179.824 169.731 183.457 167.436C183.457 167.436 183.961 174.129 178.358 175.515C174.059 176.585 172.396 171.679 172.396 171.679" stroke="#263238" stroke-linecap="round" stroke-linejoin="round"/>
<path d="M187.232 130.238C187.232 130.238 185.7 149.137 202.377 156.002L210.195 137.835L198.368 124.725L180.559 119.577C153.946 121.24 142.492 137.772 157.265 181.829C157.265 181.85 153.132 129.382 187.232 130.238Z" fill="#263238"/>
<path d="M198.72 156.802C198.486 154.677 203.861 149.267 205.676 152.738C208.774 158.658 206.517 163.778 203.316 165.848C201.881 166.752 200.059 168.449 198.782 166.849" fill="white"/>
<path d="M198.72 156.802C198.486 154.677 203.861 149.267 205.676 152.738C208.774 158.658 206.517 163.778 203.316 165.848C201.881 166.752 200.059 168.449 198.782 166.849" stroke="#263238" stroke-linecap="round" stroke-linejoin="round"/>
<path d="M166.463 154.56C166.635 156.099 167.67 157.251 168.781 157.127C169.892 157.003 170.658 155.664 170.492 154.126C170.327 152.587 169.285 151.435 168.174 151.559C167.063 151.683 166.29 152.987 166.463 154.56Z" fill="#263238"/>
<g opacity="0.2">
<path opacity="0.2" d="M154.906 151.428C154.705 152.704 154.567 154.001 154.492 155.292" stroke="white" stroke-linecap="round" stroke-linejoin="round"/>
<path opacity="0.2" d="M184.472 126.801C170.99 126.45 158.459 135.04 155.492 148.53" stroke="white" stroke-linecap="round" stroke-linejoin="round"/>
<path opacity="0.2" d="M182.064 122.951C182.064 122.951 162.62 118.376 155.334 131.272" stroke="white" stroke-linecap="round" stroke-linejoin="round"/>
<path opacity="0.2" d="M197.837 145.417C199.01 147.086 200.421 148.574 202.026 149.833" stroke="white" stroke-linecap="round" stroke-linejoin="round"/>
<path opacity="0.2" d="M190.123 125.469C191.117 131.645 193.206 137.594 196.292 143.036" stroke="white" stroke-linecap="round" stroke-linejoin="round"/>
<path opacity="0.2" d="M209.657 183.954C209.312 185.5 208.905 187.032 208.45 188.55" stroke="white" stroke-linecap="round" stroke-linejoin="round"/>
<path opacity="0.2" d="M208.532 158.258C211.686 165.261 211.472 173.976 210.174 181.345" stroke="white" stroke-linecap="round" stroke-linejoin="round"/>
<path opacity="0.2" d="M206.221 170.43C206.375 173.082 205.966 175.737 205.02 178.22C204.075 180.703 202.615 182.958 200.736 184.837" stroke="white" stroke-linecap="round" stroke-linejoin="round"/>
<path opacity="0.2" d="M197.258 127.726C200.563 132.197 203.019 136.992 206.849 141.077C210.885 145.376 214.922 150.302 215.681 156.361" stroke="white" stroke-linecap="round" stroke-linejoin="round"/>
<path opacity="0.2" d="M192.594 123.076C193.54 123.697 194.411 124.426 195.188 125.25" stroke="white" stroke-linecap="round" stroke-linejoin="round"/>
</g>
<path d="M259.102 226.838C258.715 226.92 258.329 226.989 257.929 227.045C247.496 228.535 235.794 219.882 231.847 209.498C228.728 201.294 231.454 191.986 232.944 188.004C233.413 186.755 233.751 186.031 233.751 186.031C240.044 177.061 276.628 194.621 277.056 204.309C277.483 213.997 269.79 224.492 259.102 226.838Z" fill="#263238" stroke="#263238" stroke-linecap="round" stroke-linejoin="round"/>
<path d="M270.549 205.62C270.549 205.62 268.479 221.021 257.929 227.044C247.496 228.535 235.794 219.882 231.847 209.498C228.728 201.293 231.454 191.985 232.944 188.004C245.274 180.959 270.549 205.62 270.549 205.62Z" fill="white"/>
<path opacity="0.4" d="M270.549 205.62C270.549 205.62 268.479 221.021 257.929 227.044C247.496 228.535 235.794 219.882 231.847 209.498C228.728 201.293 231.454 191.985 232.944 188.004C245.274 180.959 270.549 205.62 270.549 205.62Z" fill="#848484"/>
<path d="M270.549 205.62C270.549 205.62 268.479 221.021 257.929 227.044C247.496 228.535 235.794 219.882 231.847 209.498C228.728 201.293 231.454 191.985 232.944 188.004C245.274 180.959 270.549 205.62 270.549 205.62Z" stroke="#263238" stroke-linecap="round" stroke-linejoin="round"/>
<path d="M227.403 213.727C227.403 213.727 239.285 230.784 253.161 232.205C267.037 233.627 275.931 221.938 276.476 213.127" stroke="#263238" stroke-linecap="round" stroke-linejoin="round"/>
<path d="M220.724 136.758C221.766 133.839 229.259 134.819 231.64 143.927C234.02 153.035 243.37 175.177 243.37 175.177C243.37 175.177 280.63 120.384 287.281 118.273C293.933 116.161 291.318 125.656 282.396 138.828C282.396 138.828 290.752 137.358 292.946 138.828C295.14 140.298 294.071 149.178 295.237 152.255C297.197 157.451 292.843 158.548 292.843 158.548C294.979 158.596 297.033 159.378 298.659 160.763C301.054 163.006 299.853 172.272 300.536 174.894C301.219 177.516 296.652 179.724 296.652 179.724C296.652 179.724 307.629 185.707 305.152 187.211C300.971 189.736 298.59 187.149 298.59 187.149C298.59 187.149 281.72 208.332 268.996 213.051C256.273 217.771 231.509 199.017 228.845 188.805C226.182 178.593 229.363 179.221 227.341 162.226C225.319 145.231 220.724 136.758 220.724 136.758Z" fill="white" stroke="#263238" stroke-linecap="round" stroke-linejoin="round"/>
<path d="M275.047 103.092L225.985 115.881C224.245 116.334 223.201 118.113 223.655 119.854L246.847 208.823C247.3 210.564 249.079 211.607 250.819 211.153L299.881 198.364C301.622 197.911 302.665 196.132 302.211 194.391L279.02 105.422C278.566 103.681 276.787 102.638 275.047 103.092Z" fill="white" stroke="#263238" stroke-linecap="round" stroke-linejoin="round"/>
<path d="M246.937 113.319C246.963 113.42 246.969 113.526 246.955 113.629C246.941 113.732 246.906 113.832 246.853 113.922C246.8 114.012 246.73 114.091 246.647 114.154C246.564 114.217 246.469 114.263 246.368 114.289C246.267 114.315 246.162 114.321 246.058 114.307C245.955 114.292 245.855 114.258 245.765 114.205C245.675 114.152 245.596 114.082 245.533 113.999C245.471 113.916 245.425 113.821 245.398 113.72C245.37 113.619 245.363 113.513 245.376 113.409C245.39 113.305 245.424 113.205 245.476 113.114C245.529 113.023 245.599 112.944 245.683 112.881C245.767 112.818 245.862 112.772 245.964 112.747C246.169 112.694 246.386 112.725 246.569 112.832C246.751 112.94 246.883 113.115 246.937 113.319V113.319Z" fill="#848484" stroke="#263238" stroke-linecap="round" stroke-linejoin="round"/>
<path d="M257.046 110.683C257.062 110.746 257.066 110.812 257.057 110.877C257.048 110.942 257.026 111.005 256.993 111.061C256.959 111.118 256.915 111.167 256.863 111.206C256.81 111.245 256.75 111.274 256.687 111.29C256.592 111.314 256.492 111.309 256.399 111.277C256.307 111.244 256.226 111.185 256.167 111.106C256.109 111.027 256.074 110.933 256.069 110.835C256.064 110.737 256.087 110.64 256.137 110.556C256.187 110.471 256.261 110.403 256.349 110.361C256.438 110.318 256.537 110.303 256.634 110.316C256.731 110.33 256.822 110.372 256.895 110.437C256.969 110.502 257.021 110.588 257.046 110.683V110.683Z" fill="#848484" stroke="#263238" stroke-linecap="round" stroke-linejoin="round"/>
<path d="M254.63 111.927L248.706 113.454C248.588 113.484 248.517 113.605 248.547 113.723L248.578 113.843C248.609 113.962 248.73 114.033 248.848 114.002L254.771 112.476C254.889 112.445 254.961 112.325 254.93 112.206L254.899 112.086C254.869 111.968 254.748 111.896 254.63 111.927Z" fill="#848484" stroke="#263238" stroke-width="1.0017" stroke-linecap="round" stroke-linejoin="round"/>
<path d="M277.546 106.343L300.543 194.58C300.671 195.075 300.598 195.601 300.339 196.042C300.081 196.483 299.658 196.803 299.163 196.933L250.732 209.553C250.237 209.681 249.712 209.608 249.271 209.349C248.83 209.091 248.509 208.668 248.379 208.173L225.382 119.936C225.253 119.441 225.327 118.915 225.585 118.474C225.844 118.033 226.267 117.713 226.762 117.583L236.704 114.989C237.023 114.905 237.36 114.921 237.67 115.034C237.98 115.148 238.247 115.354 238.436 115.624L239.161 116.652C239.35 116.922 239.618 117.127 239.927 117.241C240.237 117.354 240.574 117.37 240.893 117.286L262.718 111.601C263.033 111.518 263.317 111.342 263.531 111.096C263.745 110.85 263.88 110.545 263.918 110.221L264.049 108.972C264.085 108.647 264.22 108.341 264.434 108.095C264.649 107.848 264.933 107.673 265.25 107.592L275.193 104.998C275.683 104.868 276.205 104.937 276.645 105.188C277.085 105.44 277.408 105.855 277.546 106.343V106.343Z" fill="#848484" stroke="#263238" stroke-linecap="round" stroke-linejoin="round"/>
<path d="M283.59 179.855L255.99 187.045C255.201 187.253 254.378 187.304 253.57 187.193C252.761 187.083 251.982 186.815 251.277 186.404C250.572 185.992 249.955 185.446 249.461 184.796C248.968 184.146 248.607 183.405 248.4 182.615V182.615C248.192 181.826 248.142 181.003 248.253 180.193C248.363 179.384 248.632 178.605 249.044 177.9C249.456 177.195 250.003 176.578 250.654 176.085C251.305 175.592 252.047 175.232 252.837 175.025L280.437 167.835C282.026 167.426 283.713 167.661 285.129 168.492C286.544 169.322 287.574 170.678 287.992 172.265V172.265C288.414 173.855 288.187 175.548 287.361 176.971C286.536 178.394 285.18 179.431 283.59 179.855Z" fill="#263238"/>
<path d="M216.516 257.983C216.516 257.983 208.139 238.491 212.376 214.852" stroke="#263238" stroke-linecap="round" stroke-linejoin="round"/>
<path d="M196.077 279.043C196.077 279.043 179.144 284.218 177.447 288.116C175.749 292.015 185.037 288.731 185.037 288.731" stroke="#263238" stroke-linecap="round" stroke-linejoin="round"/>
<path d="M206.49 199.113C206.49 199.113 190.896 214.569 180.463 218.689" stroke="#263238" stroke-linecap="round" stroke-linejoin="round"/>
<path d="M155.395 194.96C155.395 194.96 152.553 215.826 163.158 219.765" stroke="#263238" stroke-linecap="round" stroke-linejoin="round"/>
<path d="M125.38 237.091C125.38 237.091 125.297 209.74 130.727 201.28" stroke="#263238" stroke-linecap="round" stroke-linejoin="round"/>
<path d="M123.351 209.222C123.351 209.222 121.826 226.209 125.255 231.75" stroke="#263238" stroke-linecap="round" stroke-linejoin="round"/>
<path d="M112.187 241.127C112.187 241.127 100.326 237.042 97.8695 242.107C95.4131 247.171 104.942 242.679 104.942 242.679" stroke="#263238" stroke-linecap="round" stroke-linejoin="round"/>
<path d="M119.322 258.86C119.322 258.86 107.675 265.422 107.074 269.176" stroke="#263238" stroke-linecap="round" stroke-linejoin="round"/>
<path d="M138.345 240.714C138.345 240.714 160.639 274.407 172.942 271.315" stroke="#263238" stroke-linecap="round" stroke-linejoin="round"/>
<path d="M153.573 287.972C153.573 287.972 136.096 300.785 133.563 299.702" stroke="#263238" stroke-linecap="round" stroke-linejoin="round"/>
<path opacity="0.2" d="M276 233.296C277.18 232.33 277.96 231.688 278.215 231.488C277.953 231.716 277.194 232.378 276 233.296Z" fill="black"/>
<path d="M253.985 182.686L254.807 182.277C254.831 182.364 254.853 182.439 254.875 182.504C254.896 182.569 254.924 182.639 254.958 182.714C254.994 182.787 255.03 182.846 255.066 182.89C255.103 182.932 255.146 182.964 255.197 182.987C255.248 183.009 255.302 183.011 255.359 182.996C255.528 182.949 255.583 182.817 255.522 182.6C255.44 182.304 255.191 182.056 254.776 181.855L254.447 181.703C254.343 181.656 254.259 181.616 254.196 181.583C254.132 181.55 254.055 181.503 253.964 181.442C253.874 181.381 253.8 181.319 253.74 181.256C253.681 181.191 253.623 181.11 253.566 181.013C253.51 180.915 253.466 180.808 253.433 180.69C253.338 180.347 253.371 180.045 253.534 179.785C253.696 179.524 253.958 179.343 254.318 179.243C254.618 179.16 254.902 179.196 255.172 179.351C255.441 179.505 255.618 179.733 255.701 180.035L255.707 180.066C255.713 180.086 255.72 180.11 255.727 180.136L254.877 180.504C254.872 180.487 254.865 180.46 254.857 180.424C254.849 180.385 254.842 180.354 254.836 180.331C254.82 180.274 254.801 180.221 254.779 180.172C254.757 180.122 254.729 180.074 254.696 180.028C254.664 179.981 254.625 179.948 254.58 179.928C254.533 179.907 254.483 179.904 254.43 179.919C254.336 179.945 254.276 180.002 254.249 180.088C254.222 180.175 254.223 180.269 254.251 180.369C254.275 180.457 254.312 180.536 254.36 180.605C254.409 180.674 254.471 180.735 254.544 180.787C254.619 180.837 254.686 180.877 254.745 180.908C254.805 180.939 254.883 180.976 254.979 181.018C255.075 181.059 255.143 181.09 255.184 181.111C255.335 181.184 255.465 181.256 255.574 181.327C255.683 181.396 255.79 181.479 255.897 181.577C256.003 181.674 256.093 181.786 256.167 181.912C256.243 182.038 256.303 182.18 256.347 182.338C256.429 182.635 256.391 182.907 256.232 183.156C256.072 183.403 255.841 183.568 255.539 183.653C255.343 183.707 255.158 183.719 254.986 183.69C254.814 183.66 254.664 183.596 254.535 183.498C254.408 183.4 254.299 183.283 254.207 183.146C254.115 183.009 254.041 182.856 253.985 182.686ZM256.491 181.599L255.751 178.939L256.608 178.701L257.34 181.335C257.382 181.486 257.413 181.595 257.434 181.664C257.454 181.731 257.481 181.813 257.515 181.91C257.548 182.005 257.578 182.071 257.605 182.105C257.631 182.14 257.664 182.177 257.703 182.215C257.744 182.252 257.789 182.272 257.836 182.274C257.884 182.276 257.939 182.268 258.002 182.251C258.065 182.233 258.116 182.212 258.156 182.185C258.196 182.159 258.223 182.12 258.238 182.069C258.254 182.015 258.264 181.967 258.269 181.923C258.273 181.88 258.266 181.809 258.245 181.712C258.224 181.613 258.206 181.53 258.189 181.464C258.172 181.396 258.143 181.288 258.101 181.139C258.099 181.133 258.098 181.128 258.097 181.125L257.365 178.49L258.221 178.252L258.961 180.913C258.998 181.048 259.028 181.171 259.051 181.283C259.074 181.395 259.09 181.513 259.101 181.636C259.112 181.76 259.111 181.873 259.098 181.974C259.086 182.074 259.059 182.174 259.02 182.275C258.98 182.374 258.924 182.462 258.853 182.539C258.783 182.616 258.692 182.687 258.58 182.752C258.468 182.817 258.336 182.87 258.186 182.912C258.035 182.954 257.895 182.976 257.766 182.978C257.636 182.98 257.522 182.966 257.422 182.936C257.323 182.907 257.23 182.86 257.145 182.796C257.059 182.73 256.985 182.658 256.923 182.579C256.86 182.498 256.8 182.402 256.744 182.291C256.689 182.18 256.643 182.07 256.604 181.963C256.566 181.855 256.528 181.734 256.491 181.599ZM260.571 181.509L260.651 181.487C260.762 181.456 260.849 181.418 260.911 181.374C260.972 181.328 261.012 181.269 261.031 181.196C261.05 181.123 261.054 181.046 261.043 180.965C261.033 180.881 261.01 180.773 260.973 180.64C260.911 180.419 260.824 180.258 260.712 180.157C260.601 180.056 260.452 180.032 260.266 180.084L260.181 180.107L260.571 181.509ZM260.02 179.546L260.166 179.506C260.244 179.484 260.306 179.451 260.351 179.406C260.396 179.362 260.424 179.307 260.435 179.243C260.447 179.178 260.45 179.11 260.442 179.041C260.435 178.972 260.419 178.893 260.394 178.804C260.375 178.733 260.352 178.673 260.326 178.623C260.302 178.572 260.279 178.531 260.256 178.5C260.234 178.467 260.204 178.444 260.168 178.428C260.131 178.411 260.1 178.401 260.073 178.396C260.048 178.39 260.011 178.391 259.962 178.399C259.915 178.406 259.877 178.413 259.849 178.421C259.821 178.427 259.776 178.438 259.717 178.455L260.02 179.546ZM259.883 182.352L258.706 178.118L259.579 177.875C259.735 177.831 259.876 177.802 260 177.786C260.125 177.768 260.251 177.767 260.379 177.784C260.508 177.799 260.621 177.836 260.717 177.896C260.814 177.955 260.903 178.044 260.984 178.164C261.066 178.281 261.131 178.429 261.181 178.608C261.242 178.829 261.238 179.018 261.168 179.174C261.1 179.33 260.967 179.475 260.768 179.61C261.305 179.592 261.656 179.878 261.819 180.468C261.938 180.893 261.923 181.236 261.776 181.496C261.629 181.757 261.346 181.945 260.927 182.061L259.883 182.352ZM262.082 180.436L262.903 180.027C262.927 180.114 262.95 180.189 262.971 180.254C262.993 180.319 263.021 180.389 263.055 180.464C263.09 180.537 263.126 180.595 263.162 180.64C263.199 180.682 263.243 180.714 263.293 180.737C263.345 180.759 263.399 180.761 263.455 180.746C263.624 180.699 263.679 180.567 263.619 180.35C263.536 180.054 263.288 179.806 262.872 179.605L262.543 179.453C262.439 179.406 262.355 179.366 262.292 179.333C262.229 179.3 262.152 179.253 262.06 179.192C261.971 179.131 261.896 179.069 261.836 179.006C261.778 178.941 261.72 178.86 261.662 178.763C261.607 178.665 261.562 178.558 261.53 178.44C261.434 178.097 261.468 177.795 261.63 177.535C261.793 177.274 262.054 177.093 262.415 176.993C262.714 176.91 262.999 176.946 263.268 177.101C263.537 177.255 263.714 177.483 263.798 177.784L263.804 177.816C263.81 177.836 263.816 177.86 263.823 177.886L262.973 178.254C262.968 178.237 262.962 178.21 262.953 178.174C262.946 178.135 262.939 178.104 262.932 178.081C262.917 178.024 262.898 177.971 262.875 177.922C262.853 177.872 262.826 177.824 262.792 177.778C262.761 177.731 262.722 177.697 262.676 177.678C262.63 177.657 262.58 177.654 262.527 177.669C262.432 177.695 262.372 177.752 262.346 177.838C262.319 177.925 262.32 178.019 262.348 178.119C262.372 178.207 262.408 178.286 262.456 178.355C262.506 178.424 262.567 178.485 262.641 178.537C262.716 178.587 262.783 178.627 262.842 178.658C262.901 178.689 262.979 178.726 263.075 178.768C263.171 178.809 263.24 178.84 263.281 178.861C263.431 178.934 263.561 179.006 263.67 179.077C263.779 179.146 263.887 179.229 263.993 179.327C264.1 179.424 264.19 179.535 264.264 179.662C264.339 179.788 264.399 179.93 264.443 180.088C264.525 180.385 264.487 180.657 264.328 180.906C264.169 181.153 263.938 181.318 263.635 181.403C263.439 181.457 263.255 181.469 263.083 181.439C262.911 181.41 262.76 181.346 262.632 181.248C262.505 181.15 262.395 181.033 262.303 180.896C262.211 180.759 262.137 180.606 262.082 180.436ZM264.596 179.519L264.207 178.117C263.929 177.116 264.199 176.502 265.018 176.275C265.19 176.227 265.35 176.208 265.496 176.218C265.643 176.226 265.774 176.258 265.888 176.314C266.001 176.371 266.104 176.45 266.195 176.553C266.287 176.656 266.366 176.774 266.43 176.906C266.495 177.038 266.551 177.188 266.598 177.356L266.699 177.721L265.857 177.955L265.748 177.564C265.727 177.487 265.707 177.422 265.689 177.368C265.67 177.312 265.644 177.251 265.61 177.185C265.577 177.116 265.543 177.063 265.508 177.026C265.473 176.986 265.429 176.957 265.374 176.938C265.322 176.919 265.264 176.918 265.201 176.936C264.954 177.005 264.888 177.248 265.004 177.665L265.511 179.492C265.627 179.908 265.809 180.081 266.056 180.013C266.13 179.992 266.186 179.954 266.225 179.897C266.263 179.841 266.282 179.771 266.283 179.689C266.283 179.604 266.277 179.524 266.264 179.448C266.251 179.371 266.231 179.284 266.205 179.188L266.084 178.753L266.921 178.52L267.021 178.878C267.062 179.04 267.09 179.193 267.105 179.336C267.119 179.479 267.116 179.623 267.095 179.767C267.075 179.911 267.033 180.04 266.97 180.154C266.908 180.266 266.816 180.367 266.692 180.459C266.57 180.552 266.419 180.624 266.24 180.674C266.057 180.725 265.886 180.743 265.729 180.73C265.573 180.717 265.437 180.68 265.32 180.618C265.204 180.553 265.099 180.465 265.003 180.353C264.907 180.24 264.827 180.115 264.762 179.979C264.699 179.843 264.644 179.69 264.596 179.519ZM267.974 177.44L268.219 177.372C268.285 177.353 268.335 177.316 268.37 177.259C268.405 177.202 268.423 177.137 268.425 177.064C268.428 176.99 268.425 176.924 268.418 176.865C268.411 176.806 268.401 176.752 268.387 176.702C268.373 176.651 268.355 176.601 268.332 176.55C268.311 176.498 268.282 176.443 268.246 176.384C268.21 176.323 268.166 176.278 268.112 176.249C268.059 176.218 268.003 176.21 267.944 176.227L267.659 176.306L267.974 177.44ZM267.805 180.15L266.628 175.916L267.56 175.657C267.771 175.598 267.963 175.567 268.134 175.563C268.307 175.558 268.465 175.581 268.61 175.634C268.754 175.685 268.878 175.775 268.981 175.903C269.084 176.03 269.164 176.194 269.22 176.397C269.244 176.485 269.263 176.564 269.276 176.635C269.289 176.705 269.296 176.789 269.297 176.885C269.3 176.979 269.291 177.065 269.271 177.145C269.25 177.224 269.212 177.306 269.157 177.392C269.102 177.479 269.03 177.558 268.942 177.63C269.42 178.365 269.83 178.986 270.174 179.492L269.287 179.738L268.26 177.923L268.119 177.962L268.661 179.912L267.805 180.15ZM270.444 179.416L269.267 175.182L270.124 174.944L271.3 179.179L270.444 179.416ZM271.996 176.383C272.041 176.37 272.081 176.357 272.114 176.343C272.148 176.326 272.178 176.311 272.203 176.298C272.227 176.282 272.247 176.262 272.262 176.238C272.277 176.214 272.289 176.192 272.298 176.175C272.308 176.157 272.313 176.131 272.314 176.097C272.314 176.061 272.314 176.033 272.313 176.011C272.312 175.989 272.306 175.955 272.295 175.91C272.285 175.863 272.277 175.827 272.27 175.8C272.262 175.772 272.25 175.729 272.234 175.671C272.229 175.655 272.226 175.643 272.224 175.635C272.207 175.574 272.193 175.528 272.183 175.497C272.174 175.466 272.161 175.427 272.142 175.379C272.124 175.332 272.106 175.298 272.089 175.278C272.072 175.255 272.05 175.231 272.021 175.205C271.993 175.179 271.963 175.163 271.931 175.157C271.899 175.15 271.859 175.148 271.812 175.149C271.767 175.15 271.716 175.158 271.66 175.174L271.996 176.383ZM271.804 179.039L270.627 174.805L271.65 174.52C272.019 174.418 272.316 174.446 272.54 174.605C272.765 174.764 272.932 175.037 273.04 175.426C273.093 175.618 273.12 175.789 273.122 175.941C273.125 176.092 273.107 176.223 273.067 176.334C273.026 176.443 272.962 176.54 272.874 176.625C272.786 176.709 272.684 176.779 272.57 176.836C272.456 176.892 272.319 176.943 272.161 176.988L272.665 178.799L271.804 179.039ZM274.61 178.259L273.611 174.665L272.99 174.837L272.812 174.197L274.899 173.617L275.077 174.257L274.467 174.427L275.466 178.021L274.61 178.259ZM276.362 177.772L275.186 173.538L276.042 173.3L277.219 177.534L276.362 177.772ZM277.281 176.016L276.885 174.593C276.607 173.593 276.881 172.978 277.706 172.749C278.532 172.519 279.084 172.904 279.362 173.905L279.752 175.307C279.799 175.476 279.83 175.637 279.845 175.788C279.86 175.937 279.854 176.085 279.829 176.231C279.805 176.376 279.759 176.507 279.69 176.624C279.622 176.739 279.524 176.842 279.396 176.934C279.268 177.025 279.112 177.096 278.928 177.147C278.746 177.198 278.577 177.217 278.42 177.205C278.263 177.195 278.126 177.159 278.01 177.099C277.893 177.036 277.787 176.951 277.691 176.843C277.596 176.732 277.515 176.609 277.449 176.474C277.384 176.338 277.328 176.186 277.281 176.016ZM278.955 175.759L278.447 173.929C278.331 173.512 278.145 173.339 277.889 173.41C277.813 173.431 277.753 173.469 277.71 173.523C277.668 173.575 277.643 173.639 277.637 173.713C277.63 173.786 277.63 173.857 277.637 173.926C277.646 173.993 277.661 174.064 277.682 174.141L278.191 175.971C278.306 176.387 278.491 176.559 278.745 176.489C279.001 176.418 279.071 176.174 278.955 175.759ZM280.597 176.595L279.419 172.359L280.035 172.187L281.58 174.145L280.965 171.929L281.675 171.732L282.852 175.968L282.26 176.133L280.68 174.041L281.333 176.39L280.597 176.595Z" fill="white"/>
</g>
</svg>
