<svg width="38" height="26" viewBox="0 0 38 26" fill="none" xmlns="http://www.w3.org/2000/svg">
<path d="M5.31006 7.85359V24.163C5.31006 24.8159 5.83931 25.3451 6.49221 25.3451C7.11646 25.3451 7.63316 24.8597 7.67205 24.2366L8.69486 7.85352H5.31006V7.85359Z" fill="#596C76"/>
<path d="M29.3062 7.85352L30.329 24.2366C30.3678 24.8597 30.8846 25.3451 31.5088 25.3451C32.1617 25.3451 32.691 24.8159 32.691 24.163V7.85352H29.3062Z" fill="#596C76"/>
<path d="M2.10181 3.48828V6.47527C2.10181 7.23534 2.71797 7.8515 3.47804 7.8515H34.5201C35.2802 7.8515 35.8964 7.23534 35.8964 6.47527V3.48828H2.10181Z" fill="#AA6A51"/>
<path d="M37.0823 0H0.917486C0.410798 0 0 0.410798 0 0.917485V2.57277C0 3.07946 0.410798 3.49026 0.917486 3.49026H37.0823C37.589 3.49026 37.9997 3.07946 37.9997 2.57277V0.917485C37.9997 0.410798 37.589 0 37.0823 0Z" fill="#BC7C63"/>
<path d="M37.0836 0H34.0493C34.556 0 34.9668 0.410798 34.9668 0.917485V2.57277C34.9668 3.07946 34.556 3.49026 34.0493 3.49026H37.0836C37.5903 3.49026 38.0011 3.07946 38.0011 2.57277V0.917485C38.0011 0.410798 37.5903 0 37.0836 0Z" fill="#AA6A51"/>
<path d="M32.865 3.48828V6.47527C32.865 7.23534 32.2488 7.8515 31.4888 7.8515H34.523C35.2831 7.8515 35.8993 7.23534 35.8993 6.47527V3.48828H32.865Z" fill="#935B44"/>
<path d="M5.31128 10.0194H8.5607L8.696 7.85205H5.31128V10.0194Z" fill="#465A61"/>
<path d="M29.4461 10.0194H32.6955V7.85205H29.3108L29.4461 10.0194Z" fill="#465A61"/>
</svg>
