<svg width="41" height="41" viewBox="0 0 41 41" fill="none" xmlns="http://www.w3.org/2000/svg">
<circle cx="20.2675" cy="20.4442" r="20.2675" fill="#00ACEE"/>
<g clip-path="url(#clip0_5_11879)">
<path d="M30.4029 14.7077C29.6743 15.0273 28.898 15.2392 28.0886 15.342C28.9213 14.8449 29.5568 14.0637 29.8556 13.122C29.0792 13.5849 28.2221 13.9118 27.3086 14.0943C26.5715 13.3094 25.5209 12.8232 24.3747 12.8232C22.1511 12.8232 20.3609 14.6281 20.3609 16.8408C20.3609 17.1592 20.3878 17.4653 20.4539 17.7567C17.1147 17.5939 14.16 15.9935 12.1751 13.5555C11.8286 14.1567 11.6253 14.8449 11.6253 15.5857C11.6253 16.9767 12.3417 18.2098 13.4094 18.9237C12.7641 18.9114 12.131 18.7241 11.5947 18.429C11.5947 18.4412 11.5947 18.4571 11.5947 18.473C11.5947 20.4249 12.987 22.0461 14.8127 22.4196C14.4857 22.509 14.1294 22.5518 13.7596 22.5518C13.5025 22.5518 13.2429 22.5371 12.9992 22.4833C13.5196 24.0739 14.9964 25.2433 16.7523 25.2812C15.3857 26.3502 13.6506 26.9943 11.7723 26.9943C11.4429 26.9943 11.127 26.9796 10.811 26.9392C12.5902 28.0865 14.6988 28.7416 16.9727 28.7416C24.3637 28.7416 28.4045 22.6192 28.4045 17.3122C28.4045 17.1347 28.3984 16.9633 28.3898 16.793C29.187 16.2273 29.8568 15.5208 30.4029 14.7077Z" fill="#EEEEEE"/>
</g>
<defs>
<clipPath id="clip0_5_11879">
<rect width="19.5919" height="19.5919" fill="white" transform="translate(10.811 10.9863)"/>
</clipPath>
</defs>
</svg>
