<svg width="30" height="30" viewBox="0 0 30 30" fill="none" xmlns="http://www.w3.org/2000/svg">
<path d="M5.47193 8.22754C5.11712 7.8645 4.66335 7.61387 4.16714 7.50687C3.67092 7.39986 3.15419 7.4412 2.6813 7.62574C2.20842 7.81029 1.80027 8.12987 1.5077 8.5447C1.21513 8.95953 1.05107 9.45127 1.03595 9.95866C0.753414 10.1217 0.513426 10.3492 0.335572 10.6226C0.157718 10.896 0.0470374 11.2077 0.0125638 11.532C-0.0219099 11.8564 0.0208003 12.1843 0.137208 12.489C0.253617 12.7937 0.440424 13.0666 0.682384 13.2853C0.924345 13.5041 1.2146 13.6625 1.52946 13.7477C1.84433 13.8329 2.17487 13.8425 2.49413 13.7756C2.81338 13.7087 3.11229 13.5672 3.36647 13.3628C3.62065 13.1584 3.82288 12.8967 3.95667 12.5993C4.37255 12.5448 4.76897 12.3901 5.11181 12.1484C5.41174 12.2767 5.73774 12.3322 6.0632 12.3104C6.38866 12.2886 6.70437 12.1902 6.98455 12.0232C7.26473 11.8562 7.50145 11.6253 7.67538 11.3493C7.84931 11.0734 7.95553 10.7602 7.98536 10.4354C8.01519 10.1105 7.9678 9.78327 7.84704 9.48025C7.72629 9.17724 7.53559 8.90707 7.29052 8.6918C7.04545 8.47653 6.75296 8.32225 6.4369 8.24157C6.12085 8.16089 5.79019 8.15608 5.47193 8.22754Z" fill="#02A437"/>
<path d="M4.56056 12.9623C4.45641 12.9623 4.35468 12.9309 4.26868 12.8721C4.18268 12.8134 4.11642 12.73 4.07858 12.633L3.13841 10.2238C3.11372 10.1605 3.10173 10.093 3.10314 10.0251C3.10454 9.95718 3.11931 9.89021 3.1466 9.82801C3.17388 9.7658 3.21315 9.70959 3.26217 9.66256C3.31118 9.61554 3.36897 9.57862 3.43225 9.55393C3.49553 9.52924 3.56305 9.51726 3.63096 9.51867C3.69887 9.52007 3.76584 9.53484 3.82804 9.56212C3.89024 9.58941 3.94646 9.62868 3.99349 9.67769C4.04051 9.7267 4.07742 9.7845 4.10211 9.84778L5.04248 12.2569C5.07309 12.3353 5.08411 12.42 5.07458 12.5036C5.06506 12.5872 5.03527 12.6672 4.9878 12.7367C4.94034 12.8062 4.87664 12.8631 4.80222 12.9024C4.7278 12.9417 4.64491 12.9623 4.56075 12.9623H4.56056Z" fill="#027E2A"/>
<path d="M5.5251 12.5826C5.50926 12.5826 5.4933 12.5818 5.4772 12.5804C5.40955 12.5741 5.3438 12.5547 5.28368 12.523C5.22357 12.4914 5.17028 12.4482 5.12684 12.396C5.08341 12.3438 5.0507 12.2835 5.03056 12.2186C5.01043 12.1537 5.00327 12.0855 5.0095 12.0179C5.0901 11.1593 5.44525 10.3496 6.02228 9.7087C6.06765 9.65767 6.12268 9.61613 6.18419 9.58648C6.24569 9.55682 6.31247 9.53964 6.38065 9.53592C6.44883 9.53221 6.51707 9.54203 6.58144 9.56482C6.64581 9.58761 6.70503 9.62292 6.75568 9.66871C6.80633 9.71451 6.84741 9.76988 6.87655 9.83163C6.9057 9.89338 6.92232 9.9603 6.92547 10.0285C6.92862 10.0967 6.91824 10.1649 6.89491 10.2291C6.87159 10.2932 6.83578 10.3522 6.78957 10.4024C6.3623 10.877 6.09932 11.4767 6.03961 12.1125C6.02786 12.2409 5.96859 12.3602 5.87341 12.4472C5.77824 12.5341 5.65402 12.5824 5.5251 12.5826Z" fill="#027E2A"/>
<path d="M3.59524 13.3387C3.46708 13.3389 3.34346 13.2912 3.24852 13.2052C2.77396 12.7778 2.17433 12.5149 1.53853 12.4552C1.47089 12.449 1.40513 12.4295 1.34502 12.3979C1.28491 12.3662 1.23161 12.3231 1.18817 12.2709C1.14474 12.2186 1.11201 12.1584 1.09187 12.0935C1.07173 12.0286 1.06456 11.9604 1.07077 11.8928C1.07699 11.8251 1.09646 11.7594 1.12809 11.6993C1.15972 11.6392 1.20288 11.5859 1.2551 11.5424C1.30733 11.499 1.36759 11.4663 1.43247 11.4461C1.49734 11.426 1.56554 11.4188 1.63318 11.425C2.4916 11.5057 3.30119 11.8607 3.94204 12.4375C4.01967 12.5076 4.07425 12.5996 4.09856 12.7013C4.12287 12.803 4.11578 12.9097 4.07822 13.0073C4.04066 13.1049 3.9744 13.1888 3.88818 13.248C3.80196 13.3071 3.69982 13.3388 3.59524 13.3387Z" fill="#027E2A"/>
<path d="M10.6257 22.2916L6.77111 23.7961L3.056 16.3489C2.88025 15.9965 2.77986 15.6114 2.76123 15.2181C2.7426 14.8247 2.80615 14.4318 2.94781 14.0644C3.08948 13.697 3.30615 13.3632 3.58403 13.0841C3.8619 12.8051 4.19486 12.5871 4.56169 12.4439C4.92854 12.3008 5.3212 12.2356 5.71463 12.2527C6.10806 12.2697 6.49362 12.3685 6.84671 12.5429C7.19981 12.7173 7.5127 12.9633 7.76541 13.2653C8.01813 13.5673 8.20513 13.9187 8.31448 14.297L10.6257 22.2916Z" fill="#FD9226"/>
<path d="M16.0322 0.000976562H18.1011V14.4831H16.0322V0.000976562Z" fill="#026A23"/>
<path d="M17.0104 10.4728C16.9612 10.1618 16.8793 9.85687 16.766 9.56313L14.4818 3.62354L12.9302 4.14075L15.1458 9.90126C15.3908 10.5381 15.5164 11.2147 15.5163 11.8971V13.7325L17.0104 10.4728Z" fill="#027226"/>
<path d="M19.2865 19.5118C19.5417 19.8522 19.6797 20.2662 19.6797 20.6917C19.6797 21.1172 19.5417 21.5312 19.2865 21.8716L19.2794 21.8813C19.0746 22.1543 18.8091 22.3759 18.5039 22.5285C18.1986 22.6811 17.8621 22.7606 17.5208 22.7606H16.6157C16.2744 22.7606 15.9379 22.6811 15.6326 22.5285C15.3274 22.3759 15.0619 22.1543 14.8571 21.8813L14.85 21.8716C14.5948 21.5312 14.4568 21.1172 14.4568 20.6917C14.4568 20.2662 14.5948 19.8522 14.85 19.5118L15.5166 18.6228V13.7325L17.0107 10.4728L17.0682 10.3474L19.6543 3.62354L21.206 4.14075L18.9904 9.90126C18.7454 10.5381 18.6198 11.2147 18.6199 11.8971V18.6228L19.2865 19.5118Z" fill="#027E2A"/>
<path d="M19.2865 21.8695L19.2794 21.8792C19.0619 22.1695 18.7758 22.4012 18.4466 22.5536L15.3543 22.3603C15.164 22.2274 14.9962 22.065 14.8571 21.8792L14.85 21.8695C14.5948 21.5291 14.4568 21.1151 14.4568 20.6896C14.4568 20.2642 14.5948 19.8502 14.85 19.5097L14.8959 19.4483L15.5166 19.138L18.6199 11.895V18.6208L19.2865 19.5097C19.5417 19.8502 19.6797 20.2642 19.6797 20.6896C19.6797 21.1151 19.5417 21.5291 19.2865 21.8695Z" fill="#027E2A"/>
<path d="M3.65558 17.7583C3.5349 17.7585 3.41795 17.7164 3.32501 17.6395C3.23206 17.5625 3.16896 17.4554 3.14663 17.3368C3.1243 17.2182 3.14414 17.0955 3.20273 16.99C3.26132 16.8845 3.35496 16.8028 3.46744 16.7591L4.43108 16.383C4.55888 16.3332 4.70125 16.3361 4.82688 16.3912C4.95251 16.4463 5.05111 16.5491 5.10098 16.6769C5.15085 16.8047 5.14791 16.947 5.09281 17.0727C5.03771 17.1983 4.93496 17.2969 4.80717 17.3468L3.84385 17.7228C3.78385 17.7463 3.72 17.7583 3.65558 17.7583Z" fill="#E78244"/>
<path d="M6.54928 16.6318C6.42862 16.6319 6.31171 16.5899 6.21878 16.5129C6.12586 16.4359 6.06277 16.3289 6.04043 16.2103C6.0181 16.0917 6.03792 15.9691 6.09648 15.8636C6.15504 15.7581 6.24864 15.6764 6.36108 15.6326L7.32478 15.2566C7.45258 15.2067 7.59495 15.2097 7.72057 15.2648C7.84619 15.3199 7.94478 15.4226 7.99464 15.5504C8.04451 15.6782 8.04156 15.8206 7.98645 15.9462C7.93135 16.0718 7.82859 16.1704 7.7008 16.2203L6.73748 16.5964C6.6775 16.6198 6.61367 16.6318 6.54928 16.6318Z" fill="#E78244"/>
<path d="M4.48566 19.6407C4.36497 19.6409 4.24803 19.5988 4.15509 19.5219C4.06214 19.4449 3.99903 19.3378 3.9767 19.2192C3.95437 19.1006 3.97422 18.9779 4.03281 18.8724C4.0914 18.7669 4.18504 18.6852 4.29752 18.6415L5.66362 18.1243C5.7269 18.0996 5.79443 18.0876 5.86235 18.089C5.93026 18.0904 5.99723 18.1051 6.05944 18.1324C6.12165 18.1597 6.17787 18.199 6.22491 18.248C6.27194 18.297 6.30885 18.3548 6.33355 18.4181C6.35824 18.4814 6.37023 18.5489 6.36883 18.6168C6.36742 18.6847 6.35266 18.7517 6.32537 18.8139C6.29809 18.8761 6.25881 18.9324 6.2098 18.9794C6.16078 19.0264 6.10299 19.0633 6.0397 19.088L4.67354 19.6052C4.61366 19.6286 4.54995 19.6407 4.48566 19.6407Z" fill="#E78244"/>
<path d="M7.77968 18.3711C7.65903 18.3712 7.54213 18.3291 7.44921 18.2522C7.3563 18.1752 7.29322 18.0681 7.2709 17.9496C7.24857 17.831 7.2684 17.7084 7.32696 17.6029C7.38551 17.4974 7.47911 17.4157 7.59155 17.3719L8.0734 17.1838C8.2012 17.134 8.34358 17.1369 8.46921 17.192C8.59484 17.2471 8.69343 17.3499 8.74329 17.4777C8.79315 17.6055 8.7902 17.7479 8.73509 17.8735C8.67998 17.9991 8.57722 18.0977 8.44941 18.1476L7.96756 18.3356C7.90769 18.359 7.84397 18.371 7.77968 18.3711Z" fill="#E78244"/>
<path d="M10.6677 11.3774H11.8953C12.3036 11.3774 12.7038 11.4912 13.0511 11.7058C13.3984 11.9205 13.679 12.2277 13.8615 12.5929L14.2882 13.4463H13.0607C12.6525 13.4463 12.2523 13.3326 11.9051 13.118C11.5578 12.9034 11.2772 12.5963 11.0946 12.2312L10.6677 11.3774Z" fill="#02A437"/>
<path d="M13.1674 16.42C13.0302 16.42 12.8986 16.3655 12.8016 16.2685C12.7046 16.1715 12.6501 16.0399 12.6501 15.9028C12.652 15.0544 12.9468 14.2328 13.4846 13.5768C14.0224 12.9207 14.7703 12.4705 15.6018 12.3023L15.6521 12.2923C15.7866 12.2654 15.9263 12.293 16.0404 12.3691C16.1545 12.4452 16.2338 12.5636 16.2606 12.6981C16.2875 12.8326 16.2599 12.9723 16.1838 13.0864C16.1077 13.2005 15.9893 13.2798 15.8548 13.3067L15.8046 13.3167C15.2074 13.4375 14.6702 13.7608 14.2839 14.232C13.8976 14.7033 13.6859 15.2934 13.6846 15.9028C13.6846 16.0399 13.6301 16.1715 13.5331 16.2685C13.4361 16.3655 13.3045 16.42 13.1674 16.42Z" fill="#8F6934"/>
<path d="M19.2865 21.8695L19.2794 21.8792C19.0619 22.1695 18.7758 22.4012 18.4466 22.5536L15.3543 22.3603C15.164 22.2274 14.9962 22.065 14.8571 21.8792L14.85 21.8695C14.5948 21.5291 14.4568 21.1151 14.4568 20.6896C14.4568 20.2642 14.5948 19.8502 14.85 19.5097L14.8959 19.4483L15.5166 19.138L18.6199 11.895V18.6208L19.2865 19.5097C19.5417 19.8502 19.6797 20.2642 19.6797 20.6896C19.6797 21.1151 19.5417 21.5291 19.2865 21.8695Z" fill="#CBCBCB"/>
<path d="M11.3126 14.8735C11.5641 14.8735 11.8117 14.9356 12.0334 15.0543C12.2551 15.1729 12.4441 15.3445 12.5836 15.5537C12.6474 15.6494 12.7338 15.7278 12.8351 15.782C12.9365 15.8363 13.0496 15.8647 13.1646 15.8647C13.2795 15.8647 13.3927 15.8363 13.494 15.782C13.5954 15.7278 13.6818 15.6494 13.7455 15.5537C13.885 15.3445 14.074 15.1729 14.2957 15.0543C14.5174 14.9356 14.765 14.8735 15.0165 14.8735C15.2455 14.8735 15.4717 14.9251 15.6782 15.0243C15.8846 15.1235 16.0661 15.2679 16.2092 15.4468L16.3307 15.5986C16.7659 16.1426 17.0213 16.8082 17.0618 17.5037C17.1022 18.1991 16.9256 18.8899 16.5564 19.4806L15.5472 21.0953C15.4512 21.249 15.3177 21.3756 15.1592 21.4635C15.0008 21.5513 14.8226 21.5974 14.6414 21.5974C14.3581 21.5974 14.0865 21.4848 13.8862 21.2845C13.7914 21.1897 13.6789 21.1146 13.5551 21.0633C13.4313 21.012 13.2986 20.9856 13.1646 20.9856C13.0306 20.9856 12.8979 21.012 12.7741 21.0633C12.6502 21.1146 12.5377 21.1897 12.443 21.2845C12.2427 21.4848 11.971 21.5973 11.6877 21.5974C11.5066 21.5974 11.3284 21.5513 11.1699 21.4635C11.0115 21.3757 10.878 21.249 10.7819 21.0953L9.77273 19.4806C9.40354 18.8899 9.22696 18.1991 9.26739 17.5037C9.30782 16.8082 9.56327 16.1426 9.99843 15.5986L10.1198 15.4468C10.263 15.2679 10.4445 15.1235 10.6509 15.0243C10.8574 14.9251 11.0835 14.8735 11.3126 14.8735Z" fill="#E82F3E"/>
<path d="M11.6784 19.1359C11.6105 19.136 11.5432 19.1226 11.4804 19.0966C11.4177 19.0706 11.3607 19.0325 11.3127 18.9844C11.085 18.7572 10.9346 18.464 10.8831 18.1465C10.8315 17.829 10.8813 17.5033 11.0254 17.2157L11.2156 16.8355C11.2776 16.7139 11.3851 16.6218 11.5147 16.5791C11.6444 16.5365 11.7856 16.5468 11.9077 16.6078C12.0297 16.6689 12.1227 16.7757 12.1664 16.905C12.21 17.0343 12.2008 17.1756 12.1407 17.2982L11.9507 17.6784C11.9039 17.7718 11.8877 17.8775 11.9044 17.9806C11.9211 18.0837 11.97 18.179 12.0439 18.2527C12.1163 18.3251 12.1656 18.4172 12.1856 18.5176C12.2056 18.6179 12.1954 18.7219 12.1563 18.8165C12.1172 18.911 12.0509 18.9918 11.9658 19.0487C11.8807 19.1055 11.7807 19.1359 11.6784 19.1359Z" fill="#FF6268"/>
<path d="M0.000976562 23.7925H29.9996V26.8958H0.000976562V23.7925Z" fill="#EA9D2D"/>
<path d="M3.10536 25.8621H2.07093C1.93375 25.8621 1.8022 25.8076 1.7052 25.7106C1.6082 25.6136 1.55371 25.482 1.55371 25.3449C1.55371 25.2077 1.6082 25.0761 1.7052 24.9791C1.8022 24.8821 1.93375 24.8276 2.07093 24.8276H3.10536C3.24254 24.8276 3.37409 24.8821 3.47109 24.9791C3.56809 25.0761 3.62258 25.2077 3.62258 25.3449C3.62258 25.482 3.56809 25.6136 3.47109 25.7106C3.37409 25.8076 3.24254 25.8621 3.10536 25.8621Z" fill="#C38325"/>
<path d="M27.9284 25.8621H26.8939C26.7568 25.8621 26.6252 25.8076 26.5282 25.7106C26.4312 25.6136 26.3767 25.482 26.3767 25.3449C26.3767 25.2077 26.4312 25.0761 26.5282 24.9791C26.6252 24.8821 26.7568 24.8276 26.8939 24.8276H27.9284C28.0655 24.8276 28.1971 24.8821 28.2941 24.9791C28.3911 25.0761 28.4456 25.2077 28.4456 25.3449C28.4456 25.482 28.3911 25.6136 28.2941 25.7106C28.1971 25.8076 28.0655 25.8621 27.9284 25.8621Z" fill="#C38325"/>
<path d="M0.000976562 26.8975H29.9996V30.0008H0.000976562V26.8975Z" fill="#FBB540"/>
<path d="M3.10268 28.9671H2.06824C1.93107 28.9671 1.79951 28.9126 1.70251 28.8156C1.60552 28.7186 1.55103 28.587 1.55103 28.4498C1.55103 28.3127 1.60552 28.1811 1.70251 28.0841C1.79951 27.9871 1.93107 27.9326 2.06824 27.9326H3.10268C3.23985 27.9326 3.37141 27.9871 3.4684 28.0841C3.5654 28.1811 3.61989 28.3127 3.61989 28.4498C3.61989 28.587 3.5654 28.7186 3.4684 28.8156C3.37141 28.9126 3.23985 28.9671 3.10268 28.9671Z" fill="#C38325"/>
<path d="M15.5177 25.865H14.4833C14.3461 25.865 14.2146 25.8105 14.1176 25.7135C14.0206 25.6165 13.9661 25.485 13.9661 25.3478C13.9661 25.2106 14.0206 25.0791 14.1176 24.9821C14.2146 24.8851 14.3461 24.8306 14.4833 24.8306H15.5177C15.6549 24.8306 15.7864 24.8851 15.8834 24.9821C15.9804 25.0791 16.0349 25.2106 16.0349 25.3478C16.0349 25.485 15.9804 25.6165 15.8834 25.7135C15.7864 25.8105 15.6549 25.865 15.5177 25.865Z" fill="#C38325"/>
<path d="M15.5177 28.9671H14.4833C14.3461 28.9671 14.2146 28.9126 14.1176 28.8156C14.0206 28.7186 13.9661 28.587 13.9661 28.4498C13.9661 28.3127 14.0206 28.1811 14.1176 28.0841C14.2146 27.9871 14.3461 27.9326 14.4833 27.9326H15.5177C15.6549 27.9326 15.7864 27.9871 15.8834 28.0841C15.9804 28.1811 16.0349 28.3127 16.0349 28.4498C16.0349 28.587 15.9804 28.7186 15.8834 28.8156C15.7864 28.9126 15.6549 28.9671 15.5177 28.9671Z" fill="#C38325"/>
<path d="M27.9293 28.9671H26.8949C26.7577 28.9671 26.6262 28.9126 26.5292 28.8156C26.4322 28.7186 26.3777 28.587 26.3777 28.4498C26.3777 28.3127 26.4322 28.1811 26.5292 28.0841C26.6262 27.9871 26.7577 27.9326 26.8949 27.9326H27.9293C28.0665 27.9326 28.1981 27.9871 28.2951 28.0841C28.3921 28.1811 28.4466 28.3127 28.4466 28.4498C28.4466 28.587 28.3921 28.7186 28.2951 28.8156C28.1981 28.9126 28.0665 28.9671 27.9293 28.9671Z" fill="#C38325"/>
<path d="M21.2078 17.588L21.6622 18.0425C22.0101 18.3903 22.286 18.8033 22.4743 19.2578C22.6625 19.7123 22.7594 20.1994 22.7594 20.6913H24.3111V20.1741C24.3111 19.6822 24.2142 19.195 24.0259 18.7405C23.8377 18.286 23.5617 17.8731 23.2139 17.5252L22.7594 17.0708L21.2078 17.588Z" fill="#027E2A"/>
<path d="M27.4131 17.588L26.9587 18.0425C26.6108 18.3903 26.3349 18.8033 26.1466 19.2578C25.9584 19.7123 25.8615 20.1994 25.8615 20.6913H24.3098V20.1741C24.3098 19.6822 24.4067 19.195 24.595 18.7405C24.7832 18.286 25.0592 17.8731 25.407 17.5252L25.8615 17.0708L27.4131 17.588Z" fill="#027E2A"/>
<path d="M30.0002 13.5799C30.0005 13.2953 29.938 13.0141 29.8171 12.7564C29.6962 12.4986 29.52 12.2708 29.301 12.0889C29.3663 11.8147 29.371 11.5295 29.3147 11.2532C29.2585 10.9769 29.1427 10.7163 28.9754 10.4894C28.808 10.2624 28.5932 10.0748 28.3459 9.93939C28.0986 9.80401 27.8248 9.7242 27.5435 9.70552C27.2035 9.11456 26.7137 8.62366 26.1236 8.28231C25.5334 7.94096 24.8637 7.76123 24.1819 7.76123C23.5001 7.76123 22.8304 7.94096 22.2402 8.28231C21.65 8.62366 21.1603 9.11456 20.8203 9.70552C20.5389 9.72416 20.2651 9.80393 20.0177 9.93929C19.7704 10.0746 19.5555 10.2623 19.3882 10.4892C19.2208 10.7161 19.105 10.9768 19.0487 11.2531C18.9924 11.5294 18.9971 11.8146 19.0624 12.0889C18.6689 12.4161 18.4206 12.8855 18.3719 13.395C18.3231 13.9044 18.4777 14.4124 18.802 14.8083C18.5204 15.3305 18.4269 15.9336 18.5372 16.5165C18.6475 17.0994 18.9548 17.6267 19.4077 18.0099C19.8606 18.3932 20.4314 18.609 21.0245 18.6214C21.6177 18.6337 22.197 18.4417 22.6654 18.0776C23.2157 18.0057 23.738 17.7926 24.1816 17.4591C24.6251 17.7927 25.1474 18.0058 25.6977 18.0777C26.1661 18.4419 26.7455 18.6339 27.3386 18.6216C27.9318 18.6093 28.5027 18.3934 28.9556 18.0101C29.4085 17.6269 29.7158 17.0995 29.826 16.5166C29.9363 15.9336 29.8427 15.3305 29.5611 14.8083C29.8455 14.4622 30.0008 14.0279 30.0002 13.5799Z" fill="#02A437"/>
<path d="M25.6446 11.3795C25.5376 11.3795 25.4333 11.3463 25.3459 11.2845C25.2586 11.2228 25.1925 11.1354 25.1569 11.0345C25.0855 10.8328 24.9534 10.6582 24.7786 10.5348C24.6039 10.4113 24.3952 10.345 24.1813 10.345C23.9673 10.345 23.7586 10.4113 23.5839 10.5348C23.4092 10.6582 23.277 10.8328 23.2056 11.0345C23.1599 11.1639 23.0647 11.2697 22.9409 11.3289C22.8171 11.388 22.6749 11.3955 22.5456 11.3498C22.4162 11.3041 22.3103 11.2089 22.2512 11.0851C22.1921 10.9613 22.1845 10.8191 22.2302 10.6898C22.373 10.2864 22.6372 9.93718 22.9866 9.69018C23.336 9.44318 23.7534 9.31055 24.1813 9.31055C24.6091 9.31055 25.0265 9.44318 25.3759 9.69018C25.7253 9.93718 25.9895 10.2864 26.1323 10.6898C26.1599 10.7678 26.1683 10.8513 26.157 10.9333C26.1456 11.0153 26.1147 11.0933 26.067 11.1609C26.0192 11.2285 25.9559 11.2836 25.8824 11.3216C25.8089 11.3597 25.7273 11.3795 25.6446 11.3795Z" fill="#027E2A"/>
<path d="M21.5941 15.0017C21.1826 15.0017 20.7879 14.8383 20.4969 14.5473C20.206 14.2563 20.0425 13.8616 20.0425 13.4501C20.0425 13.0386 20.206 12.6439 20.4969 12.3529C20.7879 12.0619 21.1826 11.8984 21.5941 11.8984C21.7313 11.8984 21.8629 11.9529 21.9599 12.0499C22.0569 12.1469 22.1113 12.2785 22.1113 12.4157C22.1113 12.5528 22.0569 12.6844 21.9599 12.7814C21.8629 12.8784 21.7313 12.9329 21.5941 12.9329C21.457 12.9329 21.3254 12.9874 21.2284 13.0844C21.1314 13.1814 21.0769 13.3129 21.0769 13.4501C21.0769 13.5873 21.1314 13.7188 21.2284 13.8158C21.3254 13.9128 21.457 13.9673 21.5941 13.9673C21.7313 13.9673 21.8629 14.0218 21.9599 14.1188C22.0569 14.2158 22.1113 14.3473 22.1113 14.4845C22.1113 14.6217 22.0569 14.7533 21.9599 14.8503C21.8629 14.9472 21.7313 15.0017 21.5941 15.0017Z" fill="#027E2A"/>
<path d="M0.000976562 20.6899H29.9996V23.7932H0.000976562V20.6899Z" fill="#FBB540"/>
<path d="M3.10536 22.7566H2.07093C1.93375 22.7566 1.8022 22.7021 1.7052 22.6051C1.6082 22.5081 1.55371 22.3766 1.55371 22.2394C1.55371 22.1022 1.6082 21.9707 1.7052 21.8737C1.8022 21.7767 1.93375 21.7222 2.07093 21.7222H3.10536C3.24254 21.7222 3.37409 21.7767 3.47109 21.8737C3.56809 21.9707 3.62258 22.1022 3.62258 22.2394C3.62258 22.3766 3.56809 22.5081 3.47109 22.6051C3.37409 22.7021 3.24254 22.7566 3.10536 22.7566Z" fill="#C38325"/>
<path d="M27.9284 22.7566H26.8939C26.7568 22.7566 26.6252 22.7021 26.5282 22.6051C26.4312 22.5081 26.3767 22.3766 26.3767 22.2394C26.3767 22.1022 26.4312 21.9707 26.5282 21.8737C26.6252 21.7767 26.7568 21.7222 26.8939 21.7222H27.9284C28.0655 21.7222 28.1971 21.7767 28.2941 21.8737C28.3911 21.9707 28.4456 22.1022 28.4456 22.2394C28.4456 22.3766 28.3911 22.5081 28.2941 22.6051C28.1971 22.7021 28.0655 22.7566 27.9284 22.7566Z" fill="#C38325"/>
<path d="M15.5202 22.7566H14.4857C14.3485 22.7566 14.217 22.7021 14.12 22.6051C14.023 22.5081 13.9685 22.3766 13.9685 22.2394C13.9685 22.1022 14.023 21.9707 14.12 21.8737C14.217 21.7767 14.3485 21.7222 14.4857 21.7222H15.5202C15.6573 21.7222 15.7889 21.7767 15.8859 21.8737C15.9829 21.9707 16.0374 22.1022 16.0374 22.2394C16.0374 22.3766 15.9829 22.5081 15.8859 22.6051C15.7889 22.7021 15.6573 22.7566 15.5202 22.7566Z" fill="#C38325"/>
</svg>
