<svg width="19" height="18" viewBox="0 0 19 18" fill="none" xmlns="http://www.w3.org/2000/svg">
<path d="M13.2118 0.601562H10.6135L6.16016 3.84381H8.75844L13.2118 0.601562Z" fill="#A6A6A6"/>
<path d="M17.7019 0.601562H15.0666L10.6133 3.84381H13.2116L17.7019 0.601562Z" fill="#A6A6A6"/>
<path d="M15.0664 3.8457H19.0003V1.14384C19.0003 1.10216 18.9851 1.06535 18.9759 1.02637L15.0664 3.8457Z" fill="#A6A6A6"/>
<path d="M1.67188 3.84381H4.30727L8.76062 0.601562H6.1623L1.67188 3.84381Z" fill="#A6A6A6"/>
<path d="M0 17.3524C0 17.6511 0.248967 17.8928 0.556641 17.8928H18.4434C18.751 17.8928 19 17.6511 19 17.3524V4.92383H0V17.3524ZM6.7168 7.62569C6.7168 7.43097 6.82441 7.25154 6.99894 7.15549C7.17346 7.05945 7.38762 7.06208 7.55992 7.16234L13.1263 10.4046C13.2938 10.5022 13.3965 10.6779 13.3965 10.8679C13.3965 11.0578 13.2937 11.2336 13.1263 11.3312L7.55992 14.5734C7.38751 14.6737 7.17328 14.6762 6.99894 14.5803C6.82441 14.4843 6.7168 14.3049 6.7168 14.1102V7.62569Z" fill="#A6A6A6"/>
<path d="M0.556641 0.601562C0.248967 0.601562 0 0.84325 0 1.14193V3.70892L4.30528 0.601562H0.556641Z" fill="#A6A6A6"/>
<path d="M7.82812 8.5791V13.1542L11.7561 10.8667L7.82812 8.5791Z" fill="#A6A6A6"/>
</svg>
