<svg width="41" height="41" viewBox="0 0 41 41" fill="none" xmlns="http://www.w3.org/2000/svg">
    <circle cx="20.2675" cy="20.4442" r="20.2675" fill="#00E676" />
    <g clip-path="url(#clip0_5_11863)">
        <path
            d="M20.2698 10.3125H20.2647C14.6773 10.3125 10.1335 14.8575 10.1335 20.4462C10.1335 22.663 10.848 24.7176 12.0628 26.3859L10.7998 30.1505L14.695 28.9054C16.2974 29.9669 18.2089 30.58 20.2698 30.58C25.8573 30.58 30.401 26.0337 30.401 20.4462C30.401 14.8587 25.8573 10.3125 20.2698 10.3125ZM26.1664 24.6226C25.9219 25.313 24.9516 25.8855 24.1776 26.0527C23.6481 26.1655 22.9565 26.2554 20.6283 25.2902C17.6502 24.0564 15.7324 21.0302 15.583 20.8338C15.4398 20.6375 14.3796 19.2314 14.3796 17.7773C14.3796 16.3231 15.1181 15.615 15.4158 15.311C15.6602 15.0614 16.0643 14.9474 16.4519 14.9474C16.5773 14.9474 16.6901 14.9537 16.7914 14.9588C17.0891 14.9715 17.2386 14.9892 17.4349 15.4592C17.6794 16.0482 18.2747 17.5024 18.3457 17.6519C18.4179 17.8013 18.4901 18.004 18.3887 18.2003C18.2937 18.403 18.2101 18.493 18.0607 18.6652C17.9112 18.8375 17.7693 18.9692 17.6198 19.1542C17.483 19.3151 17.3285 19.4873 17.5008 19.785C17.673 20.0763 18.2684 21.0479 19.145 21.8282C20.2761 22.8353 21.1932 23.157 21.5213 23.2938C21.7658 23.3951 22.0571 23.3711 22.2358 23.1811C22.4625 22.9366 22.7424 22.5312 23.0274 22.1322C23.2301 21.846 23.486 21.8105 23.7545 21.9118C24.0282 22.0068 25.476 22.7225 25.7737 22.8707C26.0714 23.0202 26.2677 23.0911 26.3399 23.2165C26.4108 23.3419 26.4108 23.931 26.1664 24.6226Z"
            fill="#EEEEEE" />
    </g>
    <defs>
        <clipPath id="clip0_5_11863">
            <rect width="20.2675" height="20.2675" fill="white"
                transform="translate(10.1335 10.3125)" />
        </clipPath>
    </defs>
</svg>
