<svg width="41" height="42" viewBox="0 0 41 42" fill="none" xmlns="http://www.w3.org/2000/svg">
<circle cx="20.2675" cy="20.7401" r="20.2675" fill="#F70000"/>
<path d="M30.6 15.271L30.6271 15.4476C30.3658 14.5207 29.6605 13.8054 28.7643 13.5451L28.7453 13.5406C27.06 13.083 20.2781 13.083 20.2781 13.083C20.2781 13.083 13.5132 13.074 11.8108 13.5406C10.8974 13.8054 10.1912 14.5207 9.93445 15.4286L9.92994 15.4476C9.3003 18.7363 9.2958 22.688 9.95787 26.2091L9.92994 26.0308C10.1912 26.9577 10.8965 27.6729 11.7927 27.9332L11.8117 27.9377C13.4952 28.3962 20.279 28.3962 20.279 28.3962C20.279 28.3962 27.0429 28.3962 28.7462 27.9377C29.6605 27.6729 30.3667 26.9577 30.6235 26.0497L30.628 26.0308C30.9144 24.5013 31.0784 22.7411 31.0784 20.9432C31.0784 20.8774 31.0784 20.8108 31.0775 20.7441C31.0784 20.6829 31.0784 20.6099 31.0784 20.5369C31.0784 18.7381 30.9144 16.978 30.6 15.271ZM18.1144 24.0283V17.459L23.7587 20.7486L18.1144 24.0283Z" fill="white"/>
</svg>
