<svg width="24" height="24" viewBox="0 0 24 24" fill="none" xmlns="http://www.w3.org/2000/svg">
<rect width="24" height="24" rx="3" fill="white"/>
<g clip-path="url(#clip0_25_1048)">
<path d="M13.4102 8.01465L6.80759 14.6177C6.77437 14.651 6.75039 14.6931 6.73897 14.7383L6.00713 17.6757C5.98524 17.7641 6.01123 17.8582 6.07576 17.9227C6.12459 17.9715 6.19112 17.9986 6.25917 17.9986C6.28001 17.9986 6.30133 17.996 6.32208 17.9907L9.2595 17.2588C9.30528 17.2474 9.34687 17.2235 9.38009 17.1903L15.9832 10.5877L13.4102 8.01465Z" fill="#2E363F"/>
<path d="M17.6198 7.11493L16.8848 6.37995C16.3936 5.88874 15.5374 5.88921 15.0468 6.37995L14.1465 7.28025L16.7195 9.85323L17.6198 8.95293C17.8651 8.70765 18.0003 8.38119 18.0003 8.03398C18.0003 7.68676 17.8651 7.3603 17.6198 7.11493Z" fill="#2E363F"/>
</g>
<defs>
<clipPath id="clip0_25_1048">
<rect width="12" height="12" fill="white" transform="translate(6 6)"/>
</clipPath>
</defs>
</svg>
