<svg width="38" height="38" viewBox="0 0 38 38" fill="none" xmlns="http://www.w3.org/2000/svg">
<rect width="38" height="38" rx="5" fill="#D5DBFF"/>
<g clip-path="url(#clip0_2_2068)">
<path d="M18.6204 23.5518H19.379V30H18.6204V23.5518Z" fill="#5568CC"/>
<path d="M12.5515 23.5518H17.8619V30H12.5515V23.5518Z" fill="#5568CC"/>
<path d="M20.1377 30H25.448V23.5518H20.1377V30ZM23.9308 28.4828H24.6894V29.2414H23.9308V28.4828ZM22.4136 28.4828H23.1722V29.2414H22.4136V28.4828ZM20.8963 28.4828H21.6549V29.2414H20.8963V28.4828Z" fill="#5568CC"/>
<path d="M9.51709 13.6895H10.2757V14.4481H9.51709V13.6895Z" fill="#5568CC"/>
<path d="M9.51709 15.2061H10.2757V19.7578H9.51709V15.2061Z" fill="#5568CC"/>
<path d="M11.0344 21.2764H11.793V22.035H11.0344V21.2764Z" fill="#5568CC"/>
<path d="M11.0344 15.9658H11.793V20.5175H11.0344V15.9658Z" fill="#5568CC"/>
<path d="M26.2063 21.2764H26.9649V22.035H26.2063V21.2764Z" fill="#5568CC"/>
<path d="M26.2063 15.9658H26.9649V20.5175H26.2063V15.9658Z" fill="#5568CC"/>
<path d="M27.7236 13.6895H28.4823V14.4481H27.7236V13.6895Z" fill="#5568CC"/>
<path d="M27.7236 15.2061H28.4823V19.7578H27.7236V15.2061Z" fill="#5568CC"/>
<path d="M29.2407 11.7939H29.9993V12.5526H29.2407V11.7939Z" fill="#5568CC"/>
<path d="M29.2407 13.3105H29.9993V17.8623H29.2407V13.3105Z" fill="#5568CC"/>
<path d="M8 11.7939H8.75862V12.5526H8V11.7939Z" fill="#5568CC"/>
<path d="M8 13.3105H8.75862V17.8623H8V13.3105Z" fill="#5568CC"/>
<path d="M20.1377 10.6553H26.2067V12.1725H20.1377V10.6553Z" fill="#5568CC"/>
<path d="M23.5518 9.23017C23.5518 8.55193 23.0003 8 22.322 8C21.9933 8 21.6845 8.12779 21.4526 8.36005L19.9158 9.89655H23.5518V9.23017Z" fill="#5568CC"/>
<path d="M11.7937 10.6553H17.8627V12.1725H11.7937V10.6553Z" fill="#5568CC"/>
<path d="M16.548 8.36042C16.3158 8.12779 16.007 8 15.6783 8C15 8 14.4485 8.55193 14.4485 9.23017V9.89655H18.0845L16.548 8.36042Z" fill="#5568CC"/>
<path d="M18.6204 10.6553H19.379V12.1725H18.6204V10.6553Z" fill="#5568CC"/>
<path d="M14.8281 17.8619C14.8281 20.1662 16.6962 22.0343 19.0005 22.0343C21.3049 22.0343 23.173 20.1662 23.173 17.8619C23.173 15.5575 21.3049 13.6895 19.0005 13.6895C16.6962 13.6895 14.8281 15.5575 14.8281 17.8619ZM19.7592 15.586C20.3865 15.586 20.8971 16.0966 20.8971 16.7239H20.1385C20.1385 16.515 19.9684 16.3446 19.7592 16.3446H18.2419C18.0326 16.3446 17.8626 16.515 17.8626 16.7239V17.1032C17.8626 17.3122 18.0326 17.4826 18.2419 17.4826H19.7592C20.3865 17.4826 20.8971 17.9932 20.8971 18.6205V18.9998C20.8971 19.6271 20.3865 20.1377 19.7592 20.1377H19.3798V20.517H18.6212V20.1377H18.2419C17.6146 20.1377 17.104 19.6271 17.104 18.9998H17.8626C17.8626 19.2087 18.0326 19.3791 18.2419 19.3791H19.7592C19.9684 19.3791 20.1385 19.2087 20.1385 18.9998V18.6205C20.1385 18.4116 19.9684 18.2412 19.7592 18.2412H18.2419C17.6146 18.2412 17.104 17.7306 17.104 17.1032V16.7239C17.104 16.0966 17.6146 15.586 18.2419 15.586H18.6212V15.2067H19.3798V15.586H19.7592Z" fill="#5568CC"/>
</g>
<defs>
<clipPath id="clip0_2_2068">
<rect width="22" height="22" fill="white" transform="translate(8 8)"/>
</clipPath>
</defs>
</svg>
