<svg width="285" height="197" viewBox="0 0 285 197" fill="none" xmlns="http://www.w3.org/2000/svg">
<g clip-path="url(#clip0_2_5)">
<path d="M24.298 191.854H37.079V196.431H19.4688V166.849H36.6618V171.412H24.298V179.124H35.5241V183.587H24.298V191.854Z" fill="#FE4D5F"/>
<path d="M80.2135 166.849H85.5104L74.0062 196.431H69.4551L57.6602 166.849H63.0204L71.7054 189.516L80.2135 166.849Z" fill="#FE4D5F"/>
<path d="M113.019 191.854H125.788V196.431H108.089V166.849H125.269V171.412H113.019V179.124H124.245V183.587H113.019V191.854Z" fill="#FE4D5F"/>
<path d="M169.263 166.849H174.017V196.431H169.908L154.535 175.306V196.431H149.807V166.849H154.207L169.263 187.619V166.849Z" fill="#FE4D5F"/>
<path d="M219.048 166.849V171.387H210.362V196.431H205.521V171.387H196.861V166.849H219.048Z" fill="#FE4D5F"/>
<path d="M262.372 194.99C259.913 196.302 257.169 196.988 254.382 196.988C251.595 196.988 248.851 196.302 246.392 194.99C244.05 193.708 242.111 191.799 240.792 189.478C239.465 187.079 238.769 184.382 238.769 181.64C238.769 178.899 239.465 176.202 240.792 173.802C242.115 171.484 244.053 169.577 246.392 168.29C248.851 166.979 251.595 166.293 254.382 166.293C257.169 166.293 259.913 166.979 262.372 168.29C264.7 169.581 266.629 171.488 267.947 173.802C269.266 176.204 269.957 178.9 269.957 181.64C269.957 184.381 269.266 187.076 267.947 189.478C266.633 191.795 264.703 193.703 262.372 194.99ZM254.382 192.31C255.791 192.345 257.193 192.093 258.502 191.568C259.811 191.044 260.999 190.259 261.995 189.261C262.991 188.263 263.773 187.072 264.294 185.762C264.816 184.452 265.065 183.05 265.026 181.64C265.065 180.231 264.816 178.828 264.294 177.518C263.773 176.208 262.991 175.018 261.995 174.02C260.999 173.022 259.811 172.236 258.502 171.712C257.193 171.188 255.791 170.936 254.382 170.97C252.471 170.947 250.588 171.427 248.921 172.361C247.338 173.261 246.028 174.571 245.128 176.154C244.221 177.822 243.745 179.691 243.745 181.59C243.745 183.489 244.221 185.358 245.128 187.026C246.028 188.608 247.338 189.919 248.921 190.818C250.578 191.788 252.462 192.303 254.382 192.31Z" fill="#FE4D5F"/>
<path d="M47.5337 117.065H28.7225V129.985H45.8397V136.862H28.7225V155.674H21.2131V110.023H47.5337V117.065Z" fill="#25364F"/>
<path d="M63.134 148.607H82.8302V155.674H55.6121V110.023H82.1602V117.065H63.1972V128.974H80.4409V135.838H63.134V148.607Z" fill="#25364F"/>
<path d="M106.104 156.369C100.921 156.369 96.7533 155.016 93.6012 152.311C92.0352 150.953 90.7965 149.258 89.9778 147.353C89.159 145.449 88.7814 143.384 88.8731 141.312H96.4583C96.4098 142.425 96.6291 143.532 97.0977 144.542C97.5663 145.552 98.2705 146.434 99.151 147.115C101.099 148.438 103.39 149.166 105.744 149.211C108.099 149.256 110.415 148.616 112.412 147.368C113.226 146.838 113.892 146.109 114.347 145.251C114.803 144.393 115.033 143.434 115.017 142.463C115.022 142.038 114.98 141.614 114.89 141.199C114.807 140.809 114.657 140.437 114.448 140.099C114.237 139.762 114.035 139.458 113.841 139.189C113.593 138.87 113.283 138.603 112.931 138.405C112.514 138.152 112.185 137.937 111.919 137.76C111.526 137.511 111.101 137.315 110.655 137.179L109.315 136.711C108.999 136.584 108.493 136.445 107.811 136.256L106.281 135.876L104.638 135.484C101.762 134.872 98.9513 133.987 96.2434 132.842C94.4945 132.123 92.9698 130.949 91.8273 129.441C90.6848 127.934 89.966 126.149 89.7454 124.271C89.6575 123.66 89.6153 123.043 89.619 122.425C89.5331 120.598 89.8786 118.776 90.6275 117.107C91.3764 115.438 92.5077 113.968 93.9299 112.817C96.8122 110.504 100.693 109.354 105.598 109.354C110.504 109.354 114.372 110.618 117.166 113.146C118.571 114.442 119.674 116.031 120.397 117.801C121.12 119.57 121.446 121.477 121.35 123.386H113.993C114.038 122.395 113.843 121.407 113.425 120.507C113.007 119.607 112.377 118.821 111.591 118.216C109.812 116.907 107.641 116.242 105.434 116.332C103.35 116.256 101.288 116.792 99.505 117.874C98.7691 118.309 98.1615 118.932 97.7441 119.678C97.3266 120.424 97.1142 121.267 97.1283 122.122C97.1183 122.754 97.2343 123.381 97.4696 123.968C97.7069 124.548 98.0901 125.058 98.5821 125.447C99.0571 125.86 99.5692 126.228 100.112 126.547C100.784 126.923 101.497 127.224 102.236 127.444C103.159 127.735 103.93 127.975 104.562 128.14C105.194 128.304 106.079 128.531 107.217 128.81C110.126 129.446 112.97 130.352 115.712 131.515C119.682 133.453 121.953 136.348 122.526 140.2C122.639 140.928 122.694 141.663 122.69 142.4C122.751 145.101 121.964 147.754 120.44 149.985C118.961 152.126 116.886 153.788 114.473 154.764C111.818 155.849 108.973 156.395 106.104 156.369Z" fill="#25364F"/>
<path d="M160.363 110.023V117.027H146.963V155.674H139.567V117.027H126.154V110.023H160.363Z" fill="#25364F"/>
<path d="M194.775 154.27C191.879 155.758 188.67 156.534 185.414 156.534C182.158 156.534 178.949 155.758 176.052 154.27C173.313 152.82 171.035 150.63 169.478 147.949C167.862 145.118 167.037 141.905 167.089 138.645V110.023H174.598V138.139C174.535 139.625 174.769 141.109 175.288 142.503C175.807 143.897 176.6 145.173 177.62 146.255C179.728 148.228 182.507 149.326 185.395 149.326C188.282 149.326 191.061 148.228 193.169 146.255C194.188 145.172 194.979 143.896 195.496 142.502C196.012 141.108 196.244 139.624 196.178 138.139V110.023H203.763V138.607C203.816 141.867 202.99 145.08 201.374 147.911C199.814 150.608 197.527 152.811 194.775 154.27Z" fill="#25364F"/>
<path d="M269.034 155.674H261.449L256.164 122.602L241.335 154.978H239.439L224.509 122.64L219.212 155.674H211.627L219.098 110.023H226.456L240.362 141.059L254.344 110.023H261.815L269.034 155.674Z" fill="#25364F"/>
<path d="M159.188 111.212H127.33V115.852H140.705V126.433L145.762 126.951V115.852H159.163L159.188 111.212Z" fill="#25364F"/>
<path d="M116.407 113.992C113.879 111.704 110.225 110.541 105.624 110.541C101.022 110.541 97.3432 111.628 94.701 113.752C93.5294 114.7 92.5819 115.896 91.9263 117.253C91.2706 118.61 90.9231 120.096 90.9084 121.603L95.9652 122.033C95.9639 120.997 96.231 119.978 96.7406 119.077C97.2502 118.175 97.9849 117.42 98.8729 116.887C100.843 115.679 103.124 115.073 105.434 115.143C107.89 115.058 110.303 115.802 112.286 117.254C113.065 117.841 113.714 118.581 114.195 119.429C114.675 120.277 114.977 121.215 115.08 122.184H120.137C120.098 120.638 119.747 119.116 119.106 117.708C118.466 116.301 117.548 115.037 116.407 113.992Z" fill="#25364F"/>
<path d="M46.3455 111.212H22.3889V124.094C24.0956 123.702 25.8149 123.348 27.5342 123.007V115.877H46.3455V111.212Z" fill="#25364F"/>
<path d="M80.9467 111.212H56.8005V120.226C58.4946 120.226 60.2139 120.226 61.9458 120.226V115.877H80.9088L80.9467 111.212Z" fill="#25364F"/>
<path d="M165.901 108.847H175.787V129.479C182.462 129.808 188.871 129.909 194.99 129.833V108.847H204.901V129.542C208.277 129.391 211.538 129.176 214.711 128.923L217.948 108.847H227.075L234.989 126.546C239.022 125.914 242.827 125.282 246.367 124.486L253.396 108.873H262.65L264.508 119.985C278.25 115.889 285.102 112.16 284.091 112.501C281.562 113.335 267.315 115.851 267.315 115.851V83.9175L263.952 86.4459V99.0879L255.558 99.9349C257.239 95.7377 252.208 94.0563 252.208 94.0563V88.9996H249.679V94.0563C248.763 94.3559 247.959 94.9254 247.372 95.6903C246.786 96.4551 246.444 97.3795 246.392 98.342L234.458 79.9352C237.942 77.7831 240.991 74.9957 243.447 71.718C244.37 72.9491 245.489 74.021 246.759 74.8911C249.199 76.5219 252.283 76.8506 253.244 75.3715C254.205 73.8924 252.422 71.5789 249.717 70.3147C248.285 69.6679 246.763 69.2416 245.204 69.0505C247.93 64.515 249.372 59.3237 249.376 54.0318C249.374 52.8529 249.302 51.6751 249.161 50.5047C250.752 50.9192 252.399 51.0813 254.041 50.9851C257.037 50.7449 259.616 49.1394 259.312 47.4327C259.009 45.726 256 44.9928 253.092 45.6755C251.515 46.0641 250.011 46.709 248.642 47.5844C247.138 41.1562 243.59 35.3893 238.529 31.1498L238.617 31.0487C240.218 30.4208 241.691 29.5085 242.966 28.356C245.09 26.3838 245.937 23.6026 244.521 22.4774C243.105 21.3523 240.299 22.6039 238.554 24.8794C237.559 26.2004 236.834 27.7037 236.418 29.3041L236.317 29.4179C230.768 25.4497 224.171 23.2069 217.354 22.9705V22.4269C218.137 20.9813 218.631 19.3967 218.807 17.762C219.048 14.9681 217.771 12.3386 215.912 12.3386C214.054 12.3386 212.777 14.9681 213.017 17.762C213.194 19.3967 213.688 20.9813 214.471 22.4269V22.9705C208.225 23.199 202.156 25.1028 196.899 28.4824L196.368 27.8124C196.028 26.1969 195.375 24.6637 194.446 23.2992C192.803 20.9478 190.06 19.5951 188.593 20.657C187.127 21.7189 187.847 24.5254 189.857 26.5861C191.081 27.7826 192.506 28.754 194.067 29.4558L194.623 30.0753C189.506 33.9799 185.729 39.3784 183.814 45.5238L182.942 45.3215C181.556 44.2956 179.997 43.525 178.34 43.0459C175.458 42.2369 172.424 42.8563 172.019 44.5503C171.615 46.2444 174.131 47.951 177.076 48.3429C178.82 48.5268 180.582 48.407 182.285 47.989L183.094 48.1407C181.799 54.3692 182.59 60.8508 185.344 66.5853L184.788 66.8508C183.056 66.9009 181.346 67.2472 179.731 67.8748C178.923 68.2029 178.169 68.6504 177.493 69.2022V66.2945C181.691 62.9444 175.812 63.7662 175.812 63.7662V52.8688H171.615V63.7788C171.615 63.7788 168.265 63.7788 168.265 64.6132C168.265 65.4475 171.615 67.1416 171.615 67.1416V88.9616C171.615 90.643 164.03 90.643 164.03 90.643V79.7203C163.183 77.1919 159.833 77.1919 159.833 77.1919V67.0784L149.719 62.0216L140.49 67.0784V77.1919C140.048 77.0715 139.587 77.0419 139.133 77.1049C138.68 77.1679 138.243 77.3223 137.851 77.5586C137.459 77.7949 137.118 78.1083 136.851 78.4799C136.583 78.8514 136.393 79.2734 136.293 79.7203V88.1146C127.899 87.2803 127.065 94.8275 127.065 94.8275L124.536 80.5674H122.008C122.008 80.5674 118.658 60.4287 117.811 57.9003C116.964 55.3719 111.945 52.8435 106.901 56.2315C101.856 59.6196 97.6719 97.3559 97.6719 97.3559H89.3788V92.2991H83.5129V97.3559H64.2086V51.1874H60.8459V34.4115H56.6487V18.4573L49.9358 0L43.2229 19.3043V36.9272H39.8602L33.9943 42.7931H36.5227V63.7788H35.6757V67.1416H38.2041V92.3118H33.1473V78.886H31.4785V64.6132H29.7971V78.886H28.1158V90.643H24.753V78.886H23.0843V68.7724H21.4029V79.2652H19.3043V96.9261H16.7759V118.721C9.97113 121.023 4.0888 125.456 0 131.363C6.49726 128.637 13.1913 126.405 20.0249 124.688V108.847H48.7096V118.24H29.8983V122.577C38.0103 121.21 46.2117 120.441 54.4364 120.276V108.898H83.3107V118.291H64.3477V120.276C71.9329 120.39 79.9479 120.819 88.5444 121.54C88.5911 119.707 89.0359 117.906 89.848 116.263C90.6601 114.619 91.82 113.171 93.2473 112.021C96.3319 109.492 100.504 108.228 105.662 108.228C110.82 108.228 115.017 109.593 118.026 112.286C119.551 113.696 120.751 115.422 121.542 117.343C122.332 119.265 122.694 121.335 122.602 123.411V124.599H122.235L138.379 126.243V118.215H124.966V108.847H161.552V118.215H148.151V127.191L160.68 128.455C162.424 128.62 164.156 128.759 165.863 128.898L165.901 108.847ZM245.077 99.0246H242.966L237.909 90.643H236.228V96.5089H226.999V100.706L223.093 100.504L220.931 84.7392C222.069 84.5749 223.194 84.3599 224.294 84.0945C224.107 85.6248 224.205 87.1766 224.585 88.6709C225.318 91.3889 227.442 93.5001 229.199 92.9439C230.956 92.3876 231.26 89.5052 230.059 86.9389C229.377 85.5316 228.462 84.2494 227.353 83.1463C229.354 82.485 231.288 81.6385 233.131 80.6179L245.077 99.0246ZM223.384 80.9213C222.436 81.1489 221.487 81.3259 220.514 81.4649L218.428 66.2945L223.384 80.9213ZM217.783 59.6069C218.278 59.4729 218.757 59.2865 219.212 59.0507L231.386 77.824C229.688 78.7786 227.901 79.5661 226.051 80.1755L217.783 59.6069ZM232.625 77.0023L220.388 58.1278L220.577 57.9256L240.564 69.6952C238.4 72.6079 235.707 75.0869 232.625 77.0023ZM245.836 53.9939C245.839 58.7856 244.527 63.4861 242.043 67.584L221.488 56.7751C221.997 55.9183 222.268 54.9404 222.271 53.9433C222.278 53.8972 222.278 53.8504 222.271 53.8043L245.646 50.7449C245.782 51.8225 245.845 52.9079 245.836 53.9939ZM245.204 48.2924L222.044 52.4516C221.764 51.4925 221.241 50.6217 220.527 49.9232L236.215 33.4886C240.731 37.3232 243.885 42.5167 245.204 48.2924ZM217.328 26.2321C223.37 26.4673 229.213 28.4573 234.142 31.9589L219.364 49.0635C218.56 48.5882 217.663 48.2908 216.734 48.1912L217.328 26.2321ZM216.064 59.8471L219.048 81.6419C218.044 81.7435 217.035 81.7942 216.026 81.7936C212.344 81.7952 208.691 81.1534 205.23 79.8973L213.232 59.3035C214.098 59.6963 215.038 59.8989 215.988 59.8977L216.064 59.8471ZM202.777 78.8733C197.392 76.4195 192.882 72.385 189.845 67.3059L210.325 56.3959C210.724 57.2105 211.303 57.9237 212.019 58.4818L202.777 78.8733ZM214.711 26.2321L215.318 48.1912C214.553 48.2683 213.808 48.4824 213.118 48.8233L199.212 31.1246C203.836 28.1604 209.161 26.4725 214.648 26.2321H214.711ZM197.013 32.5531L211.918 49.5439C211.275 50.0481 210.746 50.6812 210.363 51.4023L187.316 46.3455C189.036 40.8823 192.4 36.0831 196.949 32.6037L197.013 32.5531ZM186.747 48.6463L209.933 52.6412C209.824 53.0538 209.769 53.4787 209.768 53.9054C209.77 54.2659 209.804 54.6255 209.87 54.98L188.669 64.9671C186.257 59.8709 185.583 54.1248 186.747 48.6084V48.6463ZM177.493 73.728C179.262 73.9629 181.057 73.5546 182.55 72.5776C183.994 71.6861 185.259 70.5328 186.28 69.1769L186.735 68.9367C190.168 74.6532 195.268 79.1834 201.349 81.92L201.286 82.0591C200.005 83.119 198.93 84.4044 198.112 85.8517C196.848 88.3801 196.949 91.2625 198.681 91.8946C200.413 92.5267 202.626 90.504 203.498 87.8239C203.973 86.2569 204.137 84.6118 203.978 82.982C207.827 84.3651 211.886 85.0708 215.976 85.0679C217.151 85.0679 218.302 85.0679 219.439 84.9036L221.563 100.415L187.139 98.5948L177.493 88.9616V73.728Z" fill="#25364F"/>
<path d="M110.87 119.126C109.288 117.999 107.374 117.434 105.434 117.52C103.579 117.448 101.742 117.918 100.15 118.873C99.5777 119.197 99.1048 119.67 98.7818 120.243C98.4588 120.815 98.298 121.465 98.3166 122.122V122.236C102.96 122.657 107.781 123.112 112.779 123.601V123.361C112.822 122.554 112.672 121.748 112.34 121.011C112.008 120.274 111.504 119.628 110.87 119.126Z" fill="#25364F"/>
<path d="M260.703 111.212H255.001L249.312 123.854C251.221 123.437 253.105 123.007 254.824 122.59L256.67 118.582L257.214 121.996C258.958 121.54 260.627 121.085 262.271 120.643L260.703 111.212Z" fill="#25364F"/>
<path d="M197.367 111.212V129.796C199.111 129.796 200.843 129.707 202.537 129.644V111.212H197.367Z" fill="#25364F"/>
<path d="M225.533 111.212H219.958L217.088 128.721L222.36 128.203L223.915 118.607L228.011 127.457C229.553 127.255 231.07 127.052 232.562 126.825L225.533 111.212Z" fill="#25364F"/>
<path d="M168.265 129.037C170.009 129.151 171.716 129.265 173.41 129.353V111.212H168.265V129.037Z" fill="#25364F"/>
<path d="M225.596 127.836L225.053 126.66L224.85 127.924L225.596 127.836Z" fill="#25364F"/>
</g>
<defs>
<clipPath id="clip0_2_5">
<rect width="284.192" height="197" fill="white"/>
</clipPath>
</defs>
</svg>
